<?xml version="1.0" standalone="no"?>
<!DOCTYPE svg PUBLIC "-//W3C//DTD SVG 1.1//EN" "http://www.w3.org/Graphics/SVG/1.1/DTD/svg11.dtd" >
<svg>
<metadata>
Created by FontForge 20110222 at Tue Apr  1 20:22:08 2014
 By deploy user
Copyright (c) 2009 by Jos Buivenga. All rights reserved.
</metadata>
<defs>
<font id="MuseoSlab-100" horiz-adv-x="556" >
  <font-face 
    font-family="Museo Slab 100"
    font-weight="250"
    font-stretch="normal"
    units-per-em="1000"
    panose-1="2 0 0 0 0 0 0 0 0 0"
    ascent="750"
    descent="-250"
    x-height="500"
    cap-height="700"
    bbox="-114 -210 1088 881"
    underline-thickness="50"
    underline-position="-50"
    unicode-range="U+0020-FB04"
  />
<missing-glyph horiz-adv-x="510" 
d="M5 0v700h500v-700h-500zM255 395l170 255h-340zM285 350l170 -255v510zM55 95l170 255l-170 255v-510zM85 50h340l-170 255z" />
    <glyph glyph-name="f_f" unicode="ff" horiz-adv-x="652" 
d="M45 0v39h90v422h-95v39h95v27q0 55 16 93t41.5 54.5t47 22.5t43.5 6l36 -3v-39q-13 3 -33 3q-17 0 -33 -4.5t-34.5 -17.5t-30 -42t-11.5 -72v-28h274v27q0 55 16 93t41.5 54.5t47 22.5t43.5 6l36 -3v-39q-13 3 -33 3q-17 0 -33 -4.5t-34.5 -17.5t-30 -42t-11.5 -72v-28
h133v-39h-133v-422h105v-39h-237v39h90v422h-274v-422h105v-39h-237z" />
    <glyph glyph-name="fi" unicode="fi" horiz-adv-x="609" 
d="M45 0v39h90v422h-95v39h95v27q0 55 16 93t41.5 54.5t47 22.5t43.5 6l36 -3v-39q-13 3 -33 3q-17 0 -33 -4.5t-34.5 -17.5t-30 -42t-11.5 -72v-28h316v-461h90v-39h-222v39h90v422h-274v-422h105v-39h-237zM445 627v73h54v-73h-54z" />
    <glyph glyph-name="fl" unicode="fl" horiz-adv-x="585" 
d="M45 0v39h90v422h-95v39h95v18q0 56 18 96t48 60.5t61 29t65 8.5q39 0 74.5 -5t52.5 -10l16 -5v-578q0 -36 13 -56.5t51 -20.5l25 2l-1 -39q-18 -2 -33 -2q-97 0 -97 112v551q-28 12 -99 12q-28 0 -53 -7t-48.5 -23.5t-37 -48t-13.5 -75.5v-19h133v-39h-133v-422h105v-39
h-237z" />
    <glyph glyph-name="f_f_i" unicode="ffi" horiz-adv-x="925" 
d="M45 0v39h90v422h-95v39h95v27q0 55 16 93t41.5 54.5t47 22.5t43.5 6l36 -3v-39q-13 3 -33 3q-17 0 -33 -4.5t-34.5 -17.5t-30 -42t-11.5 -72v-28h274v27q0 55 16 93t41.5 54.5t47 22.5t43.5 6l36 -3v-39q-13 3 -33 3q-17 0 -33 -4.5t-34.5 -17.5t-30 -42t-11.5 -72v-28
h316v-461h90v-39h-222v39h90v422h-274v-422h105v-39h-237v39h90v422h-274v-422h105v-39h-237zM761 627v73h54v-73h-54z" />
    <glyph glyph-name="f_f_l" unicode="ffl" horiz-adv-x="901" 
d="M45 0v39h90v422h-95v39h95v27q0 45 11 78.5t27 51.5t38 29t39 14t35 3l34 -3v-39q-14 3 -31 3q-18 0 -34 -4.5t-35 -17.5t-30.5 -42t-11.5 -72v-28h274v18q0 56 18 96t48 60.5t61 29t65 8.5q39 0 74.5 -5t52.5 -10l16 -5v-578q0 -36 13 -56.5t51 -20.5l25 2l-1 -39
q-18 -2 -33 -2q-97 0 -97 112v551q-28 12 -99 12q-28 0 -53 -7t-48.5 -23.5t-37 -48t-13.5 -75.5v-19h133v-39h-133v-422h105v-39h-237v39h90v422h-274v-422h105v-39h-237z" />
    <glyph glyph-name="f_j" unicode="fj" horiz-adv-x="577" 
d="M45 0v39h90v422h-95v39h95v27q0 55 16 93t41.5 54.5t47 22.5t43.5 6l36 -3v-39q-13 3 -33 3q-17 0 -33 -4.5t-34.5 -17.5t-30 -42t-11.5 -72v-28h308v-520q0 -58 -17 -98t-44.5 -57.5t-50.5 -23.5t-47 -6l-25 2v39q9 -2 22 -2q19 0 36.5 5t38 18.5t33 45t12.5 76.5v482
h-266v-422h105v-39h-237zM439 627v73h50v-73h-50z" />
    <glyph glyph-name=".notdef" horiz-adv-x="510" 
d="M5 0v700h500v-700h-500zM255 395l170 255h-340zM285 350l170 -255v510zM55 95l170 255l-170 255v-510zM85 50h340l-170 255z" />
    <glyph glyph-name=".null" horiz-adv-x="0" 
 />
    <glyph glyph-name="nonmarkingreturn" horiz-adv-x="333" 
 />
    <glyph glyph-name="space" unicode=" " horiz-adv-x="250" 
 />
    <glyph glyph-name="exclam" unicode="!" horiz-adv-x="219" 
d="M88 175v525h43v-525h-43zM81 0v61h59v-61h-59z" />
    <glyph glyph-name="quotedbl" unicode="&#x22;" horiz-adv-x="293" 
d="M177 518v191h43v-191h-43zM73 518v191h43v-191h-43z" />
    <glyph glyph-name="numbersign" unicode="#" horiz-adv-x="727" 
d="M166 0l35 199h-152l7 40h152l39 221h-152l7 40h152l35 200h43l-35 -200h189l35 200h43l-35 -200h149l-7 -40h-149l-39 -221h149l-7 -40h-149l-35 -199h-43l35 199h-189l-35 -199h-43zM251 239h189l39 221h-189z" />
    <glyph glyph-name="dollar" unicode="$" horiz-adv-x="515" 
d="M49 90l29 33l8.5 -8.5t24 -19t38.5 -23.5t52 -18.5t64 -8.5q67 0 111.5 38t44.5 100q0 35 -20 62t-51.5 44.5t-70 32.5t-77.5 32.5t-70.5 38.5t-51.5 55t-20 78q0 65 50 112.5t132 56.5v110h43v-109q47 -2 87.5 -18t57.5 -31l18 -15l-23 -36q-7 7 -19.5 16.5t-53 26
t-81.5 16.5q-75 0 -120.5 -37.5t-45.5 -90.5q0 -43 26.5 -74.5t67 -48.5t87 -37t87 -39.5t67 -56t26.5 -86.5q0 -73 -49.5 -123.5t-131.5 -57.5v-108h-43v108q-56 4 -104 25.5t-68 40.5z" />
    <glyph glyph-name="percent" unicode="%" horiz-adv-x="684" 
d="M184 451q-54 0 -92 38t-38 92t38 92.5t92 38.5t92.5 -38.5t38.5 -92.5t-38.5 -92t-92.5 -38zM52 0l531 700h52l-531 -700h-52zM184 491q37 0 62.5 26t25.5 64t-25.5 64.5t-62.5 26.5t-62 -26.5t-25 -64.5t25 -64t62 -26zM370 118q0 54 38 92.5t92 38.5t92.5 -38.5
t38.5 -92.5t-38.5 -92t-92.5 -38t-92 38t-38 92zM413 118q0 -38 25 -64t62 -26t62.5 26t25.5 64t-25.5 64.5t-62.5 26.5t-62 -26.5t-25 -64.5z" />
    <glyph glyph-name="ampersand" unicode="&#x26;" horiz-adv-x="658" 
d="M60 191q0 65 35 118t97 70v2q-4 1 -11 4t-24.5 14.5t-30.5 27.5t-24 45.5t-11 65.5q0 77 57 125.5t157 48.5q13 0 31.5 -2.5t30.5 -5.5l12 -2l-14 -38q-37 8 -63 8q-72 0 -119 -36.5t-47 -96.5q0 -23 6 -44t22.5 -44.5t53.5 -38t92 -14.5h180v102h43v-102h97v-40h-97
v-112q0 -129 -62.5 -193.5t-170.5 -64.5q-105 0 -172.5 57.5t-67.5 145.5zM105 193q0 -70 52.5 -116.5t142.5 -46.5q190 0 190 216v112h-181q-101 0 -152.5 -44.5t-51.5 -120.5z" />
    <glyph glyph-name="quotesingle" unicode="'" horiz-adv-x="189" 
d="M73 518v191h43v-191h-43z" />
    <glyph glyph-name="parenleft" unicode="(" horiz-adv-x="287" 
d="M190 -95q-110 192 -110 430q0 208 110 390h44q-113 -190 -113 -391q0 -231 113 -429h-44z" />
    <glyph glyph-name="parenright" unicode=")" horiz-adv-x="288" 
d="M54 -95q113 198 113 429q0 201 -113 391h44q110 -182 110 -390q0 -238 -110 -430h-44z" />
    <glyph glyph-name="asterisk" unicode="*" horiz-adv-x="476" 
d="M144 344l-36 25l99 130v2l-156 47l13 42l155 -54l-5 164h47l-5 -164l156 53l14 -41l-157 -47v-2l98 -130l-35 -26l-93 134h-2z" />
    <glyph glyph-name="plus" unicode="+" horiz-adv-x="600" 
d="M42 263v40h237v263h43v-263h236v-40h-236v-263h-43v263h-237z" />
    <glyph glyph-name="comma" unicode="," horiz-adv-x="241" 
d="M30 -134l67 195h56l-81 -195h-42z" />
    <glyph glyph-name="hyphen" unicode="-" horiz-adv-x="528" 
d="M126 263v40h276v-40h-276z" />
    <glyph glyph-name="period" unicode="." horiz-adv-x="237" 
d="M88 0v63h61v-63h-61z" />
    <glyph glyph-name="slash" unicode="/" horiz-adv-x="394" 
d="M49 -42l253 782h44l-253 -782h-44z" />
    <glyph glyph-name="zero" unicode="0" horiz-adv-x="614" 
d="M307 -12q-236 0 -236 362t236 362t236 -362t-236 -362zM307 29q54 0 92.5 24t59.5 69t30 100.5t9 127.5q0 321 -191 321t-191 -321q0 -72 9 -127.5t30 -100.5t59.5 -69t92.5 -24z" />
    <glyph glyph-name="one" unicode="1" horiz-adv-x="428" 
d="M49 0v40h159v570l1 35h-2q-7 -13 -37 -43l-83 -83l-30 29l151 152h43v-660h155v-40h-357z" />
    <glyph glyph-name="two" unicode="2" horiz-adv-x="569" 
d="M60 0q-3 20 -3 37q0 49 20.5 91.5t53.5 73.5t72.5 59.5t79.5 56t73 56t53.5 66t20.5 80.5q0 65 -44.5 108t-118.5 43q-31 0 -60 -10.5t-48.5 -25.5t-34 -29.5t-20.5 -25.5l-7 -10l-32 22q3 5 8 13t23.5 28.5t39.5 36.5t57 29t75 13q98 0 152.5 -56t54.5 -136
q0 -56 -27.5 -104t-69 -80t-89.5 -66.5t-89.5 -64.5t-69 -73t-27.5 -92h366v101h42v-141h-451z" />
    <glyph glyph-name="three" unicode="3" horiz-adv-x="551" 
d="M81 559v141h402v-30l-226 -261q27 0 56 -5t61 -20t57 -37.5t41 -60t16 -84.5q0 -89 -65.5 -151.5t-156.5 -62.5q-37 0 -73.5 10t-61.5 24t-44.5 28.5t-28.5 24.5l-10 10l32 32q3 -4 8.5 -9.5t24.5 -21t39.5 -27t52 -21t63.5 -9.5q69 0 122 49t53 124q0 78 -55.5 122.5
t-131.5 44.5l-47 -2l-13 32l206 241l22 20v2q-19 -2 -30 -2h-271v-101h-42z" />
    <glyph glyph-name="four" unicode="4" horiz-adv-x="575" 
d="M30 200v30l363 470h40v-460h104v-40h-104v-200h-43v200h-360zM369 600l-279 -358v-2h300v353l3 39h-2q-10 -17 -22 -32z" />
    <glyph glyph-name="five" unicode="5" horiz-adv-x="549" 
d="M52 79l33 29q2 -3 6.5 -8.5t19.5 -19t33 -24t47 -19t61 -8.5q81 0 137.5 54.5t56.5 127.5q0 85 -54 136.5t-137 51.5q-36 0 -70.5 -10.5t-51.5 -21.5l-17 -11l-32 11l40 333h325v-141h-42v101h-245l-27 -224l-6 -28h2q52 32 126 32q98 0 166 -64.5t68 -158.5
q0 -95 -70 -162t-170 -67q-60 0 -109.5 23t-69.5 45z" />
    <glyph glyph-name="six" unicode="6" horiz-adv-x="583" 
d="M312 -12q-113 0 -179 94t-66 233q0 68 17.5 135t51.5 127t94.5 97.5t137.5 37.5q32 0 62.5 -7t45.5 -14l14 -7l-21 -39q-43 26 -103 26q-59 0 -107 -28.5t-78 -75.5t-47.5 -103t-21.5 -116h2q29 44 82.5 70t115.5 26q94 0 154.5 -61t60.5 -162q0 -109 -62 -171t-153 -62z
M116 263q0 -81 56 -157.5t139 -76.5q79 0 125 53.5t46 138.5q0 83 -47.5 132.5t-124.5 49.5q-78 0 -136 -45t-58 -95z" />
    <glyph glyph-name="seven" unicode="7" horiz-adv-x="522" 
d="M125 0l310 632l17 28v2q-15 -2 -33 -2h-334v-101h-42v141h459v-30l-332 -670h-45z" />
    <glyph glyph-name="eight" unicode="8" horiz-adv-x="590" 
d="M65 196q0 44 15.5 82.5t40.5 63.5t38.5 36t26.5 19q-93 56 -93 143q0 72 54.5 122t152.5 50q95 0 151 -49t56 -128q0 -48 -23 -97t-40 -70t-28 -30q106 -58 106 -151q0 -83 -65.5 -141t-159.5 -58q-93 0 -162.5 57t-69.5 151zM138 541q0 -25 11 -46.5t25.5 -36t42 -30.5
t47.5 -24.5t56 -23.5t55 -23q11 9 28 29t38 63t21 84q0 64 -45.5 101t-117.5 37q-74 0 -117.5 -37.5t-43.5 -92.5zM110 198q0 -74 56 -121.5t129 -47.5q70 0 126 44.5t56 108.5q0 31 -12.5 55.5t-41.5 44t-53 31.5t-71.5 31.5t-72.5 31.5q-116 -72 -116 -178z" />
    <glyph glyph-name="nine" unicode="9" horiz-adv-x="583" 
d="M56 479q0 109 62 171t153 62q113 0 179 -94t66 -233q0 -68 -17.5 -135t-51.5 -127t-94.5 -97.5t-137.5 -37.5q-32 0 -62.5 7t-44.5 14l-15 7l21 39q43 -26 103 -26q59 0 107 28.5t78 75.5t47.5 103t21.5 116h-2q-29 -42 -83 -67.5t-115 -25.5q-93 0 -154 60.5t-61 159.5z
M101 479q0 -81 48 -130t124 -49q78 0 136 43.5t58 93.5q0 81 -56 157.5t-139 76.5q-79 0 -125 -53.5t-46 -138.5z" />
    <glyph glyph-name="colon" unicode=":" horiz-adv-x="303" 
d="M121 0v63h61v-63h-61zM121 437v63h61v-63h-61z" />
    <glyph glyph-name="semicolon" unicode=";" horiz-adv-x="306" 
d="M122 437v63h61v-63h-61zM71 -134l57 195h56l-71 -195h-42z" />
    <glyph glyph-name="less" unicode="&#x3c;" horiz-adv-x="600" 
d="M69 265v36l439 197v-48l-377 -166v-2l377 -166v-48z" />
    <glyph glyph-name="equal" unicode="=" horiz-adv-x="600" 
d="M72 343v40h456v-40h-456zM72 183v40h456v-40h-456z" />
    <glyph glyph-name="greater" unicode="&#x3e;" horiz-adv-x="600" 
d="M91 68v48l377 166v2l-377 166v48l439 -197v-36z" />
    <glyph glyph-name="question" unicode="?" horiz-adv-x="445" 
d="M161 175v44q0 45 18.5 82.5t44.5 63.5t52.5 50.5t45 56.5t18.5 69q0 55 -41 92t-105 37q-32 0 -64 -10.5t-48 -21.5l-15 -10l-23 34q7 6 19 14t51 22t79 14q85 0 138.5 -49t53.5 -123q0 -39 -13.5 -71.5t-33.5 -53.5t-43.5 -44t-43.5 -42t-33.5 -48t-13.5 -62v-44h-43z
M153 0v61h59v-61h-59z" />
    <glyph glyph-name="at" unicode="@" horiz-adv-x="753" 
d="M53 244q0 152 102 258t256 106q108 0 164 -52t56 -125v-344h70v-40h-265q-80 0 -136.5 57t-56.5 137q0 81 56.5 138.5t136.5 57.5h150q-2 55 -45.5 93t-129.5 38q-135 0 -224 -94t-89 -231q0 -136 88.5 -229.5t218.5 -93.5v-42q-147 0 -249.5 106.5t-102.5 259.5z
M288 241q0 -64 44.5 -109t108.5 -45h145v310h-143q-65 0 -110 -46t-45 -110z" />
    <glyph glyph-name="A" unicode="A" horiz-adv-x="710" 
d="M10 0v40h75l247 660h46l247 -660h75v-40h-206v40h85l-76 202h-297l-75 -202h85v-40h-206zM221 282h267l-122 327l-10 38h-2q-3 -20 -10 -38z" />
    <glyph glyph-name="B" unicode="B" horiz-adv-x="660" 
d="M53 0v40h95v620h-95v40h312q73 0 119 -26q33 -19 54.5 -59t21.5 -91q0 -108 -91 -152v-2q53 -14 86 -62t33 -113q0 -61 -30 -110t-79 -69q-38 -16 -105 -16h-321zM191 388h191q59 0 96 37.5t37 99.5q0 79 -56 114q-34 21 -94 21h-174v-272zM191 40h183q53 0 84 13
q39 16 62 53t23 87q0 70 -43.5 112.5t-111.5 42.5h-197v-308z" />
    <glyph glyph-name="C" unicode="C" horiz-adv-x="740" 
d="M59 355q0 152 101 254.5t251 102.5q50 0 104.5 -11.5t102.5 -45t48 -82.5v-66h-44v56q0 36 -37.5 61.5t-83 36t-89.5 10.5q-131 0 -219.5 -90.5t-88.5 -225.5q0 -137 89 -231.5t222 -94.5q27 0 61 5.5t71 17t61.5 34t24.5 50.5v55h44v-65q0 -35 -27 -63t-68.5 -43.5
t-84.5 -23.5t-82 -8q-154 0 -255 106.5t-101 260.5z" />
    <glyph glyph-name="D" unicode="D" horiz-adv-x="770" 
d="M53 0v40h95v620h-95v40h292q90 0 151 -19q99 -33 155 -120t56 -212q0 -130 -60.5 -216.5t-168.5 -117.5q-52 -15 -133 -15h-292zM191 40h147q76 0 129 16q91 27 143 103.5t52 190.5q0 110 -49 187t-136 106q-50 17 -139 17h-147v-620z" />
    <glyph glyph-name="E" unicode="E" horiz-adv-x="616" 
d="M53 0v40h95v620h-95v40h483v-130h-42v90h-303v-287h279v-40h-279v-293h323v96h42v-136h-503z" />
    <glyph glyph-name="F" unicode="F" horiz-adv-x="555" 
d="M53 0v40h95v620h-95v40h458v-135h-42v95h-278v-292h268v-40h-268v-288h100v-40h-238z" />
    <glyph glyph-name="G" unicode="G" horiz-adv-x="766" 
d="M60 350q0 156 100 259t261 103q98 0 178.5 -38t80.5 -100v-67h-44v53q0 35 -35 61t-83 38t-99 12q-141 0 -227.5 -91.5t-86.5 -230.5q0 -138 87 -229t224 -91q32 0 69 5.5t76.5 17.5t65.5 36t26 56v125h-155v40h198v-170q0 -39 -27.5 -69.5t-71 -47.5t-89 -25.5
t-88.5 -8.5q-159 0 -259.5 103t-100.5 259z" />
    <glyph glyph-name="H" unicode="H" horiz-adv-x="826" 
d="M53 0v40h95v620h-95v40h233v-40h-95v-289h444v289h-95v40h233v-40h-95v-620h95v-40h-233v40h95v291h-444v-291h95v-40h-233z" />
    <glyph glyph-name="I" unicode="I" horiz-adv-x="339" 
d="M53 0v40h95v620h-95v40h233v-40h-95v-620h95v-40h-233z" />
    <glyph glyph-name="J" unicode="J" horiz-adv-x="535" 
d="M32 187v26h43v-19q0 -71 38 -118t106 -47q60 0 102 39.5t42 125.5v466h-111v40h239v-40h-85v-473q0 -102 -54.5 -150.5t-132.5 -48.5t-132.5 48.5t-54.5 150.5z" />
    <glyph glyph-name="K" unicode="K" horiz-adv-x="646" 
d="M53 0v40h95v620h-95v40h233v-40h-95v-272h113l189 272h-73v40h199v-40h-74l-204 -290v-2q12 -6 29 -35l159 -264q18 -29 55 -29h35v-40h-35q-42 0 -59 10t-37 43l-157 262q-19 33 -58 33h-82v-308h95v-40h-233z" />
    <glyph glyph-name="L" unicode="L" horiz-adv-x="578" 
d="M53 0v40h95v620h-95v40h233v-40h-95v-620h312v120h42v-160h-492z" />
    <glyph glyph-name="M" unicode="M" horiz-adv-x="928" 
d="M36 0v40h95l49 620h-96v40h141l225 -486l13 -33h2q5 15 13 33l225 486h141v-40h-96l49 -620h95v-40h-233v40h95l-43 542l1 42h-2q-7 -26 -13 -39l-211 -450h-44l-211 450l-13 39h-2l1 -42l-43 -542h95v-40h-233z" />
    <glyph glyph-name="N" unicode="N" horiz-adv-x="823" 
d="M53 0v40h95v620h-95v40h134l436 -598l19 -36h2l-3 41v553h-95v40h233v-40h-95v-660h-40l-435 599l-19 36h-2l3 -41v-554h95v-40h-233z" />
    <glyph glyph-name="O" unicode="O" horiz-adv-x="826" 
d="M59 355q0 150 103.5 253.5t250.5 103.5t250.5 -103.5t103.5 -253.5q0 -154 -103.5 -260.5t-250.5 -106.5t-250.5 106.5t-103.5 260.5zM104 355q0 -137 90 -231.5t219 -94.5t219 94.5t90 231.5q0 134 -90 225t-219 91t-219 -91t-90 -225z" />
    <glyph glyph-name="P" unicode="P" horiz-adv-x="630" 
d="M53 0v40h95v620h-95v40h310q78 0 121 -21q50 -24 78.5 -72t28.5 -111q0 -70 -34 -120.5t-92 -71.5q-39 -14 -102 -14h-172v-250h95v-40h-233zM191 330h170q53 0 91 13q44 17 69 57t25 96q0 106 -83 146q-39 18 -102 18h-170v-330z" />
    <glyph glyph-name="Q" unicode="Q" horiz-adv-x="826" 
d="M59 354q0 151 102.5 254.5t249.5 103.5q149 0 252.5 -103.5t103.5 -254.5q0 -146 -92 -249l90 -93l-28 -27l-89 92q-98 -89 -237 -89q-146 0 -249 107t-103 259zM104 354q0 -137 88.5 -231t218.5 -94q56 0 111.5 20.5t96.5 57.5l-110 114l28 27l109 -113q76 92 76 219
q0 135 -89.5 226t-221.5 91q-130 0 -218.5 -91t-88.5 -226z" />
    <glyph glyph-name="R" unicode="R" horiz-adv-x="669" 
d="M53 0v40h95v620h-95v40h295q73 0 120 -16q108 -42 108 -170q0 -82 -45 -136.5t-122 -63.5v-2q10 -8 20 -25l132 -224q9 -14 19.5 -18.5t31.5 -4.5h19v-40h-19q-44 0 -59.5 9t-36.5 44l-125 211q-16 28 -32 37t-51 9h-117v-270h95v-40h-233zM191 350h185q69 0 112 44.5
t43 117.5q0 102 -86 134q-38 14 -99 14h-155v-310z" />
    <glyph glyph-name="S" unicode="S" horiz-adv-x="553" 
d="M63 182h44v-51q0 -46 49.5 -74t117.5 -28q77 0 124.5 38t47.5 106q0 37 -13.5 64.5t-43 48t-54.5 32t-70 28.5q-28 11 -39.5 15.5t-36.5 15.5t-36.5 19.5t-29 23.5t-25.5 30.5t-14.5 37.5t-6.5 47q0 83 58 130t145 47q77 0 135 -28t58 -75v-67h-44v53q0 34 -46.5 55
t-102.5 21q-69 0 -113.5 -34.5t-44.5 -96.5q0 -27 10.5 -49.5t22 -36t40.5 -29t43.5 -21.5t53.5 -21q41 -16 60.5 -24.5t51.5 -27t47 -37t27.5 -48.5t12.5 -67q0 -85 -60.5 -138t-156.5 -53q-80 0 -145.5 35t-65.5 98v61z" />
    <glyph glyph-name="T" unicode="T" horiz-adv-x="643" 
d="M205 0v40h95v620h-224v-118h-42v158h575v-158h-42v118h-224v-620h95v-40h-233z" />
    <glyph glyph-name="U" unicode="U" horiz-adv-x="785" 
d="M131 255v405h-95v40h233v-40h-95v-403q0 -88 34 -141q56 -87 184 -87q63 0 112 24t74 67q33 57 33 139v401h-95v40h233v-40h-95v-405q0 -97 -41 -161q-69 -106 -220 -106q-74 0 -132.5 28t-91.5 80q-38 61 -38 159z" />
    <glyph glyph-name="V" unicode="V" horiz-adv-x="698" 
d="M324 0l-237 660h-75v40h205v-40h-83l204 -573l10 -38h3q4 20 10 38l204 573h-83v40h205v-40h-76l-237 -660h-50z" />
    <glyph glyph-name="W" unicode="W" horiz-adv-x="989" 
d="M17 660v40h204v-40h-84l141 -567l7 -38h3q4 20 9 38l174 607h47l174 -607l9 -38h3q3 20 7 38l141 567h-84v40h204v-40h-74l-169 -660h-54l-172 599l-7 38h-3q-2 -20 -7 -38l-172 -599h-54l-169 660h-74z" />
    <glyph glyph-name="X" unicode="X" horiz-adv-x="624" 
d="M25 0v40h73l185 312l-186 308h-69v40h204v-40h-85l153 -252l14 -25h2q5 12 13 25l148 252h-82v40h203v-40h-73l-188 -315l186 -305h73v-40h-204v40h81l-151 250l-14 25h-2q-5 -12 -13 -25l-147 -250h82v-40h-203z" />
    <glyph glyph-name="Y" unicode="Y" horiz-adv-x="635" 
d="M201 0v40h95v264l-215 356h-71v40h204v-40h-83l172 -287l13 -25h2q7 14 14 25l173 287h-83v40h203v-40h-71l-215 -356v-264h95v-40h-233z" />
    <glyph glyph-name="Z" unicode="Z" horiz-adv-x="612" 
d="M59 0v34l406 593l27 33v2q-18 -2 -38 -2h-348v-118h-42v158h480v-34l-406 -593l-27 -33v-2q18 2 38 2h362v120h42v-160h-494z" />
    <glyph glyph-name="bracketleft" unicode="[" horiz-adv-x="279" 
d="M107 -95v820h108v-40h-65v-740h65v-40h-108z" />
    <glyph glyph-name="backslash" unicode="\" horiz-adv-x="394" 
d="M301 -42l-253 782h44l253 -782h-44z" />
    <glyph glyph-name="bracketright" unicode="]" horiz-adv-x="279" 
d="M64 -55h65v740h-65v40h108v-820h-108v40z" />
    <glyph glyph-name="asciicircum" unicode="^" horiz-adv-x="600" 
d="M77 252l197 448h32l197 -448h-46l-167 388l-167 -388h-46z" />
    <glyph glyph-name="underscore" unicode="_" horiz-adv-x="536" 
d="M20 0h496v-40h-496v40z" />
    <glyph glyph-name="grave" unicode="`" horiz-adv-x="509" 
d="M277 750l-104 111h64l94 -111h-54z" />
    <glyph glyph-name="a" unicode="a" horiz-adv-x="534" 
d="M42 136q0 169 310 169h33v22q0 145 -133 145q-39 0 -76 -12t-54 -24l-17 -13l-24 34q7 6 20.5 15t58.5 24.5t93 15.5q174 0 174 -184v-267q0 -22 22 -22h60v-39h-66q-31 0 -44.5 13t-13.5 42v11l4 45h-2q-2 -5 -5.5 -13.5t-18.5 -29.5t-33 -37t-50.5 -29.5t-69.5 -13.5
q-67 0 -117.5 38t-50.5 110zM86 141q0 -47 33 -80.5t91 -33.5q81 0 128 65t47 147v27h-32q-267 0 -267 -125z" />
    <glyph glyph-name="b" unicode="b" horiz-adv-x="585" 
d="M95 0v661h-95v39h137v-260l-4 -41h2q2 5 5.5 12.5t18.5 27t33.5 34.5t51.5 27t72 12q99 0 157.5 -72t58.5 -190t-62.5 -190t-161.5 -72q-35 0 -66 11.5t-49.5 28t-32.5 33.5t-20 29l-5 11h-2q4 -18 4 -44v-57h-42zM136 249q0 -90 45.5 -155t128.5 -65q76 0 127 59.5
t51 161.5q0 100 -48.5 160.5t-125.5 60.5q-76 0 -127 -55.5t-51 -166.5z" />
    <glyph glyph-name="c" unicode="c" horiz-adv-x="544" 
d="M51 249q0 116 75.5 189.5t182.5 73.5q23 0 50.5 -5t57 -16t49 -33t19.5 -50v-48h-42v39q0 33 -45 52.5t-89 19.5q-90 0 -152 -61.5t-62 -160.5q0 -98 62 -159t152 -61q49 0 90.5 18t58.5 36l18 18l22 -35q-3 -3 -8 -8.5t-23 -19t-38 -23.5t-52.5 -18.5t-67.5 -8.5
q-109 0 -183.5 72.5t-74.5 188.5z" />
    <glyph glyph-name="d" unicode="d" horiz-adv-x="605" 
d="M53 250q0 118 62.5 190t161.5 72q35 0 66 -11.5t49.5 -27.5t32.5 -32t19 -27l6 -12h2q-4 18 -4 41v218h-95v39h137v-639q0 -22 22 -22h60v-39h-66q-31 0 -44.5 13t-13.5 42v11l4 35h-2q-2 -5 -5.5 -12.5t-18.5 -27t-33.5 -34.5t-51.5 -27t-72 -12q-99 0 -157.5 72
t-58.5 190zM97 250q0 -100 48.5 -160.5t125.5 -60.5q76 0 127 55.5t51 166.5q0 90 -45.5 155t-128.5 65q-76 0 -127 -59.5t-51 -161.5z" />
    <glyph glyph-name="e" unicode="e" horiz-adv-x="549" 
d="M52 249q0 122 71 192.5t172 70.5q97 0 150.5 -65.5t53.5 -162.5l-2 -27h-401q0 -105 61.5 -166.5t152.5 -61.5q43 0 81.5 15.5t56.5 31.5l17 16l23 -35q-8 -8 -22.5 -19.5t-61 -30.5t-94.5 -19q-109 0 -183.5 72.5t-74.5 188.5zM99 296h356q-4 87 -49 132t-112 45
q-73 0 -127.5 -46.5t-67.5 -130.5z" />
    <glyph glyph-name="f" unicode="f" horiz-adv-x="336" 
d="M45 0v39h90v422h-95v39h95v27q0 55 16 93t41.5 54.5t47 22.5t43.5 6l36 -3v-39q-13 3 -33 3q-17 0 -33 -4.5t-34.5 -17.5t-30 -42t-11.5 -72v-28h133v-39h-133v-422h105v-39h-237z" />
    <glyph glyph-name="g" unicode="g" horiz-adv-x="597" 
d="M118 -134q62 -35 134 -35q85 0 137.5 42.5t52.5 129.5v58l4 41h-2q-50 -102 -168 -102q-98 0 -160 71t-62 187q0 117 58.5 185.5t156.5 68.5q60 0 107.5 -24t66.5 -71h2q-3 7 -3 25q0 31 13 44.5t45 13.5h74v-39h-68q-22 0 -22 -22v-436q0 -108 -65.5 -160.5
t-163.5 -52.5q-81 0 -157 39zM279 41q73 0 118.5 51.5t45.5 165.5q0 213 -174 213q-81 0 -126 -56t-45 -157q0 -100 50 -158.5t131 -58.5z" />
    <glyph glyph-name="h" unicode="h" horiz-adv-x="644" 
d="M28 0v39h90v622h-95v39h137v-288l-4 -41h2q17 48 73 94.5t139 46.5q92 0 128.5 -49.5t36.5 -145.5v-278h90v-39h-132v302q0 30 -2 51.5t-9 45t-20 38.5t-36.5 24.5t-55.5 9.5q-88 0 -149 -64.5t-61 -162.5v-205h90v-39h-222z" />
    <glyph glyph-name="i" unicode="i" horiz-adv-x="295" 
d="M129 627v73h54v-73h-54zM45 0v39h90v422h-95v39h137v-461h90v-39h-222z" />
    <glyph glyph-name="j" unicode="j" horiz-adv-x="254" 
d="M111 627v73h54v-73h-54zM-25 -164q9 -2 22 -2q19 0 36.5 5t38 18.5t33 45t12.5 76.5v482h-95v39h137v-520q0 -58 -17 -98t-44.5 -57.5t-50.5 -23.5t-47 -6l-25 2v39z" />
    <glyph glyph-name="k" unicode="k" horiz-adv-x="537" 
d="M28 0v39h90v622h-95v39h137v-397h84l135 158h-78v39h203v-39h-71l-150 -173v-2q10 0 33 -38l112 -187q8 -14 17 -18t31 -4h37v-39h-39q-39 0 -55 9.5t-36 43.5l-114 189q-9 14 -19.5 18t-31.5 4h-58v-225h90v-39h-222z" />
    <glyph glyph-name="l" unicode="l" horiz-adv-x="253" 
d="M96 110v551h-94v39h136v-586q0 -77 59 -77l30 2l-1 -39q-17 -2 -36 -2q-94 0 -94 112z" />
    <glyph glyph-name="m" unicode="m" horiz-adv-x="993" 
d="M45 0v39h90v400q0 22 -22 22h-73v39h79q31 0 44.5 -13t13.5 -42v-33l-4 -41h2q19 56 76.5 98.5t115.5 42.5q74 0 112 -34t46 -102h2q22 55 75 95.5t115 40.5q92 0 129.5 -49.5t37.5 -145.5v-278h90v-39h-132v302q0 82 -26 126.5t-99 44.5q-79 0 -132.5 -69.5
t-53.5 -155.5v-209h90v-39h-132v302q0 30 -2 51.5t-9 45.5t-20 39t-36 25t-55 10q-79 0 -134.5 -69.5t-55.5 -155.5v-209h90v-39h-222z" />
    <glyph glyph-name="n" unicode="n" horiz-adv-x="661" 
d="M45 0v39h90v400q0 22 -22 22h-73v39h79q31 0 44.5 -13t13.5 -42v-33l-4 -41h2q17 48 73 94.5t139 46.5q92 0 128.5 -49.5t36.5 -145.5v-278h90v-39h-132v302q0 30 -2 51.5t-9 45t-20 38.5t-36.5 24.5t-55.5 9.5q-88 0 -149 -65.5t-61 -157.5v-209h90v-39h-222z" />
    <glyph glyph-name="o" unicode="o" horiz-adv-x="618" 
d="M50 253q0 109 75.5 184t183.5 75t183.5 -75t75.5 -184q0 -111 -75.5 -188t-183.5 -77t-183.5 77t-75.5 188zM94 253q0 -95 62.5 -159.5t152.5 -64.5t152.5 64.5t62.5 159.5q0 92 -62.5 155t-152.5 63t-152.5 -63t-62.5 -155z" />
    <glyph glyph-name="p" unicode="p" horiz-adv-x="608" 
d="M28 -161h90v600q0 22 -22 22h-73v39h79q31 0 44.5 -13t13.5 -42v-5l-3 -40h2q2 5 5.5 12.5t17.5 26.5t32.5 34t52 27t72.5 12q99 0 157.5 -72t58.5 -190t-62 -190t-160 -72q-36 0 -67.5 11.5t-50.5 28t-32.5 33.5t-18.5 29l-6 11h-2q4 -18 4 -44v-218h90v-39h-222v39z
M159 249q0 -89 47 -154.5t127 -65.5q76 0 127 59.5t51 161.5q0 100 -48.5 160.5t-125.5 60.5q-76 0 -127 -55.5t-51 -166.5z" />
    <glyph glyph-name="q" unicode="q" horiz-adv-x="585" 
d="M53 250q0 118 62.5 190t161.5 72q35 0 66 -11t49.5 -27t32 -32.5t19.5 -27.5l5 -11h2q-3 17 -3 40v57h42v-661h90v-39h-222v39h90v218l4 44h-2q-2 -5 -5.5 -12.5t-18.5 -27t-33.5 -34.5t-51.5 -27t-72 -12q-99 0 -157.5 72t-58.5 190zM97 250q0 -100 48.5 -160.5
t125.5 -60.5q76 0 127 55.5t51 166.5q0 90 -45.5 155.5t-128.5 65.5q-76 0 -127 -60t-51 -162z" />
    <glyph glyph-name="r" unicode="r" horiz-adv-x="373" 
d="M51 0v39h80v400q0 22 -22 22h-73v39h79q31 0 44.5 -13t13.5 -42v-35l-2 -41h2q20 61 60.5 98t97.5 37l29 -3v-42q-12 2 -23 2q-55 0 -94 -41t-54.5 -94.5t-15.5 -109.5v-177h80v-39h-202z" />
    <glyph glyph-name="s" unicode="s" horiz-adv-x="460" 
d="M49 106v43h42v-38q0 -40 46 -61t99 -21q55 0 93 24.5t38 66.5q0 18 -8.5 33.5t-17 25t-32.5 22t-34 16.5t-42 16q-7 3 -10 4q-36 14 -57.5 24t-47 27.5t-37.5 41t-12 53.5q0 60 48.5 94.5t113.5 34.5q58 0 109 -25t51 -70v-55h-42v41q0 30 -35 49t-81 19q-50 0 -85 -22.5
t-35 -62.5q0 -18 8.5 -33t18.5 -25t32.5 -21.5t35.5 -17t42 -16.5q38 -15 59.5 -25t49 -28t40 -41.5t12.5 -54.5q0 -61 -49 -98.5t-130 -37.5q-74 0 -128.5 32t-54.5 86z" />
    <glyph glyph-name="t" unicode="t" horiz-adv-x="316" 
d="M112 181v280h-95v39h95v139h42v-139h131v-39h-131v-277q0 -46 12.5 -78t32.5 -46.5t37.5 -19.5t36.5 -5l23 2v-39q-10 -2 -25 -2q-19 0 -37 3t-41 14.5t-40 30.5t-29 54.5t-12 82.5z" />
    <glyph glyph-name="u" unicode="u" horiz-adv-x="641" 
d="M113 183v278h-95v39h137v-302q0 -30 2 -51.5t9 -45t20 -38.5t36.5 -24.5t55.5 -9.5q90 0 147.5 67.5t57.5 159.5v205h-95v39h137v-440q0 -22 22 -22h60v-38h-66q-31 0 -44.5 13t-13.5 42v28l2 41h-2q-17 -47 -70.5 -91.5t-134.5 -44.5q-89 0 -127 48t-38 147z" />
    <glyph glyph-name="v" unicode="v" horiz-adv-x="548" 
d="M8 461v39h192v-39h-79l143 -374l9 -32h2q3 17 9 32l143 374h-79v39h192v-39h-68l-178 -461h-40l-178 461h-68z" />
    <glyph glyph-name="w" unicode="w" horiz-adv-x="844" 
d="M9 461v39h192v-39h-81l122 -377l7 -32h2q3 17 8 32l140 414h46l140 -414l8 -32h2q2 17 7 32l122 377h-81v39h192v-39h-66l-154 -461h-42l-141 411l-9 33h-2q-4 -18 -9 -33l-141 -411h-42l-154 461h-66z" />
    <glyph glyph-name="x" unicode="x" horiz-adv-x="544" 
d="M26 0v39h83l136 222l-124 200h-89v39h113l111 -182l15 -26h2q6 13 15 27l112 181h112v-39h-88l-126 -201l138 -221h82v-39h-107l-124 203l-15 26h-2q-6 -13 -15 -27l-123 -202h-106z" />
    <glyph glyph-name="y" unicode="y" horiz-adv-x="561" 
d="M63 -146q28 -24 62 -24q61 0 99 90l34 82l-182 459h-68v39h193v-39h-79l149 -381l8 -28h2q3 13 9 28l149 381h-79v39h193v-39h-69l-226 -566q-19 -47 -53.5 -76t-79.5 -29q-21 0 -41.5 7t-29.5 13l-10 7z" />
    <glyph glyph-name="z" unicode="z" horiz-adv-x="506" 
d="M51 34l317 398l25 28v2q-17 -1 -37 -1h-255v-95h-41v134h390v-34l-318 -398l-25 -28v-2q17 1 37 1h265v95h41v-134h-399v34z" />
    <glyph glyph-name="braceleft" unicode="{" horiz-adv-x="305" 
d="M124 88v94q0 30 -9 53.5t-21 35t-24.5 19t-21.5 9.5l-9 2v40q3 0 9 1.5t20.5 9.5t26 19.5t20.5 35t9 53.5v81q0 59 16 99.5t41 56.5t43 21.5t36 5.5h9v-39h-6q-13 0 -25.5 -4t-30.5 -17t-29 -44.5t-11 -77.5v-93q0 -27 -8 -50t-19.5 -36.5t-23.5 -23.5t-20 -13l-8 -4v-2
q3 -1 8.5 -3.5t19 -12.5t24 -22.5t19 -36.5t8.5 -52v-106q0 -46 11 -77.5t29 -44.5t30.5 -17t25.5 -4h6v-39q-3 -1 -9 -1q-13 0 -26.5 2.5t-34.5 13.5t-36.5 29t-27 54.5t-11.5 84.5z" />
    <glyph glyph-name="bar" unicode="|" horiz-adv-x="255" 
d="M106 -155v940h43v-940h-43z" />
    <glyph glyph-name="braceright" unicode="}" horiz-adv-x="305" 
d="M36 -56h6q13 0 25.5 4t30.5 17t29 44.5t11 77.5v106q0 45 20 76.5t40 40.5l19 10v2q-3 1 -8.5 3.5t-19 13t-24 23.5t-19 36.5t-8.5 50.5v93q0 46 -11 77.5t-29 44.5t-30.5 17t-25.5 4h-6v39h9q18 0 36 -5.5t43 -21.5t41 -56.5t16 -99.5v-81q0 -30 9 -53.5t21.5 -35
t24.5 -19t21 -9.5l9 -2v-40q-3 0 -9 -1.5t-20.5 -9.5t-26 -19.5t-20.5 -35t-9 -53.5v-94q0 -48 -11.5 -84.5t-27 -54.5t-36.5 -29t-34.5 -13.5t-26.5 -2.5l-9 1v39z" />
    <glyph glyph-name="asciitilde" unicode="~" horiz-adv-x="595" 
d="M81 213q0 74 31.5 109t83.5 35q31 0 55.5 -11.5t40 -27.5t30 -32t35 -27.5t45.5 -11.5q31 0 49 21t22 41.5t4 43.5h40q0 -74 -31.5 -109t-83.5 -35q-31 0 -55.5 11.5t-40 27.5t-30 32t-35 27.5t-45.5 11.5q-31 0 -49 -21t-22 -41.5t-4 -43.5h-40z" />
    <glyph glyph-name="uni00A0" unicode="&#xa0;" horiz-adv-x="281" 
 />
    <glyph glyph-name="exclamdown" unicode="&#xa1;" horiz-adv-x="209" 
d="M74 439v61h59v-61h-59zM83 -200v525h43v-525h-43z" />
    <glyph glyph-name="cent" unicode="&#xa2;" horiz-adv-x="542" 
d="M260 -13v84q-102 9 -155.5 86.5t-53.5 192.5t53.5 192.5t155.5 86.5v83h43v-83q122 -11 185 -142l-41 -16q-55 116 -163 116q-95 0 -141.5 -66t-46.5 -171t46.5 -171t141.5 -66q108 0 163 116l41 -16q-64 -132 -185 -142v-84h-43z" />
    <glyph glyph-name="sterling" unicode="&#xa3;" horiz-adv-x="602" 
d="M47 0v40h90v293h-65v40h65v162q0 75 56 126t141 51q40 0 76.5 -13t53.5 -25l17 -13l-29 -33q-6 5 -16 12t-41 18.5t-62 11.5q-72 0 -112.5 -40t-40.5 -99v-158h198v-40h-198v-293h328v120h42v-160h-503z" />
    <glyph glyph-name="yen" unicode="&#xa5;" horiz-adv-x="615" 
d="M124 222v40h163v42l-29 48h-134v40h110l-185 308h49l166 -276l43 -79h2q22 45 43 79l166 276h49l-185 -308h108v-40h-132l-28 -48v-42h160v-40h-160v-222h-43v222h-163z" />
    <glyph glyph-name="section" unicode="&#xa7;" horiz-adv-x="375" 
d="M137 62l-67 474q-2 16 -2 25q0 65 44.5 108t113.5 43q24 0 47 -8t35 -16l11 -9l-26 -32q-29 24 -68 24q-48 0 -80.5 -31t-32.5 -82q0 -7 2 -21l65 -475h-42zM58 -29l26 32q29 -24 68 -24q48 0 80 31t32 82q0 14 -1 21l-65 475h42l67 -474q2 -18 2 -25q0 -65 -45 -108
t-113 -43q-24 0 -47 8t-34 16z" />
    <glyph glyph-name="dieresis" unicode="&#xa8;" horiz-adv-x="509" 
d="M311 788v73h54v-73h-54zM143 788v73h54v-73h-54z" />
    <glyph glyph-name="copyright" unicode="&#xa9;" horiz-adv-x="813" 
d="M53 350q0 151 103 256.5t249 105.5q149 0 252.5 -105.5t103.5 -256.5q0 -152 -103.5 -257t-252.5 -105q-147 0 -249.5 105t-102.5 257zM98 350q0 -136 88.5 -228t218.5 -92q132 0 221.5 92t89.5 228q0 135 -89.5 227.5t-221.5 92.5q-130 0 -218.5 -92.5t-88.5 -227.5z
M202 349q0 85 57 148t158 63q29 0 56.5 -9t46 -22t33 -26t21.5 -22l6 -9l-33 -29q-5 8 -15.5 20.5t-44 33t-69.5 20.5q-81 0 -126 -49.5t-45 -117.5t45 -117.5t126 -49.5q37 0 69 18.5t46 36.5l14 19l33 -29q-2 -4 -7 -9.5t-21 -21t-33.5 -27t-45 -21t-56.5 -9.5
q-101 0 -158 62t-57 147z" />
    <glyph glyph-name="ordfeminine" unicode="&#xaa;" horiz-adv-x="431" 
d="M202 382q-45 0 -78 24t-33 69q0 111 194 111h14v4q0 83 -76 83q-21 0 -42.5 -7.5t-32.5 -14.5l-11 -7l-22 30q42 36 109 36q114 0 114 -120v-202h-39v51h-2q-3 -6 -10 -15.5t-31.5 -25.5t-53.5 -16zM203 419q43 0 69.5 37.5t26.5 83.5v10h-13q-154 0 -154 -71
q0 -25 18.5 -42.5t52.5 -17.5zM88 263v37h253v-37h-253z" />
    <glyph glyph-name="guillemotleft" unicode="&#xab;" horiz-adv-x="496" 
d="M214 282l164 206h53l-164 -206l164 -205h-53zM218 77l-164 205l164 206h53l-164 -206l164 -205h-53z" />
    <glyph glyph-name="logicalnot" unicode="&#xac;" horiz-adv-x="601" 
d="M72 343v40h456v-219h-42v179h-414z" />
    <glyph glyph-name="uni00AD" unicode="&#xad;" horiz-adv-x="528" 
d="M126 263v40h276v-40h-276z" />
    <glyph glyph-name="registered" unicode="&#xae;" horiz-adv-x="813" 
d="M53 350q0 151 103 256.5t249 105.5q149 0 252.5 -105.5t103.5 -256.5q0 -152 -103.5 -257t-252.5 -105q-147 0 -249.5 105t-102.5 257zM98 350q0 -136 88.5 -228t218.5 -92q132 0 221.5 92t89.5 228q0 135 -89.5 227.5t-221.5 92.5q-130 0 -218.5 -92.5t-88.5 -227.5z
M289 150v400h133q51 0 83.5 -32t32.5 -84q0 -42 -22 -70.5t-55 -36.5v-2q4 -5 13 -22l79 -153h-49l-85 167h-86v-167h-44zM333 355h84q35 0 55.5 21t20.5 58q0 36 -20.5 56t-55.5 20h-84v-155z" />
    <glyph glyph-name="macron" unicode="&#xaf;" horiz-adv-x="509" 
d="M135 786v40h239v-40h-239z" />
    <glyph glyph-name="degree" unicode="&#xb0;" horiz-adv-x="370" 
d="M185 449q-54 0 -92 38t-38 92t38 92.5t92 38.5t92.5 -38.5t38.5 -92.5t-38.5 -92t-92.5 -38zM185 489q37 0 62.5 26t25.5 64t-25.5 64.5t-62.5 26.5t-62 -26.5t-25 -64.5t25 -64t62 -26z" />
    <glyph glyph-name="plusminus" unicode="&#xb1;" horiz-adv-x="600" 
d="M42 263v40h237v263h43v-263h236v-40h-236v-263h-43v263h-237zM62 -113h476v-40h-476v40z" />
    <glyph glyph-name="twosuperior" unicode="&#xb2;" horiz-adv-x="353" 
d="M38 455q0 42 23 76t55 57t64.5 44.5t55.5 50t23 61.5q0 36 -25.5 61.5t-65.5 25.5q-25 0 -48.5 -12.5t-34.5 -24.5l-11 -13l-24 26q5 7 14 17t39.5 26.5t64.5 16.5q62 0 96 -35.5t34 -87.5q0 -41 -22.5 -73.5t-54.5 -54.5t-64.5 -42.5t-55.5 -49.5t-24 -65h192v57h38v-93
h-267q-2 19 -2 32z" />
    <glyph glyph-name="threesuperior" unicode="&#xb3;" horiz-adv-x="360" 
d="M54 764v93h257v-26l-129 -151q50 -4 91 -35.5t41 -94.5q0 -57 -42.5 -97t-100.5 -40q-42 0 -76.5 16.5t-48.5 32.5l-13 16l28 26q4 -6 12 -15t36.5 -24.5t62.5 -15.5q39 0 71 29.5t32 71.5q0 43 -32.5 69.5t-74.5 26.5h-32l-11 24l113 133l20 19v2q-11 -3 -27 -3h-139
v-57h-38z" />
    <glyph glyph-name="acute" unicode="&#xb4;" horiz-adv-x="509" 
d="M178 750l94 111h64l-104 -111h-54z" />
    <glyph glyph-name="mu" unicode="&#xb5;" horiz-adv-x="572" 
d="M80 -200v700h42v-302q0 -30 2 -51.5t9 -45t20 -38.5t36.5 -24.5t55.5 -9.5q90 0 147.5 67.5t57.5 159.5v244h42v-500h-42v83l2 41h-2q-2 -6 -6.5 -15t-21.5 -32.5t-38.5 -41.5t-58.5 -32.5t-80 -14.5q-44 0 -75.5 13t-41.5 25l-10 13h-2q6 -51 6 -72v-167h-42z" />
    <glyph glyph-name="mu" unicode="&#x3bc;" horiz-adv-x="572" 
d="M80 -200v700h42v-302q0 -30 2 -51.5t9 -45t20 -38.5t36.5 -24.5t55.5 -9.5q90 0 147.5 67.5t57.5 159.5v244h42v-500h-42v83l2 41h-2q-2 -6 -6.5 -15t-21.5 -32.5t-38.5 -41.5t-58.5 -32.5t-80 -14.5q-44 0 -75.5 13t-41.5 25l-10 13h-2q6 -51 6 -72v-167h-42z" />
    <glyph glyph-name="paragraph" unicode="&#xb6;" horiz-adv-x="550" 
d="M285 -50v291q-98 0 -169 67t-71 163t70.5 162.5t168.5 66.5h210v-40h-167v-710h-42zM389 -50v647h42v-647h-42z" />
    <glyph glyph-name="periodcentered" unicode="&#xb7;" horiz-adv-x="279" 
d="M109 255v63h61v-63h-61z" />
    <glyph glyph-name="cedilla" unicode="&#xb8;" horiz-adv-x="509" 
d="M208 -92l24 114l35 -5v-8l-13 -69q29 -3 48.5 -22t19.5 -46q0 -39 -26 -57.5t-65 -18.5l-44 4v38q18 -5 41 -5q52 0 52 37q0 38 -60 38h-12z" />
    <glyph glyph-name="onesuperior" unicode="&#xb9;" horiz-adv-x="307" 
d="M39 423v36h106v315l2 31h-1q-5 -8 -17 -19l-61 -60l-26 27l103 104h38v-398h103v-36h-247z" />
    <glyph glyph-name="ordmasculine" unicode="&#xba;" horiz-adv-x="480" 
d="M239 383q-68 0 -115.5 48t-47.5 118q0 68 47.5 115t115.5 47t115.5 -47t47.5 -115q0 -70 -47.5 -118t-115.5 -48zM239 420q52 0 88 37t36 92q0 54 -36 89.5t-88 35.5t-88 -35.5t-36 -89.5q0 -55 36 -92t88 -37zM94 263v37h294v-37h-294z" />
    <glyph glyph-name="guillemotright" unicode="&#xbb;" horiz-adv-x="496" 
d="M225 77l164 205l-164 206h53l164 -206l-164 -205h-53zM65 77l164 205l-164 206h53l164 -206l-164 -205h-53z" />
    <glyph glyph-name="onequarter" unicode="&#xbc;" horiz-adv-x="917" 
d="M769 0v121h-215v26l222 287h31v-277h68v-36h-68v-121h-38zM607 157h162v175l3 41h-2q-9 -18 -22 -34l-141 -180v-2zM61 266v36h106v315l2 31h-1q-5 -8 -17 -19l-61 -60l-26 27l103 104h38v-398h103v-36h-247zM259 0l336 700h43l-335 -700h-44z" />
    <glyph glyph-name="onehalf" unicode="&#xbd;" horiz-adv-x="895" 
d="M251 0l336 700h43l-335 -700h-44zM53 266v36h106v315l2 31h-1q-5 -8 -17 -19l-61 -60l-26 27l103 104h38v-398h103v-36h-247zM574 32q0 42 23 76t55 57t64.5 44.5t55.5 50t23 61.5q0 36 -25.5 61.5t-65.5 25.5q-25 0 -48.5 -12.5t-34.5 -25.5l-11 -12l-24 26q5 7 14 17
t39.5 26.5t64.5 16.5q62 0 96 -35.5t34 -87.5q0 -41 -22.5 -73.5t-54.5 -54.5t-64.5 -42.5t-55.5 -49.5t-24 -65h192v57h38v-93h-267q-2 19 -2 32z" />
    <glyph glyph-name="threequarters" unicode="&#xbe;" horiz-adv-x="938" 
d="M75 607v93h257v-26l-129 -151q50 -4 91 -35.5t41 -94.5q0 -57 -42.5 -97t-100.5 -40q-27 0 -51 6.5t-39 16t-26.5 19.5t-16.5 16l-5 7l28 26q4 -6 12 -15t36.5 -24.5t62.5 -15.5q39 0 71 29.5t32 71.5q0 43 -32.5 69.5t-74.5 26.5h-32l-11 24l113 133l20 19v2
q-11 -3 -27 -3h-139v-57h-38zM277 0l336 700h43l-335 -700h-44zM787 0v121h-215v26l222 287h31v-277h68v-36h-68v-121h-38zM625 157h162v175l3 41h-2q-9 -18 -22 -34l-141 -180v-2z" />
    <glyph glyph-name="questiondown" unicode="&#xbf;" horiz-adv-x="439" 
d="M229 439v61h59v-61h-59zM56 -38q0 46 18.5 82.5t45 61.5t53.5 49t45.5 56.5t18.5 71.5v42h43v-42q0 -45 -18.5 -82.5t-45 -63.5t-52.5 -50.5t-44.5 -56.5t-18.5 -69q0 -55 41 -92t105 -37q32 0 64 10.5t47 21.5l16 10l23 -34q-7 -6 -19 -14t-51 -22t-79 -14
q-85 0 -138.5 49t-53.5 123z" />
    <glyph glyph-name="Agrave" unicode="&#xc0;" horiz-adv-x="710" 
d="M10 0v40h75l247 660h46l247 -660h75v-40h-206v40h85l-76 202h-297l-75 -202h85v-40h-206zM221 282h267l-122 327l-10 38h-2q-3 -20 -10 -38zM338 750l-104 111h64l94 -111h-54z" />
    <glyph glyph-name="Aacute" unicode="&#xc1;" horiz-adv-x="710" 
d="M10 0v40h75l247 660h46l247 -660h75v-40h-206v40h85l-76 202h-297l-75 -202h85v-40h-206zM221 282h267l-122 327l-10 38h-2q-3 -20 -10 -38zM317 750l94 111h64l-104 -111h-54z" />
    <glyph glyph-name="Acircumflex" unicode="&#xc2;" horiz-adv-x="710" 
d="M10 0v40h75l247 660h46l247 -660h75v-40h-206v40h85l-76 202h-297l-75 -202h85v-40h-206zM221 282h267l-122 327l-10 38h-2q-3 -20 -10 -38zM245 750l80 111h60l80 -111h-53l-56 80h-2l-56 -80h-53z" />
    <glyph glyph-name="Atilde" unicode="&#xc3;" horiz-adv-x="710" 
d="M10 0v40h75l247 660h46l247 -660h75v-40h-206v40h85l-76 202h-297l-75 -202h85v-40h-206zM221 282h267l-122 327l-10 38h-2q-3 -20 -10 -38zM207 753q0 108 84 108q25 0 45 -11.5t30.5 -24.5t24.5 -24.5t28 -11.5q41 0 41 69h44q0 -108 -84 -108q-25 0 -45 11t-30.5 25
t-24.5 25t-28 11q-41 0 -41 -69h-44z" />
    <glyph glyph-name="Adieresis" unicode="&#xc4;" horiz-adv-x="710" 
d="M10 0v40h75l247 660h46l247 -660h75v-40h-206v40h85l-76 202h-297l-75 -202h85v-40h-206zM221 282h267l-122 327l-10 38h-2q-3 -20 -10 -38zM412 788v73h54v-73h-54zM244 788v73h54v-73h-54z" />
    <glyph glyph-name="Aring" unicode="&#xc5;" horiz-adv-x="710" 
d="M10 0v40h75l247 660h46l247 -660h75v-40h-206v40h85l-76 202h-297l-75 -202h85v-40h-206zM221 282h267l-122 327l-10 38h-2q-3 -20 -10 -38zM355 733q-31 0 -52.5 21t-21.5 52q0 32 21.5 53.5t52.5 21.5q32 0 54 -21.5t22 -53.5q0 -31 -22 -52t-54 -21zM355 770
q17 0 27 10t10 26q0 18 -10 28.5t-27 10.5q-16 0 -25.5 -10.5t-9.5 -28.5q0 -16 9.5 -26t25.5 -10z" />
    <glyph glyph-name="AE" unicode="&#xc6;" horiz-adv-x="903" 
d="M10 0v40h69l254 620h-82v40h573v-130h-42v90h-303v-287h279v-40h-279v-293h323v91h42v-131h-498v40h90v293h-190l-121 -293h81v-40h-196zM262 373h174v287h-56z" />
    <glyph glyph-name="Ccedilla" unicode="&#xc7;" horiz-adv-x="740" 
d="M367 -92l17 81q-142 11 -233.5 115.5t-91.5 250.5q0 152 101 254.5t251 102.5q50 0 104.5 -11.5t102.5 -45t48 -82.5v-66h-44v56q0 36 -37.5 61.5t-83 36t-89.5 10.5q-131 0 -219.5 -90.5t-88.5 -225.5q0 -137 89 -231.5t222 -94.5q27 0 61 5.5t71 17t61.5 34t24.5 50.5
v55h44v-65q0 -46 -45 -78.5t-100 -45.5t-110 -14l-9 -48q29 -3 48.5 -22t19.5 -46q0 -39 -26 -57.5t-65 -18.5l-44 4v38q18 -5 41 -5q52 0 52 37q0 38 -60 38h-12z" />
    <glyph glyph-name="Egrave" unicode="&#xc8;" horiz-adv-x="616" 
d="M53 0v40h95v620h-95v40h483v-130h-42v90h-303v-287h279v-40h-279v-293h323v96h42v-136h-503zM295 750l-104 111h64l94 -111h-54z" />
    <glyph glyph-name="Eacute" unicode="&#xc9;" horiz-adv-x="616" 
d="M53 0v40h95v620h-95v40h483v-130h-42v90h-303v-287h279v-40h-279v-293h323v96h42v-136h-503zM274 750l94 111h64l-104 -111h-54z" />
    <glyph glyph-name="Ecircumflex" unicode="&#xca;" horiz-adv-x="616" 
d="M53 0v40h95v620h-95v40h483v-130h-42v90h-303v-287h279v-40h-279v-293h323v96h42v-136h-503zM202 750l80 111h60l80 -111h-53l-56 80h-2l-56 -80h-53z" />
    <glyph glyph-name="Edieresis" unicode="&#xcb;" horiz-adv-x="616" 
d="M53 0v40h95v620h-95v40h483v-130h-42v90h-303v-287h279v-40h-279v-293h323v96h42v-136h-503zM369 788v73h54v-73h-54zM201 788v73h54v-73h-54z" />
    <glyph glyph-name="Igrave" unicode="&#xcc;" horiz-adv-x="339" 
d="M53 0v40h95v620h-95v40h233v-40h-95v-620h95v-40h-233zM152 750l-104 111h64l94 -111h-54z" />
    <glyph glyph-name="Iacute" unicode="&#xcd;" horiz-adv-x="339" 
d="M53 0v40h95v620h-95v40h233v-40h-95v-620h95v-40h-233zM131 750l94 111h64l-104 -111h-54z" />
    <glyph glyph-name="Icircumflex" unicode="&#xce;" horiz-adv-x="339" 
d="M53 0v40h95v620h-95v40h233v-40h-95v-620h95v-40h-233zM59 750l80 111h60l80 -111h-53l-56 80h-2l-56 -80h-53z" />
    <glyph glyph-name="Idieresis" unicode="&#xcf;" horiz-adv-x="339" 
d="M53 0v40h95v620h-95v40h233v-40h-95v-620h95v-40h-233zM226 788v73h54v-73h-54zM58 788v73h54v-73h-54z" />
    <glyph glyph-name="Eth" unicode="&#xd0;" horiz-adv-x="780" 
d="M53 0v40h95v293h-80v40h80v287h-95v40h315q158 0 253.5 -93t95.5 -257q0 -165 -95 -257.5t-254 -92.5h-315zM191 40h170q142 0 226.5 81t84.5 229q0 147 -84.5 228.5t-226.5 81.5h-170v-287h183v-40h-183v-293z" />
    <glyph glyph-name="Ntilde" unicode="&#xd1;" horiz-adv-x="823" 
d="M53 0v40h95v620h-95v40h134l436 -598l19 -36h2l-3 41v553h-95v40h233v-40h-95v-660h-40l-435 599l-19 36h-2l3 -41v-554h95v-40h-233zM268 753q0 108 84 108q25 0 45 -11.5t30.5 -24.5t24.5 -24.5t28 -11.5q41 0 41 69h44q0 -108 -84 -108q-25 0 -45 11t-30.5 25
t-24.5 25t-28 11q-41 0 -41 -69h-44z" />
    <glyph glyph-name="Ograve" unicode="&#xd2;" horiz-adv-x="826" 
d="M59 355q0 150 103.5 253.5t250.5 103.5t250.5 -103.5t103.5 -253.5q0 -154 -103.5 -260.5t-250.5 -106.5t-250.5 106.5t-103.5 260.5zM104 355q0 -137 90 -231.5t219 -94.5t219 94.5t90 231.5q0 134 -90 225t-219 91t-219 -91t-90 -225zM396 750l-104 111h64l94 -111h-54
z" />
    <glyph glyph-name="Oacute" unicode="&#xd3;" horiz-adv-x="826" 
d="M59 355q0 150 103.5 253.5t250.5 103.5t250.5 -103.5t103.5 -253.5q0 -154 -103.5 -260.5t-250.5 -106.5t-250.5 106.5t-103.5 260.5zM104 355q0 -137 90 -231.5t219 -94.5t219 94.5t90 231.5q0 134 -90 225t-219 91t-219 -91t-90 -225zM375 750l94 111h64l-104 -111h-54
z" />
    <glyph glyph-name="Ocircumflex" unicode="&#xd4;" horiz-adv-x="826" 
d="M59 355q0 150 103.5 253.5t250.5 103.5t250.5 -103.5t103.5 -253.5q0 -154 -103.5 -260.5t-250.5 -106.5t-250.5 106.5t-103.5 260.5zM104 355q0 -137 90 -231.5t219 -94.5t219 94.5t90 231.5q0 134 -90 225t-219 91t-219 -91t-90 -225zM303 750l80 111h60l80 -111h-53
l-56 80h-2l-56 -80h-53z" />
    <glyph glyph-name="Otilde" unicode="&#xd5;" horiz-adv-x="826" 
d="M59 355q0 150 103.5 253.5t250.5 103.5t250.5 -103.5t103.5 -253.5q0 -154 -103.5 -260.5t-250.5 -106.5t-250.5 106.5t-103.5 260.5zM104 355q0 -137 90 -231.5t219 -94.5t219 94.5t90 231.5q0 134 -90 225t-219 91t-219 -91t-90 -225zM265 753q0 108 84 108
q25 0 45 -11.5t30.5 -24.5t24.5 -24.5t28 -11.5q41 0 41 69h44q0 -108 -84 -108q-25 0 -45 11t-30.5 25t-24.5 25t-28 11q-41 0 -41 -69h-44z" />
    <glyph glyph-name="Odieresis" unicode="&#xd6;" horiz-adv-x="826" 
d="M59 355q0 150 103.5 253.5t250.5 103.5t250.5 -103.5t103.5 -253.5q0 -154 -103.5 -260.5t-250.5 -106.5t-250.5 106.5t-103.5 260.5zM104 355q0 -137 90 -231.5t219 -94.5t219 94.5t90 231.5q0 134 -90 225t-219 91t-219 -91t-90 -225zM470 788v73h54v-73h-54zM302 788
v73h54v-73h-54z" />
    <glyph glyph-name="multiply" unicode="&#xd7;" horiz-adv-x="600" 
d="M49 28l224 255l-224 255l28 28l223 -253l223 253l28 -28l-225 -255l225 -255l-28 -28l-223 253l-223 -253z" />
    <glyph glyph-name="Oslash" unicode="&#xd8;" horiz-adv-x="826" 
d="M137 1l50 70q-60 51 -94 125t-34 159q0 150 103.5 253.5t250.5 103.5q103 0 192 -57l49 69l34 -25l-49 -69q60 -50 94 -121.5t34 -153.5q0 -154 -103.5 -260.5t-250.5 -106.5q-104 0 -192 58l-49 -69zM212 106l368 515q-75 50 -167 50q-129 0 -219 -91t-90 -225
q0 -152 108 -249zM245 80q74 -51 168 -51q129 0 219 94.5t90 231.5q0 72 -28.5 134.5t-79.5 106.5z" />
    <glyph glyph-name="Ugrave" unicode="&#xd9;" horiz-adv-x="785" 
d="M131 255v405h-95v40h233v-40h-95v-403q0 -88 34 -141q56 -87 184 -87q63 0 112 24t74 67q33 57 33 139v401h-95v40h233v-40h-95v-405q0 -97 -41 -161q-69 -106 -220 -106q-74 0 -132.5 28t-91.5 80q-38 61 -38 159zM375 750l-104 111h64l94 -111h-54z" />
    <glyph glyph-name="Uacute" unicode="&#xda;" horiz-adv-x="785" 
d="M131 255v405h-95v40h233v-40h-95v-403q0 -88 34 -141q56 -87 184 -87q63 0 112 24t74 67q33 57 33 139v401h-95v40h233v-40h-95v-405q0 -97 -41 -161q-69 -106 -220 -106q-74 0 -132.5 28t-91.5 80q-38 61 -38 159zM354 750l94 111h64l-104 -111h-54z" />
    <glyph glyph-name="Ucircumflex" unicode="&#xdb;" horiz-adv-x="785" 
d="M131 255v405h-95v40h233v-40h-95v-403q0 -88 34 -141q56 -87 184 -87q63 0 112 24t74 67q33 57 33 139v401h-95v40h233v-40h-95v-405q0 -97 -41 -161q-69 -106 -220 -106q-74 0 -132.5 28t-91.5 80q-38 61 -38 159zM282 750l80 111h60l80 -111h-53l-56 80h-2l-56 -80h-53
z" />
    <glyph glyph-name="Udieresis" unicode="&#xdc;" horiz-adv-x="785" 
d="M131 255v405h-95v40h233v-40h-95v-403q0 -88 34 -141q56 -87 184 -87q63 0 112 24t74 67q33 57 33 139v401h-95v40h233v-40h-95v-405q0 -97 -41 -161q-69 -106 -220 -106q-74 0 -132.5 28t-91.5 80q-38 61 -38 159zM449 788v73h54v-73h-54zM281 788v73h54v-73h-54z" />
    <glyph glyph-name="Yacute" unicode="&#xdd;" horiz-adv-x="635" 
d="M201 0v40h95v264l-215 356h-71v40h204v-40h-83l172 -287l13 -25h2q7 14 14 25l173 287h-83v40h203v-40h-71l-215 -356v-264h95v-40h-233zM280 750l94 111h64l-104 -111h-54z" />
    <glyph glyph-name="Thorn" unicode="&#xde;" horiz-adv-x="632" 
d="M53 0v40h95v620h-95v40h233v-40h-95v-90h187q93 0 153 -55.5t60 -148.5q0 -94 -60 -150t-155 -56h-185v-120h95v-40h-233zM191 200h185q78 0 124 44t46 122t-46 121t-124 43h-185v-330z" />
    <glyph glyph-name="germandbls" unicode="&#xdf;" horiz-adv-x="589" 
d="M28 0v39h90v493q0 83 56.5 131.5t131.5 48.5q74 0 117.5 -41.5t43.5 -96.5q0 -37 -19 -69t-41.5 -50.5t-41.5 -42t-19 -44.5q0 -24 33 -50.5t72.5 -49t72.5 -60t33 -80.5q0 -65 -45 -100t-109 -35q-43 0 -81.5 8.5t-55.5 17.5l-17 9v46q63 -40 155 -40q46 0 77.5 24
t31.5 70q0 29 -21.5 55t-52.5 45.5t-62.5 39t-53 44.5t-21.5 54q0 30 19 58t41.5 46.5t41.5 46.5t19 57q0 38 -31.5 67.5t-87.5 29.5q-57 0 -100.5 -38.5t-43.5 -103.5v-529h-132z" />
    <glyph glyph-name="agrave" unicode="&#xe0;" horiz-adv-x="534" 
d="M42 136q0 169 310 169h33v22q0 145 -133 145q-39 0 -76 -12t-54 -24l-17 -13l-24 34q7 6 20.5 15t58.5 24.5t93 15.5q174 0 174 -184v-267q0 -22 22 -22h60v-39h-66q-31 0 -44.5 13t-13.5 42v11l4 45h-2q-2 -5 -5.5 -13.5t-18.5 -29.5t-33 -37t-50.5 -29.5t-69.5 -13.5
q-67 0 -117.5 38t-50.5 110zM86 141q0 -47 33 -80.5t91 -33.5q81 0 128 65t47 147v27h-32q-267 0 -267 -125zM236 589l-104 111h64l94 -111h-54z" />
    <glyph glyph-name="aacute" unicode="&#xe1;" horiz-adv-x="534" 
d="M42 136q0 169 310 169h33v22q0 145 -133 145q-39 0 -76 -12t-54 -24l-17 -13l-24 34q7 6 20.5 15t58.5 24.5t93 15.5q174 0 174 -184v-267q0 -22 22 -22h60v-39h-66q-31 0 -44.5 13t-13.5 42v11l4 45h-2q-2 -5 -5.5 -13.5t-18.5 -29.5t-33 -37t-50.5 -29.5t-69.5 -13.5
q-67 0 -117.5 38t-50.5 110zM86 141q0 -47 33 -80.5t91 -33.5q81 0 128 65t47 147v27h-32q-267 0 -267 -125zM215 589l94 111h64l-104 -111h-54z" />
    <glyph glyph-name="acircumflex" unicode="&#xe2;" horiz-adv-x="534" 
d="M42 136q0 169 310 169h33v22q0 145 -133 145q-39 0 -76 -12t-54 -24l-17 -13l-24 34q7 6 20.5 15t58.5 24.5t93 15.5q174 0 174 -184v-267q0 -22 22 -22h60v-39h-66q-31 0 -44.5 13t-13.5 42v11l4 45h-2q-2 -5 -5.5 -13.5t-18.5 -29.5t-33 -37t-50.5 -29.5t-69.5 -13.5
q-67 0 -117.5 38t-50.5 110zM86 141q0 -47 33 -80.5t91 -33.5q81 0 128 65t47 147v27h-32q-267 0 -267 -125zM143 589l80 111h60l80 -111h-53l-56 80h-2l-56 -80h-53z" />
    <glyph glyph-name="atilde" unicode="&#xe3;" horiz-adv-x="534" 
d="M42 136q0 169 310 169h33v22q0 145 -133 145q-39 0 -76 -12t-54 -24l-17 -13l-24 34q7 6 20.5 15t58.5 24.5t93 15.5q174 0 174 -184v-267q0 -22 22 -22h60v-39h-66q-31 0 -44.5 13t-13.5 42v11l4 45h-2q-2 -5 -5.5 -13.5t-18.5 -29.5t-33 -37t-50.5 -29.5t-69.5 -13.5
q-67 0 -117.5 38t-50.5 110zM86 141q0 -47 33 -80.5t91 -33.5q81 0 128 65t47 147v27h-32q-267 0 -267 -125zM105 592q0 108 84 108q25 0 45 -11t30.5 -25t24.5 -25t28 -11q41 0 41 69h44q0 -108 -84 -108q-25 0 -45 11.5t-30.5 24.5t-24.5 24.5t-28 11.5q-41 0 -41 -69h-44
z" />
    <glyph glyph-name="adieresis" unicode="&#xe4;" horiz-adv-x="534" 
d="M42 136q0 169 310 169h33v22q0 145 -133 145q-39 0 -76 -12t-54 -24l-17 -13l-24 34q7 6 20.5 15t58.5 24.5t93 15.5q174 0 174 -184v-267q0 -22 22 -22h60v-39h-66q-31 0 -44.5 13t-13.5 42v11l4 45h-2q-2 -5 -5.5 -13.5t-18.5 -29.5t-33 -37t-50.5 -29.5t-69.5 -13.5
q-67 0 -117.5 38t-50.5 110zM86 141q0 -47 33 -80.5t91 -33.5q81 0 128 65t47 147v27h-32q-267 0 -267 -125zM310 627v73h54v-73h-54zM142 627v73h54v-73h-54z" />
    <glyph glyph-name="aring" unicode="&#xe5;" horiz-adv-x="534" 
d="M42 136q0 169 310 169h33v22q0 145 -133 145q-39 0 -76 -12t-54 -24l-17 -13l-24 34q7 6 20.5 15t58.5 24.5t93 15.5q174 0 174 -184v-267q0 -22 22 -22h60v-39h-66q-31 0 -44.5 13t-13.5 42v11l4 45h-2q-2 -5 -5.5 -13.5t-18.5 -29.5t-33 -37t-50.5 -29.5t-69.5 -13.5
q-67 0 -117.5 38t-50.5 110zM86 141q0 -47 33 -80.5t91 -33.5q81 0 128 65t47 147v27h-32q-267 0 -267 -125zM253 572q-31 0 -52.5 21t-21.5 52q0 32 21.5 53.5t52.5 21.5q32 0 54 -21.5t22 -53.5q0 -31 -22 -52t-54 -21zM253 609q17 0 27 10t10 26q0 18 -10 28.5t-27 10.5
q-16 0 -25.5 -10.5t-9.5 -28.5q0 -16 9.5 -26t25.5 -10z" />
    <glyph glyph-name="ae" unicode="&#xe6;" horiz-adv-x="871" 
d="M44 133q0 34 11 61t27.5 44t43.5 29.5t50.5 18.5t58.5 9.5t56.5 4t54.5 0.5h40v22q0 150 -141 150q-39 0 -74.5 -12t-52.5 -24l-16 -13l-24 34q7 6 20 15t57 24.5t92 15.5q144 0 172 -117h2q30 58 81.5 87.5t116.5 29.5q96 0 149 -64t53 -159l-2 -28h-391
q0 -110 57 -171.5t147 -61.5q43 0 81.5 16t56.5 32l17 16l23 -35q-8 -8 -22.5 -19.5t-61 -30.5t-94.5 -19q-78 0 -138 40.5t-87 112.5h-2q-3 -15 -13.5 -36t-31 -49.5t-58.5 -48t-86 -19.5q-73 0 -122.5 38t-49.5 107zM432 300h345q-4 86 -50 129t-111 43q-72 0 -122 -44
t-62 -128zM88 136q0 -45 34 -77t94 -32q77 0 123.5 65.5t46.5 146.5v22h-69q-34 0 -59.5 -1.5t-60 -8.5t-56 -19.5t-37.5 -37t-16 -58.5z" />
    <glyph glyph-name="ccedilla" unicode="&#xe7;" horiz-adv-x="544" 
d="M263 -92l17 82q-99 9 -164 80t-65 179q0 116 75.5 189.5t182.5 73.5q23 0 50.5 -5t57 -16t49 -33t19.5 -50v-48h-42v39q0 33 -45 52.5t-89 19.5q-90 0 -152 -61.5t-62 -160.5q0 -98 62 -159t152 -61q49 0 90.5 18t58.5 36l18 18l22 -35q-3 -3 -7.5 -8t-21.5 -18
t-36.5 -23t-50.5 -19t-64 -10l-9 -48q29 -3 48.5 -22t19.5 -46q0 -39 -26 -57.5t-65 -18.5l-44 4v38q18 -5 41 -5q52 0 52 37q0 38 -60 38h-12z" />
    <glyph glyph-name="egrave" unicode="&#xe8;" horiz-adv-x="549" 
d="M52 249q0 122 71 192.5t172 70.5q97 0 150.5 -65.5t53.5 -162.5l-2 -27h-401q0 -105 61.5 -166.5t152.5 -61.5q43 0 81.5 15.5t56.5 31.5l17 16l23 -35q-8 -8 -22.5 -19.5t-61 -30.5t-94.5 -19q-109 0 -183.5 72.5t-74.5 188.5zM99 296h356q-4 87 -49 132t-112 45
q-73 0 -127.5 -46.5t-67.5 -130.5zM280 589l-104 111h64l94 -111h-54z" />
    <glyph glyph-name="eacute" unicode="&#xe9;" horiz-adv-x="549" 
d="M52 249q0 122 71 192.5t172 70.5q97 0 150.5 -65.5t53.5 -162.5l-2 -27h-401q0 -105 61.5 -166.5t152.5 -61.5q43 0 81.5 15.5t56.5 31.5l17 16l23 -35q-8 -8 -22.5 -19.5t-61 -30.5t-94.5 -19q-109 0 -183.5 72.5t-74.5 188.5zM99 296h356q-4 87 -49 132t-112 45
q-73 0 -127.5 -46.5t-67.5 -130.5zM259 589l94 111h64l-104 -111h-54z" />
    <glyph glyph-name="ecircumflex" unicode="&#xea;" horiz-adv-x="549" 
d="M52 249q0 122 71 192.5t172 70.5q97 0 150.5 -65.5t53.5 -162.5l-2 -27h-401q0 -105 61.5 -166.5t152.5 -61.5q43 0 81.5 15.5t56.5 31.5l17 16l23 -35q-8 -8 -22.5 -19.5t-61 -30.5t-94.5 -19q-109 0 -183.5 72.5t-74.5 188.5zM99 296h356q-4 87 -49 132t-112 45
q-73 0 -127.5 -46.5t-67.5 -130.5zM187 589l80 111h60l80 -111h-53l-56 80h-2l-56 -80h-53z" />
    <glyph glyph-name="edieresis" unicode="&#xeb;" horiz-adv-x="549" 
d="M52 249q0 122 71 192.5t172 70.5q97 0 150.5 -65.5t53.5 -162.5l-2 -27h-401q0 -105 61.5 -166.5t152.5 -61.5q43 0 81.5 15.5t56.5 31.5l17 16l23 -35q-8 -8 -22.5 -19.5t-61 -30.5t-94.5 -19q-109 0 -183.5 72.5t-74.5 188.5zM99 296h356q-4 87 -49 132t-112 45
q-73 0 -127.5 -46.5t-67.5 -130.5zM354 627v73h54v-73h-54zM186 627v73h54v-73h-54z" />
    <glyph glyph-name="igrave" unicode="&#xec;" horiz-adv-x="281" 
d="M44 0v39h80v422h-80v39h122v-461h80v-39h-202zM128 589l-104 111h64l94 -111h-54z" />
    <glyph glyph-name="iacute" unicode="&#xed;" horiz-adv-x="281" 
d="M44 0v39h80v422h-80v39h122v-461h80v-39h-202zM107 589l94 111h64l-104 -111h-54z" />
    <glyph glyph-name="icircumflex" unicode="&#xee;" horiz-adv-x="281" 
d="M44 0v39h80v422h-80v39h122v-461h80v-39h-202zM35 589l80 111h60l80 -111h-53l-56 80h-2l-56 -80h-53z" />
    <glyph glyph-name="idieresis" unicode="&#xef;" horiz-adv-x="281" 
d="M44 0v39h80v422h-80v39h122v-461h80v-39h-202zM186 627v73h54v-73h-54zM42 627v73h54v-73h-54z" />
    <glyph glyph-name="eth" unicode="&#xf0;" horiz-adv-x="586" 
d="M53 230q0 97 63.5 167.5t177.5 70.5q49 0 89.5 -16.5t56.5 -33.5l16 -16h2q-36 113 -137 183l-172 -80l-17 37l146 68q-66 35 -153 57l12 38q114 -29 188 -74l123 58l17 -37l-101 -47q156 -119 156 -335q0 -52 -14.5 -100.5t-43 -90t-76.5 -66.5t-108 -25
q-103 0 -164 72.5t-61 169.5zM97 230q0 -81 50 -141.5t133 -60.5q65 0 111 37.5t65.5 89t19.5 108.5q0 72 -50.5 118.5t-132.5 46.5q-94 0 -145 -58.5t-51 -139.5z" />
    <glyph glyph-name="ntilde" unicode="&#xf1;" horiz-adv-x="661" 
d="M45 0v39h90v400q0 22 -22 22h-73v39h79q31 0 44.5 -13t13.5 -42v-33l-4 -41h2q17 48 73 94.5t139 46.5q92 0 128.5 -49.5t36.5 -145.5v-278h90v-39h-132v302q0 30 -2 51.5t-9 45t-20 38.5t-36.5 24.5t-55.5 9.5q-88 0 -149 -65.5t-61 -157.5v-209h90v-39h-222zM207 592
q0 108 84 108q25 0 45 -11t30.5 -25t24.5 -25t28 -11q41 0 41 69h44q0 -108 -84 -108q-25 0 -45 11.5t-30.5 24.5t-24.5 24.5t-28 11.5q-41 0 -41 -69h-44z" />
    <glyph glyph-name="ograve" unicode="&#xf2;" horiz-adv-x="618" 
d="M50 253q0 109 75.5 184t183.5 75t183.5 -75t75.5 -184q0 -111 -75.5 -188t-183.5 -77t-183.5 77t-75.5 188zM94 253q0 -95 62.5 -159.5t152.5 -64.5t152.5 64.5t62.5 159.5q0 92 -62.5 155t-152.5 63t-152.5 -63t-62.5 -155zM292 589l-104 111h64l94 -111h-54z" />
    <glyph glyph-name="oacute" unicode="&#xf3;" horiz-adv-x="618" 
d="M50 253q0 109 75.5 184t183.5 75t183.5 -75t75.5 -184q0 -111 -75.5 -188t-183.5 -77t-183.5 77t-75.5 188zM94 253q0 -95 62.5 -159.5t152.5 -64.5t152.5 64.5t62.5 159.5q0 92 -62.5 155t-152.5 63t-152.5 -63t-62.5 -155zM271 589l94 111h64l-104 -111h-54z" />
    <glyph glyph-name="ocircumflex" unicode="&#xf4;" horiz-adv-x="618" 
d="M50 253q0 109 75.5 184t183.5 75t183.5 -75t75.5 -184q0 -111 -75.5 -188t-183.5 -77t-183.5 77t-75.5 188zM94 253q0 -95 62.5 -159.5t152.5 -64.5t152.5 64.5t62.5 159.5q0 92 -62.5 155t-152.5 63t-152.5 -63t-62.5 -155zM199 589l80 111h60l80 -111h-53l-56 80h-2
l-56 -80h-53z" />
    <glyph glyph-name="otilde" unicode="&#xf5;" horiz-adv-x="618" 
d="M50 253q0 109 75.5 184t183.5 75t183.5 -75t75.5 -184q0 -111 -75.5 -188t-183.5 -77t-183.5 77t-75.5 188zM94 253q0 -95 62.5 -159.5t152.5 -64.5t152.5 64.5t62.5 159.5q0 92 -62.5 155t-152.5 63t-152.5 -63t-62.5 -155zM161 592q0 108 84 108q25 0 45 -11t30.5 -25
t24.5 -25t28 -11q41 0 41 69h44q0 -108 -84 -108q-25 0 -45 11.5t-30.5 24.5t-24.5 24.5t-28 11.5q-41 0 -41 -69h-44z" />
    <glyph glyph-name="odieresis" unicode="&#xf6;" horiz-adv-x="618" 
d="M50 253q0 109 75.5 184t183.5 75t183.5 -75t75.5 -184q0 -111 -75.5 -188t-183.5 -77t-183.5 77t-75.5 188zM94 253q0 -95 62.5 -159.5t152.5 -64.5t152.5 64.5t62.5 159.5q0 92 -62.5 155t-152.5 63t-152.5 -63t-62.5 -155zM366 627v73h54v-73h-54zM198 627v73h54v-73
h-54z" />
    <glyph glyph-name="divide" unicode="&#xf7;" horiz-adv-x="600" 
d="M271 431v59h57v-59h-57zM62 263v40h476v-40h-476zM271 76v59h57v-59h-57z" />
    <glyph glyph-name="oslash" unicode="&#xf8;" horiz-adv-x="618" 
d="M110 -4l36 51q-45 37 -70.5 90.5t-25.5 115.5q0 109 75.5 184t183.5 75q76 0 140 -40l38 53l30 -23l-38 -53q89 -79 89 -196q0 -111 -75.5 -188t-183.5 -77q-71 0 -132 37l-37 -52zM170 81l255 357q-54 33 -116 33q-90 0 -152.5 -63t-62.5 -155q0 -103 76 -172zM201 59
q52 -30 108 -30q90 0 152.5 64.5t62.5 159.5q0 96 -70 161z" />
    <glyph glyph-name="ugrave" unicode="&#xf9;" horiz-adv-x="641" 
d="M113 183v278h-95v39h137v-302q0 -30 2 -51.5t9 -45t20 -38.5t36.5 -24.5t55.5 -9.5q90 0 147.5 67.5t57.5 159.5v205h-95v39h137v-440q0 -22 22 -22h60v-38h-66q-31 0 -44.5 13t-13.5 42v28l2 41h-2q-17 -47 -70.5 -91.5t-134.5 -44.5q-89 0 -127 48t-38 147zM292 589
l-104 111h64l94 -111h-54z" />
    <glyph glyph-name="uacute" unicode="&#xfa;" horiz-adv-x="641" 
d="M113 183v278h-95v39h137v-302q0 -30 2 -51.5t9 -45t20 -38.5t36.5 -24.5t55.5 -9.5q90 0 147.5 67.5t57.5 159.5v205h-95v39h137v-440q0 -22 22 -22h60v-38h-66q-31 0 -44.5 13t-13.5 42v28l2 41h-2q-17 -47 -70.5 -91.5t-134.5 -44.5q-89 0 -127 48t-38 147zM271 589
l94 111h64l-104 -111h-54z" />
    <glyph glyph-name="ucircumflex" unicode="&#xfb;" horiz-adv-x="641" 
d="M113 183v278h-95v39h137v-302q0 -30 2 -51.5t9 -45t20 -38.5t36.5 -24.5t55.5 -9.5q90 0 147.5 67.5t57.5 159.5v205h-95v39h137v-440q0 -22 22 -22h60v-38h-66q-31 0 -44.5 13t-13.5 42v28l2 41h-2q-17 -47 -70.5 -91.5t-134.5 -44.5q-89 0 -127 48t-38 147zM199 589
l80 111h60l80 -111h-53l-56 80h-2l-56 -80h-53z" />
    <glyph glyph-name="udieresis" unicode="&#xfc;" horiz-adv-x="641" 
d="M113 183v278h-95v39h137v-302q0 -30 2 -51.5t9 -45t20 -38.5t36.5 -24.5t55.5 -9.5q90 0 147.5 67.5t57.5 159.5v205h-95v39h137v-440q0 -22 22 -22h60v-38h-66q-31 0 -44.5 13t-13.5 42v28l2 41h-2q-17 -47 -70.5 -91.5t-134.5 -44.5q-89 0 -127 48t-38 147zM366 627v73
h54v-73h-54zM198 627v73h54v-73h-54z" />
    <glyph glyph-name="yacute" unicode="&#xfd;" horiz-adv-x="561" 
d="M63 -146q28 -24 62 -24q61 0 99 90l34 82l-182 459h-68v39h193v-39h-79l149 -381l8 -28h2q3 13 9 28l149 381h-79v39h193v-39h-69l-226 -566q-19 -47 -53.5 -76t-79.5 -29q-21 0 -41.5 7t-29.5 13l-10 7zM249 589l94 111h64l-104 -111h-54z" />
    <glyph glyph-name="thorn" unicode="&#xfe;" horiz-adv-x="585" 
d="M5 661v39h132v-255l-1 -40h2q2 4 5.5 11.5t17.5 26t32 32.5t51 25.5t72 11.5q99 0 157.5 -72t58.5 -190t-62 -190t-160 -72q-36 0 -67.5 11t-50 27t-32 32t-18.5 27l-5 11h-2q2 -18 2 -44v-213h90v-39h-222v39h90v822h-90zM136 249q0 -89 47 -155t127 -66q76 0 127 60
t51 162q0 100 -48.5 160.5t-125.5 60.5q-76 0 -127 -55.5t-51 -166.5z" />
    <glyph glyph-name="ydieresis" unicode="&#xff;" horiz-adv-x="561" 
d="M63 -146q28 -24 62 -24q61 0 99 90l34 82l-182 459h-68v39h193v-39h-79l149 -381l8 -28h2q3 13 9 28l149 381h-79v39h193v-39h-69l-226 -566q-19 -47 -53.5 -76t-79.5 -29q-21 0 -41.5 7t-29.5 13l-10 7zM344 627v73h54v-73h-54zM176 627v73h54v-73h-54z" />
    <glyph glyph-name="Amacron" unicode="&#x100;" horiz-adv-x="710" 
d="M10 0v40h75l247 660h46l247 -660h75v-40h-206v40h85l-76 202h-297l-75 -202h85v-40h-206zM221 282h267l-122 327l-10 38h-2q-3 -20 -10 -38zM236 786v40h239v-40h-239z" />
    <glyph glyph-name="amacron" unicode="&#x101;" horiz-adv-x="534" 
d="M42 136q0 169 310 169h33v22q0 145 -133 145q-39 0 -76 -12t-54 -24l-17 -13l-24 34q7 6 20.5 15t58.5 24.5t93 15.5q174 0 174 -184v-267q0 -22 22 -22h60v-39h-66q-31 0 -44.5 13t-13.5 42v11l4 45h-2q-2 -5 -5.5 -13.5t-18.5 -29.5t-33 -37t-50.5 -29.5t-69.5 -13.5
q-67 0 -117.5 38t-50.5 110zM86 141q0 -47 33 -80.5t91 -33.5q81 0 128 65t47 147v27h-32q-267 0 -267 -125zM134 625v40h239v-40h-239z" />
    <glyph glyph-name="Abreve" unicode="&#x102;" horiz-adv-x="710" 
d="M10 0v40h75l247 660h46l247 -660h75v-40h-206v40h85l-76 202h-297l-75 -202h85v-40h-206zM221 282h267l-122 327l-10 38h-2q-3 -20 -10 -38zM355 747q-43 0 -73 25.5t-30 72.5v16h44v-14q0 -30 17 -45t42 -15t42 15.5t17 45.5v13h44v-16q0 -47 -30 -72.5t-73 -25.5z" />
    <glyph glyph-name="abreve" unicode="&#x103;" horiz-adv-x="534" 
d="M42 136q0 169 310 169h33v22q0 145 -133 145q-39 0 -76 -12t-54 -24l-17 -13l-24 34q7 6 20.5 15t58.5 24.5t93 15.5q174 0 174 -184v-267q0 -22 22 -22h60v-39h-66q-31 0 -44.5 13t-13.5 42v11l4 45h-2q-2 -5 -5.5 -13.5t-18.5 -29.5t-33 -37t-50.5 -29.5t-69.5 -13.5
q-67 0 -117.5 38t-50.5 110zM86 141q0 -47 33 -80.5t91 -33.5q81 0 128 65t47 147v27h-32q-267 0 -267 -125zM253 586q-43 0 -73 25.5t-30 72.5v16h44v-14q0 -30 17 -45t42 -15t42 15.5t17 45.5v13h44v-16q0 -47 -30 -72.5t-73 -25.5z" />
    <glyph glyph-name="Aogonek" unicode="&#x104;" horiz-adv-x="710" 
d="M566 -113q0 62 68 113h-140v40h85l-76 202h-297l-75 -202h85v-40h-206v40h75l247 660h46l247 -660h75v-40h-5q-15 0 -50 -37.5t-35 -71.5q0 -21 17 -35.5t34 -17.5l17 -4l-11 -38q-4 0 -11 1t-24.5 6.5t-30.5 14.5t-24 27t-11 42zM221 282h267l-122 327l-10 38h-2
q-3 -20 -10 -38z" />
    <glyph glyph-name="aogonek" unicode="&#x105;" horiz-adv-x="534" 
d="M375 -113q0 62 68 113h-5q-53 0 -53 55v11l4 45h-2q-2 -5 -5.5 -13.5t-18.5 -29.5t-33 -37t-50.5 -29.5t-69.5 -13.5q-67 0 -117.5 38t-50.5 110q0 169 310 169h33v22q0 145 -133 145q-39 0 -76 -12t-54 -24l-17 -13l-24 34q7 6 20.5 15t58.5 24.5t93 15.5
q174 0 174 -184v-267q0 -22 22 -22h60v-39h-5q-15 0 -50 -37.5t-35 -71.5q0 -21 17 -35.5t34 -17.5l17 -4l-11 -38q-4 0 -11 1t-24.5 6.5t-30.5 14.5t-24 27t-11 42zM86 141q0 -47 33 -80.5t91 -33.5q81 0 128 65t47 147v27h-32q-267 0 -267 -125z" />
    <glyph glyph-name="Cacute" unicode="&#x106;" horiz-adv-x="740" 
d="M59 355q0 152 101 254.5t251 102.5q50 0 104.5 -11.5t102.5 -45t48 -82.5v-66h-44v56q0 36 -37.5 61.5t-83 36t-89.5 10.5q-131 0 -219.5 -90.5t-88.5 -225.5q0 -137 89 -231.5t222 -94.5q27 0 61 5.5t71 17t61.5 34t24.5 50.5v55h44v-65q0 -35 -27 -63t-68.5 -43.5
t-84.5 -23.5t-82 -8q-154 0 -255 106.5t-101 260.5zM360 750l94 111h64l-104 -111h-54z" />
    <glyph glyph-name="cacute" unicode="&#x107;" horiz-adv-x="544" 
d="M51 249q0 116 75.5 189.5t182.5 73.5q23 0 50.5 -5t57 -16t49 -33t19.5 -50v-48h-42v39q0 33 -45 52.5t-89 19.5q-90 0 -152 -61.5t-62 -160.5q0 -98 62 -159t152 -61q49 0 90.5 18t58.5 36l18 18l22 -35q-3 -3 -8 -8.5t-23 -19t-38 -23.5t-52.5 -18.5t-67.5 -8.5
q-109 0 -183.5 72.5t-74.5 188.5zM258 589l94 111h64l-104 -111h-54z" />
    <glyph glyph-name="Ccircumflex" unicode="&#x108;" horiz-adv-x="740" 
d="M59 355q0 152 101 254.5t251 102.5q50 0 104.5 -11.5t102.5 -45t48 -82.5v-66h-44v56q0 36 -37.5 61.5t-83 36t-89.5 10.5q-131 0 -219.5 -90.5t-88.5 -225.5q0 -137 89 -231.5t222 -94.5q27 0 61 5.5t71 17t61.5 34t24.5 50.5v55h44v-65q0 -35 -27 -63t-68.5 -43.5
t-84.5 -23.5t-82 -8q-154 0 -255 106.5t-101 260.5zM288 750l80 111h60l80 -111h-53l-56 80h-2l-56 -80h-53z" />
    <glyph glyph-name="ccircumflex" unicode="&#x109;" horiz-adv-x="544" 
d="M51 249q0 116 75.5 189.5t182.5 73.5q23 0 50.5 -5t57 -16t49 -33t19.5 -50v-48h-42v39q0 33 -45 52.5t-89 19.5q-90 0 -152 -61.5t-62 -160.5q0 -98 62 -159t152 -61q49 0 90.5 18t58.5 36l18 18l22 -35q-3 -3 -8 -8.5t-23 -19t-38 -23.5t-52.5 -18.5t-67.5 -8.5
q-109 0 -183.5 72.5t-74.5 188.5zM186 589l80 111h60l80 -111h-53l-56 80h-2l-56 -80h-53z" />
    <glyph glyph-name="Cdotaccent" unicode="&#x10a;" horiz-adv-x="740" 
d="M59 355q0 152 101 254.5t251 102.5q50 0 104.5 -11.5t102.5 -45t48 -82.5v-66h-44v56q0 36 -37.5 61.5t-83 36t-89.5 10.5q-131 0 -219.5 -90.5t-88.5 -225.5q0 -137 89 -231.5t222 -94.5q27 0 61 5.5t71 17t61.5 34t24.5 50.5v55h44v-65q0 -35 -27 -63t-68.5 -43.5
t-84.5 -23.5t-82 -8q-154 0 -255 106.5t-101 260.5zM371 788v73h54v-73h-54z" />
    <glyph glyph-name="cdotaccent" unicode="&#x10b;" horiz-adv-x="544" 
d="M51 249q0 116 75.5 189.5t182.5 73.5q23 0 50.5 -5t57 -16t49 -33t19.5 -50v-48h-42v39q0 33 -45 52.5t-89 19.5q-90 0 -152 -61.5t-62 -160.5q0 -98 62 -159t152 -61q49 0 90.5 18t58.5 36l18 18l22 -35q-3 -3 -8 -8.5t-23 -19t-38 -23.5t-52.5 -18.5t-67.5 -8.5
q-109 0 -183.5 72.5t-74.5 188.5zM269 627v73h54v-73h-54z" />
    <glyph glyph-name="Ccaron" unicode="&#x10c;" horiz-adv-x="740" 
d="M59 355q0 152 101 254.5t251 102.5q50 0 104.5 -11.5t102.5 -45t48 -82.5v-66h-44v56q0 36 -37.5 61.5t-83 36t-89.5 10.5q-131 0 -219.5 -90.5t-88.5 -225.5q0 -137 89 -231.5t222 -94.5q27 0 61 5.5t71 17t61.5 34t24.5 50.5v55h44v-65q0 -35 -27 -63t-68.5 -43.5
t-84.5 -23.5t-82 -8q-154 0 -255 106.5t-101 260.5zM368 750l-80 111h53l56 -80h2l56 80h53l-80 -111h-60z" />
    <glyph glyph-name="ccaron" unicode="&#x10d;" horiz-adv-x="544" 
d="M51 249q0 116 75.5 189.5t182.5 73.5q23 0 50.5 -5t57 -16t49 -33t19.5 -50v-48h-42v39q0 33 -45 52.5t-89 19.5q-90 0 -152 -61.5t-62 -160.5q0 -98 62 -159t152 -61q49 0 90.5 18t58.5 36l18 18l22 -35q-3 -3 -8 -8.5t-23 -19t-38 -23.5t-52.5 -18.5t-67.5 -8.5
q-109 0 -183.5 72.5t-74.5 188.5zM266 589l-80 111h53l56 -80h2l56 80h53l-80 -111h-60z" />
    <glyph glyph-name="Dcaron" unicode="&#x10e;" horiz-adv-x="770" 
d="M53 0v40h95v620h-95v40h292q90 0 151 -19q99 -33 155 -120t56 -212q0 -130 -60.5 -216.5t-168.5 -117.5q-52 -15 -133 -15h-292zM191 40h147q76 0 129 16q91 27 143 103.5t52 190.5q0 110 -49 187t-136 106q-50 17 -139 17h-147v-620zM319 750l-80 111h53l56 -80h2l56 80
h53l-80 -111h-60z" />
    <glyph glyph-name="dcaron" unicode="&#x10f;" horiz-adv-x="605" 
d="M53 250q0 118 62.5 190t161.5 72q35 0 66 -11.5t49.5 -27.5t32.5 -32t19 -27l6 -12h2q-4 18 -4 41v218h-95v39h137v-639q0 -22 22 -22h60v-39h-66q-31 0 -44.5 13t-13.5 42v11l4 35h-2q-2 -5 -5.5 -12.5t-18.5 -27t-33.5 -34.5t-51.5 -27t-72 -12q-99 0 -157.5 72
t-58.5 190zM97 250q0 -100 48.5 -160.5t125.5 -60.5q76 0 127 55.5t51 166.5q0 90 -45.5 155t-128.5 65q-76 0 -127 -59.5t-51 -161.5zM557 700h46q7 -17 7 -44q0 -60 -47 -99l-29 21q33 39 33 74q0 21 -10 48z" />
    <glyph glyph-name="Dcroat" unicode="&#x110;" horiz-adv-x="780" 
d="M53 0v40h95v293h-80v40h80v287h-95v40h315q158 0 253.5 -93t95.5 -257q0 -165 -95 -257.5t-254 -92.5h-315zM191 40h170q142 0 226.5 81t84.5 229q0 147 -84.5 228.5t-226.5 81.5h-170v-287h183v-40h-183v-293z" />
    <glyph glyph-name="dcroat" unicode="&#x111;" horiz-adv-x="605" 
d="M53 250q0 118 62.5 190t161.5 72q35 0 66 -11.5t49.5 -28t32.5 -33.5t19 -29l6 -11h2q-4 18 -4 41v129h-153v40h153v91h42v-91h83v-40h-83v-508q0 -22 22 -22h60v-39h-66q-31 0 -44.5 13t-13.5 42v11l4 35h-2q-2 -5 -5.5 -12.5t-18.5 -27t-33.5 -34.5t-51.5 -27t-72 -12
q-99 0 -157.5 72t-58.5 190zM97 250q0 -100 48.5 -160.5t125.5 -60.5q76 0 127 55.5t51 166.5q0 90 -45.5 155t-128.5 65q-76 0 -127 -59.5t-51 -161.5z" />
    <glyph glyph-name="Emacron" unicode="&#x112;" horiz-adv-x="616" 
d="M53 0v40h95v620h-95v40h483v-130h-42v90h-303v-287h279v-40h-279v-293h323v96h42v-136h-503zM193 786v40h239v-40h-239z" />
    <glyph glyph-name="emacron" unicode="&#x113;" horiz-adv-x="549" 
d="M52 249q0 122 71 192.5t172 70.5q97 0 150.5 -65.5t53.5 -162.5l-2 -27h-401q0 -105 61.5 -166.5t152.5 -61.5q43 0 81.5 15.5t56.5 31.5l17 16l23 -35q-8 -8 -22.5 -19.5t-61 -30.5t-94.5 -19q-109 0 -183.5 72.5t-74.5 188.5zM99 296h356q-4 87 -49 132t-112 45
q-73 0 -127.5 -46.5t-67.5 -130.5zM178 625v40h239v-40h-239z" />
    <glyph glyph-name="Ebreve" unicode="&#x114;" horiz-adv-x="616" 
d="M53 0v40h95v620h-95v40h483v-130h-42v90h-303v-287h279v-40h-279v-293h323v96h42v-136h-503zM312 747q-43 0 -73 25.5t-30 72.5v16h44v-14q0 -30 17 -45t42 -15t42 15.5t17 45.5v13h44v-16q0 -47 -30 -72.5t-73 -25.5z" />
    <glyph glyph-name="ebreve" unicode="&#x115;" horiz-adv-x="549" 
d="M52 249q0 122 71 192.5t172 70.5q97 0 150.5 -65.5t53.5 -162.5l-2 -27h-401q0 -105 61.5 -166.5t152.5 -61.5q43 0 81.5 15.5t56.5 31.5l17 16l23 -35q-8 -8 -22.5 -19.5t-61 -30.5t-94.5 -19q-109 0 -183.5 72.5t-74.5 188.5zM99 296h356q-4 87 -49 132t-112 45
q-73 0 -127.5 -46.5t-67.5 -130.5zM297 586q-43 0 -73 25.5t-30 72.5v16h44v-14q0 -30 17 -45t42 -15t42 15.5t17 45.5v13h44v-16q0 -47 -30 -72.5t-73 -25.5z" />
    <glyph glyph-name="Edotaccent" unicode="&#x116;" horiz-adv-x="616" 
d="M53 0v40h95v620h-95v40h483v-130h-42v90h-303v-287h279v-40h-279v-293h323v96h42v-136h-503zM285 788v73h54v-73h-54z" />
    <glyph glyph-name="edotaccent" unicode="&#x117;" horiz-adv-x="549" 
d="M52 249q0 122 71 192.5t172 70.5q97 0 150.5 -65.5t53.5 -162.5l-2 -27h-401q0 -105 61.5 -166.5t152.5 -61.5q43 0 81.5 15.5t56.5 31.5l17 16l23 -35q-8 -8 -22.5 -19.5t-61 -30.5t-94.5 -19q-109 0 -183.5 72.5t-74.5 188.5zM99 296h356q-4 87 -49 132t-112 45
q-73 0 -127.5 -46.5t-67.5 -130.5zM270 627v73h54v-73h-54z" />
    <glyph glyph-name="Eogonek" unicode="&#x118;" horiz-adv-x="616" 
d="M53 0v40h95v620h-95v40h483v-130h-42v90h-303v-287h279v-40h-279v-293h323v96h42v-136h-5q-15 0 -50 -37.5t-35 -71.5q0 -21 17 -35.5t34 -17.5l17 -4l-11 -38q-4 0 -11 1t-24.5 6.5t-30.5 14.5t-24 27t-11 42q0 62 68 113h-437z" />
    <glyph glyph-name="eogonek" unicode="&#x119;" horiz-adv-x="549" 
d="M52 249q0 122 71 192.5t172 70.5q97 0 150.5 -65.5t53.5 -162.5l-2 -27h-401q0 -105 61.5 -166.5t152.5 -61.5q43 0 81.5 15.5t56.5 31.5l17 16l23 -35q-35 -29 -84 -54q-19 -9 -51 -43t-32 -69q0 -21 17 -35.5t34 -17.5l17 -4l-11 -38q-4 0 -11 1t-24.5 6.5t-30.5 14.5
t-24 27t-11 42q0 54 54 102q-118 -10 -198.5 65.5t-80.5 194.5zM99 296h356q-4 87 -49 132t-112 45q-73 0 -127.5 -46.5t-67.5 -130.5z" />
    <glyph glyph-name="Ecaron" unicode="&#x11a;" horiz-adv-x="616" 
d="M53 0v40h95v620h-95v40h483v-130h-42v90h-303v-287h279v-40h-279v-293h323v96h42v-136h-503zM282 750l-80 111h53l56 -80h2l56 80h53l-80 -111h-60z" />
    <glyph glyph-name="ecaron" unicode="&#x11b;" horiz-adv-x="549" 
d="M52 249q0 122 71 192.5t172 70.5q97 0 150.5 -65.5t53.5 -162.5l-2 -27h-401q0 -105 61.5 -166.5t152.5 -61.5q43 0 81.5 15.5t56.5 31.5l17 16l23 -35q-8 -8 -22.5 -19.5t-61 -30.5t-94.5 -19q-109 0 -183.5 72.5t-74.5 188.5zM99 296h356q-4 87 -49 132t-112 45
q-73 0 -127.5 -46.5t-67.5 -130.5zM267 589l-80 111h53l56 -80h2l56 80h53l-80 -111h-60z" />
    <glyph glyph-name="Gcircumflex" unicode="&#x11c;" horiz-adv-x="766" 
d="M60 350q0 156 100 259t261 103q98 0 178.5 -38t80.5 -100v-67h-44v53q0 35 -35 61t-83 38t-99 12q-141 0 -227.5 -91.5t-86.5 -230.5q0 -138 87 -229t224 -91q32 0 69 5.5t76.5 17.5t65.5 36t26 56v125h-155v40h198v-170q0 -39 -27.5 -69.5t-71 -47.5t-89 -25.5
t-88.5 -8.5q-159 0 -259.5 103t-100.5 259zM299 750l80 111h60l80 -111h-53l-56 80h-2l-56 -80h-53z" />
    <glyph glyph-name="gcircumflex" unicode="&#x11d;" horiz-adv-x="597" 
d="M118 -134q62 -35 134 -35q85 0 137.5 42.5t52.5 129.5v58l4 41h-2q-50 -102 -168 -102q-98 0 -160 71t-62 187q0 117 58.5 185.5t156.5 68.5q60 0 107.5 -24t66.5 -71h2q-3 7 -3 25q0 31 13 44.5t45 13.5h74v-39h-68q-22 0 -22 -22v-436q0 -108 -65.5 -160.5
t-163.5 -52.5q-81 0 -157 39zM279 41q73 0 118.5 51.5t45.5 165.5q0 213 -174 213q-81 0 -126 -56t-45 -157q0 -100 50 -158.5t131 -58.5zM179 589l80 111h60l80 -111h-53l-56 80h-2l-56 -80h-53z" />
    <glyph glyph-name="Gbreve" unicode="&#x11e;" horiz-adv-x="766" 
d="M60 350q0 156 100 259t261 103q98 0 178.5 -38t80.5 -100v-67h-44v53q0 35 -35 61t-83 38t-99 12q-141 0 -227.5 -91.5t-86.5 -230.5q0 -138 87 -229t224 -91q32 0 69 5.5t76.5 17.5t65.5 36t26 56v125h-155v40h198v-170q0 -39 -27.5 -69.5t-71 -47.5t-89 -25.5
t-88.5 -8.5q-159 0 -259.5 103t-100.5 259zM409 747q-43 0 -73 25.5t-30 72.5v16h44v-14q0 -30 17 -45t42 -15t42 15.5t17 45.5v13h44v-16q0 -47 -30 -72.5t-73 -25.5z" />
    <glyph glyph-name="gbreve" unicode="&#x11f;" horiz-adv-x="597" 
d="M118 -134q62 -35 134 -35q85 0 137.5 42.5t52.5 129.5v58l4 41h-2q-50 -102 -168 -102q-98 0 -160 71t-62 187q0 117 58.5 185.5t156.5 68.5q60 0 107.5 -24t66.5 -71h2q-3 7 -3 25q0 31 13 44.5t45 13.5h74v-39h-68q-22 0 -22 -22v-436q0 -108 -65.5 -160.5
t-163.5 -52.5q-81 0 -157 39zM279 41q73 0 118.5 51.5t45.5 165.5q0 213 -174 213q-81 0 -126 -56t-45 -157q0 -100 50 -158.5t131 -58.5zM289 586q-43 0 -73 25.5t-30 72.5v16h44v-14q0 -30 17 -45t42 -15t42 15.5t17 45.5v13h44v-16q0 -47 -30 -72.5t-73 -25.5z" />
    <glyph glyph-name="Gdotaccent" unicode="&#x120;" horiz-adv-x="766" 
d="M60 350q0 156 100 259t261 103q98 0 178.5 -38t80.5 -100v-67h-44v53q0 35 -35 61t-83 38t-99 12q-141 0 -227.5 -91.5t-86.5 -230.5q0 -138 87 -229t224 -91q32 0 69 5.5t76.5 17.5t65.5 36t26 56v125h-155v40h198v-170q0 -39 -27.5 -69.5t-71 -47.5t-89 -25.5
t-88.5 -8.5q-159 0 -259.5 103t-100.5 259zM382 788v73h54v-73h-54z" />
    <glyph glyph-name="gdotaccent" unicode="&#x121;" horiz-adv-x="597" 
d="M118 -134q62 -35 134 -35q85 0 137.5 42.5t52.5 129.5v58l4 41h-2q-50 -102 -168 -102q-98 0 -160 71t-62 187q0 117 58.5 185.5t156.5 68.5q60 0 107.5 -24t66.5 -71h2q-3 7 -3 25q0 31 13 44.5t45 13.5h74v-39h-68q-22 0 -22 -22v-436q0 -108 -65.5 -160.5
t-163.5 -52.5q-81 0 -157 39zM279 41q73 0 118.5 51.5t45.5 165.5q0 213 -174 213q-81 0 -126 -56t-45 -157q0 -100 50 -158.5t131 -58.5zM262 627v73h54v-73h-54z" />
    <glyph glyph-name="Gcommaaccent" unicode="&#x122;" horiz-adv-x="766" 
d="M60 350q0 156 100 259t261 103q98 0 178.5 -38t80.5 -100v-67h-44v53q0 35 -35 61t-83 38t-99 12q-141 0 -227.5 -91.5t-86.5 -230.5q0 -138 87 -229t224 -91q32 0 69 5.5t76.5 17.5t65.5 36t26 56v125h-155v40h198v-170q0 -39 -27.5 -69.5t-71 -47.5t-89 -25.5
t-88.5 -8.5q-159 0 -259.5 103t-100.5 259zM381 -66h46q7 -17 7 -44q0 -60 -47 -99l-29 21q33 39 33 74q0 21 -10 48z" />
    <glyph glyph-name="gcommaaccent" unicode="&#x123;" horiz-adv-x="597" 
d="M118 -134q62 -35 134 -35q85 0 137.5 42.5t52.5 129.5v58l4 41h-2q-50 -102 -168 -102q-98 0 -160 71t-62 187q0 117 58.5 185.5t156.5 68.5q60 0 107.5 -24t66.5 -71h2q-3 7 -3 25q0 31 13 44.5t45 13.5h74v-39h-68q-22 0 -22 -22v-436q0 -108 -65.5 -160.5
t-163.5 -52.5q-81 0 -157 39zM279 41q73 0 118.5 51.5t45.5 165.5q0 213 -174 213q-81 0 -126 -56t-45 -157q0 -100 50 -158.5t131 -58.5zM304 578h-46q-7 17 -7 44q0 60 47 99l29 -21q-33 -39 -33 -74q0 -21 10 -48z" />
    <glyph glyph-name="Hcircumflex" unicode="&#x124;" horiz-adv-x="826" 
d="M53 0v40h95v620h-95v40h233v-40h-95v-289h444v289h-95v40h233v-40h-95v-620h95v-40h-233v40h95v291h-444v-291h95v-40h-233zM303 750l80 111h60l80 -111h-53l-56 80h-2l-56 -80h-53z" />
    <glyph glyph-name="hcircumflex" unicode="&#x125;" horiz-adv-x="644" 
d="M28 0v39h90v622h-95v39h137v-288l-4 -41h2q17 48 73 94.5t139 46.5q92 0 128.5 -49.5t36.5 -145.5v-278h90v-39h-132v302q0 30 -2 51.5t-9 45t-20 38.5t-36.5 24.5t-55.5 9.5q-88 0 -149 -64.5t-61 -162.5v-205h90v-39h-222zM29 750l80 111h60l80 -111h-53l-56 80h-2
l-56 -80h-53z" />
    <glyph glyph-name="Hbar" unicode="&#x126;" horiz-adv-x="826" 
d="M63 507v40h85v113h-95v40h233v-40h-95v-113h444v113h-95v40h233v-40h-95v-113h85v-40h-85v-467h95v-40h-233v40h95v291h-444v-291h95v-40h-233v40h95v467h-85zM191 371h444v136h-444v-136z" />
    <glyph glyph-name="hbar" unicode="&#x127;" horiz-adv-x="644" 
d="M28 0v39h90v530h-81v40h81v91h42v-91h153v-40h-153v-157l-4 -41h2q17 48 73 94.5t139 46.5q92 0 128.5 -49.5t36.5 -145.5v-278h90v-39h-132v302q0 30 -2 51.5t-9 45t-20 38.5t-36.5 24.5t-55.5 9.5q-89 0 -149.5 -66t-60.5 -158v-208h90v-39h-222z" />
    <glyph glyph-name="Itilde" unicode="&#x128;" horiz-adv-x="339" 
d="M53 0v40h95v620h-95v40h233v-40h-95v-620h95v-40h-233zM21 753q0 108 84 108q25 0 45 -11.5t30.5 -24.5t24.5 -24.5t28 -11.5q41 0 41 69h44q0 -108 -84 -108q-25 0 -45 11t-30.5 25t-24.5 25t-28 11q-41 0 -41 -69h-44z" />
    <glyph glyph-name="itilde" unicode="&#x129;" horiz-adv-x="281" 
d="M44 0v39h80v422h-80v39h122v-461h80v-39h-202zM-3 592q0 108 84 108q25 0 45 -11t30.5 -25t24.5 -25t28 -11q41 0 41 69h44q0 -108 -84 -108q-25 0 -45 11.5t-30.5 24.5t-24.5 24.5t-28 11.5q-41 0 -41 -69h-44z" />
    <glyph glyph-name="Imacron" unicode="&#x12a;" horiz-adv-x="339" 
d="M53 0v40h95v620h-95v40h233v-40h-95v-620h95v-40h-233zM50 786v40h239v-40h-239z" />
    <glyph glyph-name="imacron" unicode="&#x12b;" horiz-adv-x="281" 
d="M44 0v39h80v422h-80v39h122v-461h80v-39h-202zM26 625v40h239v-40h-239z" />
    <glyph glyph-name="Ibreve" unicode="&#x12c;" horiz-adv-x="339" 
d="M53 0v40h95v620h-95v40h233v-40h-95v-620h95v-40h-233zM169 747q-43 0 -73 25.5t-30 72.5v16h44v-14q0 -30 17 -45t42 -15t42 15.5t17 45.5v13h44v-16q0 -47 -30 -72.5t-73 -25.5z" />
    <glyph glyph-name="ibreve" unicode="&#x12d;" horiz-adv-x="281" 
d="M44 0v39h80v422h-80v39h122v-461h80v-39h-202zM145 586q-43 0 -73 25.5t-30 72.5v16h44v-14q0 -30 17 -45t42 -15t42 15.5t17 45.5v13h44v-16q0 -47 -30 -72.5t-73 -25.5z" />
    <glyph glyph-name="Iogonek" unicode="&#x12e;" horiz-adv-x="339" 
d="M53 0v40h95v620h-95v40h233v-40h-95v-620h95v-40h-6q-17 -2 -50.5 -38.5t-33.5 -70.5q0 -21 17 -35.5t34 -17.5l17 -4l-11 -38q-4 0 -11 1t-24.5 6.5t-30.5 14.5t-24 27t-11 42q0 62 68 113h-167z" />
    <glyph glyph-name="iogonek" unicode="&#x12f;" horiz-adv-x="295" 
d="M45 0v39h90v422h-95v39h137v-461h90v-39h-3q-15 0 -50 -37.5t-35 -71.5q0 -21 17 -35.5t34 -17.5l17 -4l-11 -38q-4 0 -11 1t-24.5 6.5t-30.5 14.5t-24 27t-11 42q0 62 68 113h-158zM129 627v73h54v-73h-54z" />
    <glyph glyph-name="Idotaccent" unicode="&#x130;" horiz-adv-x="339" 
d="M53 0v40h95v620h-95v40h233v-40h-95v-620h95v-40h-233zM142 788v73h54v-73h-54z" />
    <glyph glyph-name="dotlessi" unicode="&#x131;" horiz-adv-x="281" 
d="M44 0v39h80v422h-80v39h122v-461h80v-39h-202z" />
    <glyph glyph-name="IJ" unicode="&#x132;" horiz-adv-x="667" 
d="M53 0v40h95v620h-95v40h233v-40h-95v-620h86v-40h-224zM334 37q23 0 42.5 3.5t41 15t36.5 30.5t24.5 53t9.5 79v442h-95v40h233v-40h-95v-442q0 -223 -197 -223v42z" />
    <glyph glyph-name="ij" unicode="&#x133;" horiz-adv-x="537" 
d="M129 627v73h54v-73h-54zM45 0v39h90v422h-95v39h137v-461h90v-39h-222zM394 627v73h54v-73h-54zM258 -164q9 -2 22 -2q19 0 36.5 5t38 18.5t33 45t12.5 76.5v482h-95v39h137v-520q0 -58 -17 -98t-44.5 -57.5t-50.5 -23.5t-47 -6l-25 2v39z" />
    <glyph glyph-name="Jcircumflex" unicode="&#x134;" horiz-adv-x="535" 
d="M32 187v26h43v-19q0 -71 38 -118t106 -47q60 0 102 39.5t42 125.5v466h-111v40h239v-40h-85v-473q0 -102 -54.5 -150.5t-132.5 -48.5t-132.5 48.5t-54.5 150.5zM274 750l80 111h60l80 -111h-53l-56 80h-2l-56 -80h-53z" />
    <glyph glyph-name="jcircumflex" unicode="&#x135;" horiz-adv-x="254" 
d="M-3 589l80 111h60l80 -111h-53l-56 80h-2l-56 -80h-53zM-25 -164q9 -2 22 -2q19 0 36.5 5t38 18.5t33 45t12.5 76.5v482h-95v39h137v-520q0 -58 -17 -98t-44.5 -57.5t-50.5 -23.5t-47 -6l-25 2v39z" />
    <glyph glyph-name="Kcommaaccent" unicode="&#x136;" horiz-adv-x="646" 
d="M53 0v40h95v620h-95v40h233v-40h-95v-272h113l189 272h-73v40h199v-40h-74l-204 -290v-2q12 -6 29 -35l159 -264q18 -29 55 -29h35v-40h-35q-42 0 -59 10t-37 43l-157 262q-19 33 -58 33h-82v-308h95v-40h-233zM311 -66h46q7 -17 7 -44q0 -60 -47 -99l-29 21q33 39 33 74
q0 21 -10 48z" />
    <glyph glyph-name="kcommaaccent" unicode="&#x137;" horiz-adv-x="537" 
d="M28 0v39h90v622h-95v39h137v-397h84l135 158h-78v39h203v-39h-71l-150 -173v-2q10 0 33 -38l112 -187q8 -14 17 -18t31 -4h37v-39h-39q-39 0 -55 9.5t-36 43.5l-114 189q-9 14 -19.5 18t-31.5 4h-58v-225h90v-39h-222zM271 -66h46q7 -17 7 -44q0 -60 -47 -99l-29 21
q33 39 33 74q0 21 -10 48z" />
    <glyph glyph-name="kgreenlandic" unicode="&#x138;" horiz-adv-x="554" 
d="M45 0v39h90v422h-95v39h137v-197h84l135 158h-78v39h203v-39h-71l-150 -173v-2q10 0 33 -38l112 -187q8 -14 17 -18t31 -4h37v-39h-39q-39 0 -55 9.5t-36 43.5l-114 189q-9 14 -19.5 18t-31.5 4h-58v-225h90v-39h-222z" />
    <glyph glyph-name="Lacute" unicode="&#x139;" horiz-adv-x="578" 
d="M53 0v40h95v620h-95v40h233v-40h-95v-620h312v120h42v-160h-492zM131 750l94 111h64l-104 -111h-54z" />
    <glyph glyph-name="lacute" unicode="&#x13a;" horiz-adv-x="253" 
d="M96 110v551h-94v39h136v-586q0 -77 59 -77l30 2l-1 -39q-17 -2 -36 -2q-94 0 -94 112zM80 750l94 111h64l-104 -111h-54z" />
    <glyph glyph-name="Lcommaaccent" unicode="&#x13b;" horiz-adv-x="578" 
d="M53 0v40h95v620h-95v40h233v-40h-95v-620h312v120h42v-160h-492zM306 -66h46q7 -17 7 -44q0 -60 -47 -99l-29 21q33 39 33 74q0 21 -10 48z" />
    <glyph glyph-name="lcommaaccent" unicode="&#x13c;" horiz-adv-x="253" 
d="M96 110v551h-94v39h136v-586q0 -77 59 -77l30 2l-1 -39q-17 -2 -36 -2q-94 0 -94 112zM125 -66h46q7 -17 7 -44q0 -60 -47 -99l-29 21q33 39 33 74q0 21 -10 48z" />
    <glyph glyph-name="Lcaron" unicode="&#x13d;" horiz-adv-x="578" 
d="M53 0v40h95v620h-95v40h233v-40h-95v-620h312v120h42v-160h-492zM306 -66h46q7 -17 7 -44q0 -60 -47 -99l-29 21q33 39 33 74q0 21 -10 48z" />
    <glyph glyph-name="lcaron" unicode="&#x13e;" horiz-adv-x="253" 
d="M96 110v551h-94v39h136v-586q0 -77 59 -77l30 2l-1 -39q-17 -2 -36 -2q-94 0 -94 112zM206 700h46q7 -17 7 -44q0 -60 -47 -99l-29 21q33 39 33 74q0 21 -10 48z" />
    <glyph glyph-name="Ldot" unicode="&#x13f;" horiz-adv-x="578" 
d="M53 0v40h95v620h-95v40h233v-40h-95v-620h312v120h42v-160h-492zM323 334v63h61v-63h-61z" />
    <glyph glyph-name="ldot" unicode="&#x140;" horiz-adv-x="263" 
d="M96 110v551h-94v39h136v-586q0 -77 59 -77l30 2l-1 -39q-17 -2 -36 -2q-94 0 -94 112zM223 334v63h61v-63h-61z" />
    <glyph glyph-name="Lslash" unicode="&#x141;" horiz-adv-x="578" 
d="M53 0v40h95v273l-90 -46v47l90 46v300h-95v40h233v-40h-95v-278l231 120v-48l-231 -119v-295h312v120h42v-160h-492z" />
    <glyph glyph-name="lslash" unicode="&#x142;" horiz-adv-x="253" 
d="M7 333v47l89 51v230h-94v39h136v-244l92 53v-48l-92 -53v-294q0 -77 59 -77l30 2l-1 -39q-17 -2 -36 -2q-94 0 -94 112v274z" />
    <glyph glyph-name="Nacute" unicode="&#x143;" horiz-adv-x="823" 
d="M53 0v40h95v620h-95v40h134l436 -598l19 -36h2l-3 41v553h-95v40h233v-40h-95v-660h-40l-435 599l-19 36h-2l3 -41v-554h95v-40h-233zM378 750l94 111h64l-104 -111h-54z" />
    <glyph glyph-name="nacute" unicode="&#x144;" horiz-adv-x="661" 
d="M45 0v39h90v400q0 22 -22 22h-73v39h79q31 0 44.5 -13t13.5 -42v-33l-4 -41h2q17 48 73 94.5t139 46.5q92 0 128.5 -49.5t36.5 -145.5v-278h90v-39h-132v302q0 30 -2 51.5t-9 45t-20 38.5t-36.5 24.5t-55.5 9.5q-88 0 -149 -65.5t-61 -157.5v-209h90v-39h-222zM317 589
l94 111h64l-104 -111h-54z" />
    <glyph glyph-name="Ncommaaccent" unicode="&#x145;" horiz-adv-x="823" 
d="M53 0v40h95v620h-95v40h134l436 -598l19 -36h2l-3 41v553h-95v40h233v-40h-95v-660h-40l-435 599l-19 36h-2l3 -41v-554h95v-40h-233zM392 -66h46q7 -17 7 -44q0 -60 -47 -99l-29 21q33 39 33 74q0 21 -10 48z" />
    <glyph glyph-name="ncommaaccent" unicode="&#x146;" horiz-adv-x="661" 
d="M45 0v39h90v400q0 22 -22 22h-73v39h79q31 0 44.5 -13t13.5 -42v-33l-4 -41h2q17 48 73 94.5t139 46.5q92 0 128.5 -49.5t36.5 -145.5v-278h90v-39h-132v302q0 30 -2 51.5t-9 45t-20 38.5t-36.5 24.5t-55.5 9.5q-88 0 -149 -65.5t-61 -157.5v-209h90v-39h-222zM315 -66
h46q7 -17 7 -44q0 -60 -47 -99l-29 21q33 39 33 74q0 21 -10 48z" />
    <glyph glyph-name="Ncaron" unicode="&#x147;" horiz-adv-x="823" 
d="M53 0v40h95v620h-95v40h134l436 -598l19 -36h2l-3 41v553h-95v40h233v-40h-95v-660h-40l-435 599l-19 36h-2l3 -41v-554h95v-40h-233zM386 750l-80 111h53l56 -80h2l56 80h53l-80 -111h-60z" />
    <glyph glyph-name="ncaron" unicode="&#x148;" horiz-adv-x="661" 
d="M45 0v39h90v400q0 22 -22 22h-73v39h79q31 0 44.5 -13t13.5 -42v-33l-4 -41h2q17 48 73 94.5t139 46.5q92 0 128.5 -49.5t36.5 -145.5v-278h90v-39h-132v302q0 30 -2 51.5t-9 45t-20 38.5t-36.5 24.5t-55.5 9.5q-88 0 -149 -65.5t-61 -157.5v-209h90v-39h-222zM325 589
l-80 111h53l56 -80h2l56 80h53l-80 -111h-60z" />
    <glyph glyph-name="napostrophe" unicode="&#x149;" horiz-adv-x="661" 
d="M45 0v39h90v400q0 22 -22 22h-73v39h79q31 0 44.5 -13t13.5 -42v-33l-4 -41h2q17 48 73 94.5t139 46.5q92 0 128.5 -49.5t36.5 -145.5v-278h90v-39h-132v302q0 30 -2 51.5t-9 45t-20 38.5t-36.5 24.5t-55.5 9.5q-88 0 -149 -65.5t-61 -157.5v-209h90v-39h-222zM79 700h46
q7 -17 7 -44q0 -60 -47 -99l-29 21q33 39 33 74q0 21 -10 48z" />
    <glyph glyph-name="Eng" unicode="&#x14a;" horiz-adv-x="823" 
d="M53 0v40h95v620h-95v40h137l433 -598l19 -36h2l-3 41v553h-95v40h233v-40h-95v-662q0 -104 -54.5 -153.5t-132.5 -49.5v42q59 0 101.5 40t42.5 124l-432 598l-19 36h-2l3 -41v-554h95v-40h-233z" />
    <glyph glyph-name="eng" unicode="&#x14b;" horiz-adv-x="637" 
d="M45 0v39h90v400q0 22 -22 22h-73v39h79q31 0 44.5 -13t13.5 -42v-33l-4 -41h2q17 48 73 94.5t139 46.5q92 0 128.5 -49.5t36.5 -145.5v-342q0 -58 -17 -98t-44.5 -57.5t-50.5 -23.5t-47 -6l-25 2v39q9 -2 22 -2q19 0 36.5 5t38 18.5t33 45t12.5 76.5v328q0 30 -2 51.5
t-9 45t-20 38.5t-36.5 24.5t-55.5 9.5q-89 0 -149.5 -67.5t-60.5 -159.5v-205h90v-39h-222z" />
    <glyph glyph-name="Omacron" unicode="&#x14c;" horiz-adv-x="826" 
d="M59 355q0 150 103.5 253.5t250.5 103.5t250.5 -103.5t103.5 -253.5q0 -154 -103.5 -260.5t-250.5 -106.5t-250.5 106.5t-103.5 260.5zM104 355q0 -137 90 -231.5t219 -94.5t219 94.5t90 231.5q0 134 -90 225t-219 91t-219 -91t-90 -225zM294 786v40h239v-40h-239z" />
    <glyph glyph-name="omacron" unicode="&#x14d;" horiz-adv-x="618" 
d="M50 253q0 109 75.5 184t183.5 75t183.5 -75t75.5 -184q0 -111 -75.5 -188t-183.5 -77t-183.5 77t-75.5 188zM94 253q0 -95 62.5 -159.5t152.5 -64.5t152.5 64.5t62.5 159.5q0 92 -62.5 155t-152.5 63t-152.5 -63t-62.5 -155zM190 625v40h239v-40h-239z" />
    <glyph glyph-name="Obreve" unicode="&#x14e;" horiz-adv-x="826" 
d="M59 355q0 150 103.5 253.5t250.5 103.5t250.5 -103.5t103.5 -253.5q0 -154 -103.5 -260.5t-250.5 -106.5t-250.5 106.5t-103.5 260.5zM104 355q0 -137 90 -231.5t219 -94.5t219 94.5t90 231.5q0 134 -90 225t-219 91t-219 -91t-90 -225zM413 747q-43 0 -73 25.5t-30 72.5
v16h44v-14q0 -30 17 -45t42 -15t42 15.5t17 45.5v13h44v-16q0 -47 -30 -72.5t-73 -25.5z" />
    <glyph glyph-name="obreve" unicode="&#x14f;" horiz-adv-x="618" 
d="M50 253q0 109 75.5 184t183.5 75t183.5 -75t75.5 -184q0 -111 -75.5 -188t-183.5 -77t-183.5 77t-75.5 188zM94 253q0 -95 62.5 -159.5t152.5 -64.5t152.5 64.5t62.5 159.5q0 92 -62.5 155t-152.5 63t-152.5 -63t-62.5 -155zM309 586q-43 0 -73 25.5t-30 72.5v16h44v-14
q0 -30 17 -45t42 -15t42 15.5t17 45.5v13h44v-16q0 -47 -30 -72.5t-73 -25.5z" />
    <glyph glyph-name="Ohungarumlaut" unicode="&#x150;" horiz-adv-x="826" 
d="M59 355q0 150 103.5 253.5t250.5 103.5t250.5 -103.5t103.5 -253.5q0 -154 -103.5 -260.5t-250.5 -106.5t-250.5 106.5t-103.5 260.5zM104 355q0 -137 90 -231.5t219 -94.5t219 94.5t90 231.5q0 134 -90 225t-219 91t-219 -91t-90 -225zM431 750l67 111h60l-79 -111h-48z
M316 750l62 111h54l-65 -111h-51z" />
    <glyph glyph-name="ohungarumlaut" unicode="&#x151;" horiz-adv-x="618" 
d="M50 253q0 109 75.5 184t183.5 75t183.5 -75t75.5 -184q0 -111 -75.5 -188t-183.5 -77t-183.5 77t-75.5 188zM94 253q0 -95 62.5 -159.5t152.5 -64.5t152.5 64.5t62.5 159.5q0 92 -62.5 155t-152.5 63t-152.5 -63t-62.5 -155zM327 589l67 111h60l-79 -111h-48zM212 589
l62 111h54l-65 -111h-51z" />
    <glyph glyph-name="OE" unicode="&#x152;" horiz-adv-x="949" 
d="M60 350q0 153 99 256.5t253 103.5q18 0 60 -5t56 -5h342v-130h-42v90h-303v-287h279v-40h-279v-293h323v91h42v-131h-361q-13 0 -56 -5t-61 -5q-154 0 -253 103t-99 257zM105 350q0 -138 85 -228.5t222 -90.5q16 0 33.5 2t26.5 4l10 2v622q-33 8 -70 8q-137 0 -222 -91
t-85 -228z" />
    <glyph glyph-name="oe" unicode="&#x153;" horiz-adv-x="1021" 
d="M51 249q0 116 75.5 189.5t182.5 73.5q77 0 140 -40t94 -109h2q29 71 88.5 110t133.5 39q97 0 150.5 -65.5t53.5 -162.5l-2 -27h-401q3 -108 64 -168t150 -60q43 0 81.5 15.5t56.5 31.5l17 16l23 -35q-8 -8 -22.5 -19.5t-61 -30.5t-94.5 -19q-79 0 -142.5 40t-93.5 110h-2
q-31 -70 -94 -110t-141 -40q-108 0 -183 72.5t-75 188.5zM571 296h356q-4 87 -49 132t-112 45q-73 0 -127.5 -46.5t-67.5 -130.5zM95 249q0 -98 62 -159t152 -61t152.5 62t62.5 163q0 96 -63 156.5t-152 60.5q-90 0 -152 -62t-62 -160z" />
    <glyph glyph-name="Racute" unicode="&#x154;" horiz-adv-x="669" 
d="M53 0v40h95v620h-95v40h295q73 0 120 -16q108 -42 108 -170q0 -82 -45 -136.5t-122 -63.5v-2q10 -8 20 -25l132 -224q9 -14 19.5 -18.5t31.5 -4.5h19v-40h-19q-44 0 -59.5 9t-36.5 44l-125 211q-16 28 -32 37t-51 9h-117v-270h95v-40h-233zM191 350h185q69 0 112 44.5
t43 117.5q0 102 -86 134q-38 14 -99 14h-155v-310zM281 750l94 111h64l-104 -111h-54z" />
    <glyph glyph-name="racute" unicode="&#x155;" horiz-adv-x="373" 
d="M51 0v39h80v400q0 22 -22 22h-73v39h79q31 0 44.5 -13t13.5 -42v-35l-2 -41h2q20 61 60.5 98t97.5 37l29 -3v-42q-12 2 -23 2q-55 0 -94 -41t-54.5 -94.5t-15.5 -109.5v-177h80v-39h-202zM180 589l94 111h64l-104 -111h-54z" />
    <glyph glyph-name="Rcommaaccent" unicode="&#x156;" horiz-adv-x="669" 
d="M53 0v40h95v620h-95v40h295q73 0 120 -16q108 -42 108 -170q0 -82 -45 -136.5t-122 -63.5v-2q10 -8 20 -25l132 -224q9 -14 19.5 -18.5t31.5 -4.5h19v-40h-19q-44 0 -59.5 9t-36.5 44l-125 211q-16 28 -32 37t-51 9h-117v-270h95v-40h-233zM191 350h185q69 0 112 44.5
t43 117.5q0 102 -86 134q-38 14 -99 14h-155v-310zM334 -66h46q7 -17 7 -44q0 -60 -47 -99l-29 21q33 39 33 74q0 21 -10 48z" />
    <glyph glyph-name="rcommaaccent" unicode="&#x157;" horiz-adv-x="373" 
d="M51 0v39h80v400q0 22 -22 22h-73v39h79q31 0 44.5 -13t13.5 -42v-35l-2 -41h2q20 61 60.5 98t97.5 37l29 -3v-42q-12 2 -23 2q-55 0 -94 -41t-54.5 -94.5t-15.5 -109.5v-177h80v-39h-202zM129 -66h46q7 -17 7 -44q0 -60 -47 -99l-29 21q33 39 33 74q0 21 -10 48z" />
    <glyph glyph-name="Rcaron" unicode="&#x158;" horiz-adv-x="669" 
d="M53 0v40h95v620h-95v40h295q73 0 120 -16q108 -42 108 -170q0 -82 -45 -136.5t-122 -63.5v-2q10 -8 20 -25l132 -224q9 -14 19.5 -18.5t31.5 -4.5h19v-40h-19q-44 0 -59.5 9t-36.5 44l-125 211q-16 28 -32 37t-51 9h-117v-270h95v-40h-233zM191 350h185q69 0 112 44.5
t43 117.5q0 102 -86 134q-38 14 -99 14h-155v-310zM289 750l-80 111h53l56 -80h2l56 80h53l-80 -111h-60z" />
    <glyph glyph-name="rcaron" unicode="&#x159;" horiz-adv-x="373" 
d="M51 0v39h80v400q0 22 -22 22h-73v39h79q31 0 44.5 -13t13.5 -42v-35l-2 -41h2q20 61 60.5 98t97.5 37l29 -3v-42q-12 2 -23 2q-55 0 -94 -41t-54.5 -94.5t-15.5 -109.5v-177h80v-39h-202zM188 589l-80 111h53l56 -80h2l56 80h53l-80 -111h-60z" />
    <glyph glyph-name="Sacute" unicode="&#x15a;" horiz-adv-x="553" 
d="M63 182h44v-51q0 -46 49.5 -74t117.5 -28q77 0 124.5 38t47.5 106q0 37 -13.5 64.5t-43 48t-54.5 32t-70 28.5q-28 11 -39.5 15.5t-36.5 15.5t-36.5 19.5t-29 23.5t-25.5 30.5t-14.5 37.5t-6.5 47q0 83 58 130t145 47q77 0 135 -28t58 -75v-67h-44v53q0 34 -46.5 55
t-102.5 21q-69 0 -113.5 -34.5t-44.5 -96.5q0 -27 10.5 -49.5t22 -36t40.5 -29t43.5 -21.5t53.5 -21q41 -16 60.5 -24.5t51.5 -27t47 -37t27.5 -48.5t12.5 -67q0 -85 -60.5 -138t-156.5 -53q-80 0 -145.5 35t-65.5 98v61zM234 750l94 111h64l-104 -111h-54z" />
    <glyph glyph-name="sacute" unicode="&#x15b;" horiz-adv-x="460" 
d="M49 106v43h42v-38q0 -40 46 -61t99 -21q55 0 93 24.5t38 66.5q0 18 -8.5 33.5t-17 25t-32.5 22t-34 16.5t-42 16q-7 3 -10 4q-36 14 -57.5 24t-47 27.5t-37.5 41t-12 53.5q0 60 48.5 94.5t113.5 34.5q58 0 109 -25t51 -70v-55h-42v41q0 30 -35 49t-81 19q-50 0 -85 -22.5
t-35 -62.5q0 -18 8.5 -33t18.5 -25t32.5 -21.5t35.5 -17t42 -16.5q38 -15 59.5 -25t49 -28t40 -41.5t12.5 -54.5q0 -61 -49 -98.5t-130 -37.5q-74 0 -128.5 32t-54.5 86zM198 589l94 111h64l-104 -111h-54z" />
    <glyph glyph-name="Scircumflex" unicode="&#x15c;" horiz-adv-x="553" 
d="M63 182h44v-51q0 -46 49.5 -74t117.5 -28q77 0 124.5 38t47.5 106q0 37 -13.5 64.5t-43 48t-54.5 32t-70 28.5q-28 11 -39.5 15.5t-36.5 15.5t-36.5 19.5t-29 23.5t-25.5 30.5t-14.5 37.5t-6.5 47q0 83 58 130t145 47q77 0 135 -28t58 -75v-67h-44v53q0 34 -46.5 55
t-102.5 21q-69 0 -113.5 -34.5t-44.5 -96.5q0 -27 10.5 -49.5t22 -36t40.5 -29t43.5 -21.5t53.5 -21q41 -16 60.5 -24.5t51.5 -27t47 -37t27.5 -48.5t12.5 -67q0 -85 -60.5 -138t-156.5 -53q-80 0 -145.5 35t-65.5 98v61zM162 750l80 111h60l80 -111h-53l-56 80h-2l-56 -80
h-53z" />
    <glyph glyph-name="scircumflex" unicode="&#x15d;" horiz-adv-x="460" 
d="M49 106v43h42v-38q0 -40 46 -61t99 -21q55 0 93 24.5t38 66.5q0 18 -8.5 33.5t-17 25t-32.5 22t-34 16.5t-42 16q-7 3 -10 4q-36 14 -57.5 24t-47 27.5t-37.5 41t-12 53.5q0 60 48.5 94.5t113.5 34.5q58 0 109 -25t51 -70v-55h-42v41q0 30 -35 49t-81 19q-50 0 -85 -22.5
t-35 -62.5q0 -18 8.5 -33t18.5 -25t32.5 -21.5t35.5 -17t42 -16.5q38 -15 59.5 -25t49 -28t40 -41.5t12.5 -54.5q0 -61 -49 -98.5t-130 -37.5q-74 0 -128.5 32t-54.5 86zM126 589l80 111h60l80 -111h-53l-56 80h-2l-56 -80h-53z" />
    <glyph glyph-name="Scedilla" unicode="&#x15e;" horiz-adv-x="553" 
d="M235 -92l17 81q-75 5 -132 39.5t-57 92.5v61h44v-51q0 -46 49.5 -74t117.5 -28q77 0 124.5 38t47.5 106q0 37 -13.5 64.5t-43 48t-54.5 32t-70 28.5q-28 11 -39.5 15.5t-36.5 15.5t-36.5 19.5t-29 23.5t-25.5 30.5t-14.5 37.5t-6.5 47q0 83 58 130t145 47q77 0 135 -28
t58 -75v-67h-44v53q0 34 -46.5 55t-102.5 21q-69 0 -113.5 -34.5t-44.5 -96.5q0 -27 10.5 -49.5t22 -36t40.5 -29t43.5 -21.5t53.5 -21q41 -16 60.5 -24.5t51.5 -27t47 -37t27.5 -48.5t12.5 -67q0 -81 -55.5 -133t-145.5 -57l-9 -49q29 -3 48.5 -22t19.5 -46
q0 -39 -26 -57.5t-65 -18.5l-44 4v38q18 -5 41 -5q52 0 52 37q0 38 -60 38h-12z" />
    <glyph glyph-name="scedilla" unicode="&#x15f;" horiz-adv-x="460" 
d="M191 -92l17 81q-67 6 -113 37t-46 80v43h42v-38q0 -40 46 -61t99 -21q55 0 93 24.5t38 66.5q0 18 -8.5 33.5t-17 25t-32.5 22t-34 16.5t-42 16q-7 3 -10 4q-36 14 -57.5 24t-47 27.5t-37.5 41t-12 53.5q0 60 48.5 94.5t113.5 34.5q58 0 109 -25t51 -70v-55h-42v41
q0 30 -35 49t-81 19q-50 0 -85 -22.5t-35 -62.5q0 -18 8.5 -33t18.5 -25t32.5 -21.5t35.5 -17t42 -16.5q38 -15 59.5 -25t49 -28t40 -41.5t12.5 -54.5q0 -58 -45 -95t-120 -40l-9 -49q29 -3 48.5 -22t19.5 -46q0 -39 -26 -57.5t-65 -18.5l-44 4v38q18 -5 41 -5q52 0 52 37
q0 38 -60 38h-12z" />
    <glyph glyph-name="Scaron" unicode="&#x160;" horiz-adv-x="553" 
d="M63 182h44v-51q0 -46 49.5 -74t117.5 -28q77 0 124.5 38t47.5 106q0 37 -13.5 64.5t-43 48t-54.5 32t-70 28.5q-28 11 -39.5 15.5t-36.5 15.5t-36.5 19.5t-29 23.5t-25.5 30.5t-14.5 37.5t-6.5 47q0 83 58 130t145 47q77 0 135 -28t58 -75v-67h-44v53q0 34 -46.5 55
t-102.5 21q-69 0 -113.5 -34.5t-44.5 -96.5q0 -27 10.5 -49.5t22 -36t40.5 -29t43.5 -21.5t53.5 -21q41 -16 60.5 -24.5t51.5 -27t47 -37t27.5 -48.5t12.5 -67q0 -85 -60.5 -138t-156.5 -53q-80 0 -145.5 35t-65.5 98v61zM242 750l-80 111h53l56 -80h2l56 80h53l-80 -111
h-60z" />
    <glyph glyph-name="scaron" unicode="&#x161;" horiz-adv-x="460" 
d="M49 106v43h42v-38q0 -40 46 -61t99 -21q55 0 93 24.5t38 66.5q0 18 -8.5 33.5t-17 25t-32.5 22t-34 16.5t-42 16q-7 3 -10 4q-36 14 -57.5 24t-47 27.5t-37.5 41t-12 53.5q0 60 48.5 94.5t113.5 34.5q58 0 109 -25t51 -70v-55h-42v41q0 30 -35 49t-81 19q-50 0 -85 -22.5
t-35 -62.5q0 -18 8.5 -33t18.5 -25t32.5 -21.5t35.5 -17t42 -16.5q38 -15 59.5 -25t49 -28t40 -41.5t12.5 -54.5q0 -61 -49 -98.5t-130 -37.5q-74 0 -128.5 32t-54.5 86zM206 589l-80 111h53l56 -80h2l56 80h53l-80 -111h-60z" />
    <glyph glyph-name="Tcommaaccent" unicode="&#x162;" horiz-adv-x="643" 
d="M205 0v40h95v620h-224v-118h-42v158h575v-158h-42v118h-224v-620h95v-40h-99l-11 -60q29 -3 48.5 -22t19.5 -46q0 -39 -26 -57.5t-65 -18.5l-44 4v38q18 -5 41 -5q52 0 52 37q0 38 -60 38h-12l19 92h-96z" />
    <glyph glyph-name="tcommaaccent" unicode="&#x163;" horiz-adv-x="316" 
d="M160 -92l23 110q-71 45 -71 163v280h-95v39h95v139h42v-139h131v-39h-131v-277q0 -46 12.5 -78t32.5 -46.5t37.5 -19.5t36.5 -5l23 2v-39q-10 -2 -25 -2q-26 0 -53 7l-12 -63q29 -3 48.5 -22t19.5 -46q0 -39 -26 -57.5t-65 -18.5l-44 4v38q18 -5 41 -5q52 0 52 37
q0 38 -60 38h-12z" />
    <glyph glyph-name="Tcaron" unicode="&#x164;" horiz-adv-x="643" 
d="M205 0v40h95v620h-224v-118h-42v158h575v-158h-42v118h-224v-620h95v-40h-233zM291 750l-80 111h53l56 -80h2l56 80h53l-80 -111h-60z" />
    <glyph glyph-name="tcaron" unicode="&#x165;" horiz-adv-x="316" 
d="M112 181v280h-95v39h95v139h42v-139h131v-39h-131v-277q0 -46 12.5 -78t32.5 -46.5t37.5 -19.5t36.5 -5l23 2v-39q-10 -2 -25 -2q-19 0 -37 3t-41 14.5t-40 30.5t-29 54.5t-12 82.5zM248 700h46q7 -17 7 -44q0 -60 -47 -99l-29 21q33 39 33 74q0 21 -10 48z" />
    <glyph glyph-name="Tbar" unicode="&#x166;" horiz-adv-x="643" 
d="M108 337v40h192v283h-224v-118h-42v158h575v-158h-42v118h-224v-283h194v-40h-194v-297h95v-40h-233v40h95v297h-192z" />
    <glyph glyph-name="tbar" unicode="&#x167;" horiz-adv-x="316" 
d="M21 295v40h91v126h-95v39h95v139h42v-139h131v-39h-131v-126h124v-40h-124v-111q0 -46 12.5 -78t32.5 -46.5t37.5 -19.5t36.5 -5l23 2v-39q-10 -2 -25 -2q-19 0 -37 3t-41 14.5t-40 30.5t-29 54.5t-12 82.5v114h-91z" />
    <glyph glyph-name="Utilde" unicode="&#x168;" horiz-adv-x="785" 
d="M131 255v405h-95v40h233v-40h-95v-403q0 -88 34 -141q56 -87 184 -87q63 0 112 24t74 67q33 57 33 139v401h-95v40h233v-40h-95v-405q0 -97 -41 -161q-69 -106 -220 -106q-74 0 -132.5 28t-91.5 80q-38 61 -38 159zM244 753q0 108 84 108q25 0 45 -11.5t30.5 -24.5
t24.5 -24.5t28 -11.5q41 0 41 69h44q0 -108 -84 -108q-25 0 -45 11t-30.5 25t-24.5 25t-28 11q-41 0 -41 -69h-44z" />
    <glyph glyph-name="utilde" unicode="&#x169;" horiz-adv-x="641" 
d="M113 183v278h-95v39h137v-302q0 -30 2 -51.5t9 -45t20 -38.5t36.5 -24.5t55.5 -9.5q90 0 147.5 67.5t57.5 159.5v205h-95v39h137v-440q0 -22 22 -22h60v-38h-66q-31 0 -44.5 13t-13.5 42v28l2 41h-2q-17 -47 -70.5 -91.5t-134.5 -44.5q-89 0 -127 48t-38 147zM161 592
q0 108 84 108q25 0 45 -11t30.5 -25t24.5 -25t28 -11q41 0 41 69h44q0 -108 -84 -108q-25 0 -45 11.5t-30.5 24.5t-24.5 24.5t-28 11.5q-41 0 -41 -69h-44z" />
    <glyph glyph-name="Umacron" unicode="&#x16a;" horiz-adv-x="785" 
d="M131 255v405h-95v40h233v-40h-95v-403q0 -88 34 -141q56 -87 184 -87q63 0 112 24t74 67q33 57 33 139v401h-95v40h233v-40h-95v-405q0 -97 -41 -161q-69 -106 -220 -106q-74 0 -132.5 28t-91.5 80q-38 61 -38 159zM273 786v40h239v-40h-239z" />
    <glyph glyph-name="umacron" unicode="&#x16b;" horiz-adv-x="641" 
d="M113 183v278h-95v39h137v-302q0 -30 2 -51.5t9 -45t20 -38.5t36.5 -24.5t55.5 -9.5q90 0 147.5 67.5t57.5 159.5v205h-95v39h137v-440q0 -22 22 -22h60v-38h-66q-31 0 -44.5 13t-13.5 42v28l2 41h-2q-17 -47 -70.5 -91.5t-134.5 -44.5q-89 0 -127 48t-38 147zM190 625v40
h239v-40h-239z" />
    <glyph glyph-name="Ubreve" unicode="&#x16c;" horiz-adv-x="785" 
d="M131 255v405h-95v40h233v-40h-95v-403q0 -88 34 -141q56 -87 184 -87q63 0 112 24t74 67q33 57 33 139v401h-95v40h233v-40h-95v-405q0 -97 -41 -161q-69 -106 -220 -106q-74 0 -132.5 28t-91.5 80q-38 61 -38 159zM392 747q-43 0 -73 25.5t-30 72.5v16h44v-14
q0 -30 17 -45t42 -15t42 15.5t17 45.5v13h44v-16q0 -47 -30 -72.5t-73 -25.5z" />
    <glyph glyph-name="ubreve" unicode="&#x16d;" horiz-adv-x="641" 
d="M113 183v278h-95v39h137v-302q0 -30 2 -51.5t9 -45t20 -38.5t36.5 -24.5t55.5 -9.5q90 0 147.5 67.5t57.5 159.5v205h-95v39h137v-440q0 -22 22 -22h60v-38h-66q-31 0 -44.5 13t-13.5 42v28l2 41h-2q-17 -47 -70.5 -91.5t-134.5 -44.5q-89 0 -127 48t-38 147zM309 586
q-43 0 -73 25.5t-30 72.5v16h44v-14q0 -30 17 -45t42 -15t42 15.5t17 45.5v13h44v-16q0 -47 -30 -72.5t-73 -25.5z" />
    <glyph glyph-name="Uring" unicode="&#x16e;" horiz-adv-x="785" 
d="M131 255v405h-95v40h233v-40h-95v-403q0 -88 34 -141q56 -87 184 -87q63 0 112 24t74 67q33 57 33 139v401h-95v40h233v-40h-95v-405q0 -97 -41 -161q-69 -106 -220 -106q-74 0 -132.5 28t-91.5 80q-38 61 -38 159zM392 733q-31 0 -52.5 21t-21.5 52q0 32 21.5 53.5
t52.5 21.5q32 0 54 -21.5t22 -53.5q0 -31 -22 -52t-54 -21zM392 770q17 0 27 10t10 26q0 18 -10 28.5t-27 10.5q-16 0 -25.5 -10.5t-9.5 -28.5q0 -16 9.5 -26t25.5 -10z" />
    <glyph glyph-name="uring" unicode="&#x16f;" horiz-adv-x="641" 
d="M113 183v278h-95v39h137v-302q0 -30 2 -51.5t9 -45t20 -38.5t36.5 -24.5t55.5 -9.5q90 0 147.5 67.5t57.5 159.5v205h-95v39h137v-440q0 -22 22 -22h60v-38h-66q-31 0 -44.5 13t-13.5 42v28l2 41h-2q-17 -47 -70.5 -91.5t-134.5 -44.5q-89 0 -127 48t-38 147zM309 572
q-31 0 -52.5 21t-21.5 52q0 32 21.5 53.5t52.5 21.5q32 0 54 -21.5t22 -53.5q0 -31 -22 -52t-54 -21zM309 609q17 0 27 10t10 26q0 18 -10 28.5t-27 10.5q-16 0 -25.5 -10.5t-9.5 -28.5q0 -16 9.5 -26t25.5 -10z" />
    <glyph glyph-name="Uhungarumlaut" unicode="&#x170;" horiz-adv-x="785" 
d="M131 255v405h-95v40h233v-40h-95v-403q0 -88 34 -141q56 -87 184 -87q63 0 112 24t74 67q33 57 33 139v401h-95v40h233v-40h-95v-405q0 -97 -41 -161q-69 -106 -220 -106q-74 0 -132.5 28t-91.5 80q-38 61 -38 159zM410 750l67 111h60l-79 -111h-48zM295 750l62 111h54
l-65 -111h-51z" />
    <glyph glyph-name="uhungarumlaut" unicode="&#x171;" horiz-adv-x="641" 
d="M113 183v278h-95v39h137v-302q0 -30 2 -51.5t9 -45t20 -38.5t36.5 -24.5t55.5 -9.5q90 0 147.5 67.5t57.5 159.5v205h-95v39h137v-440q0 -22 22 -22h60v-38h-66q-31 0 -44.5 13t-13.5 42v28l2 41h-2q-17 -47 -70.5 -91.5t-134.5 -44.5q-89 0 -127 48t-38 147zM327 589
l67 111h60l-79 -111h-48zM212 589l62 111h54l-65 -111h-51z" />
    <glyph glyph-name="Uogonek" unicode="&#x172;" horiz-adv-x="785" 
d="M131 240v420h-95v40h233v-40h-95v-418q0 -98 59 -155.5t159 -57.5t159.5 57.5t59.5 157.5v416h-95v40h233v-40h-95v-420q0 -83 -41 -142.5t-112 -93.5q-20 -10 -52 -43t-32 -70q0 -21 17 -35.5t34 -17.5l17 -4l-11 -38q-4 0 -11 1t-24.5 6.5t-30.5 14.5t-24 27t-11 42
q0 52 55 103q-78 -8 -144.5 16t-109.5 85t-43 149z" />
    <glyph glyph-name="uogonek" unicode="&#x173;" horiz-adv-x="641" 
d="M473 -113q0 62 68 113h-5q-53 0 -53 55v28l2 41h-2q-17 -47 -70.5 -91.5t-134.5 -44.5q-89 0 -127 48t-38 147v278h-95v39h137v-302q0 -30 2 -51.5t9 -45t20 -38.5t36.5 -24.5t55.5 -9.5q90 0 147.5 67.5t57.5 159.5v205h-95v39h137v-440q0 -22 22 -22h60v-38h-5
q-15 0 -50 -37.5t-35 -71.5q0 -21 17 -35.5t34 -17.5l17 -4l-11 -38q-4 0 -11 1t-24.5 6.5t-30.5 14.5t-24 27t-11 42z" />
    <glyph glyph-name="Wcircumflex" unicode="&#x174;" horiz-adv-x="989" 
d="M17 660v40h204v-40h-84l141 -567l7 -38h3q4 20 9 38l174 607h47l174 -607l9 -38h3q3 20 7 38l141 567h-84v40h204v-40h-74l-169 -660h-54l-172 599l-7 38h-3q-2 -20 -7 -38l-172 -599h-54l-169 660h-74zM385 750l80 111h60l80 -111h-53l-56 80h-2l-56 -80h-53z" />
    <glyph glyph-name="wcircumflex" unicode="&#x175;" horiz-adv-x="844" 
d="M9 461v39h192v-39h-81l122 -377l7 -32h2q3 17 8 32l140 414h46l140 -414l8 -32h2q2 17 7 32l122 377h-81v39h192v-39h-66l-154 -461h-42l-141 411l-9 33h-2q-4 -18 -9 -33l-141 -411h-42l-154 461h-66zM315 589l80 111h60l80 -111h-53l-56 80h-2l-56 -80h-53z" />
    <glyph glyph-name="Ycircumflex" unicode="&#x176;" horiz-adv-x="635" 
d="M201 0v40h95v264l-215 356h-71v40h204v-40h-83l172 -287l13 -25h2q7 14 14 25l173 287h-83v40h203v-40h-71l-215 -356v-264h95v-40h-233zM208 750l80 111h60l80 -111h-53l-56 80h-2l-56 -80h-53z" />
    <glyph glyph-name="ycircumflex" unicode="&#x177;" horiz-adv-x="561" 
d="M63 -146q28 -24 62 -24q61 0 99 90l34 82l-182 459h-68v39h193v-39h-79l149 -381l8 -28h2q3 13 9 28l149 381h-79v39h193v-39h-69l-226 -566q-19 -47 -53.5 -76t-79.5 -29q-21 0 -41.5 7t-29.5 13l-10 7zM177 589l80 111h60l80 -111h-53l-56 80h-2l-56 -80h-53z" />
    <glyph glyph-name="Ydieresis" unicode="&#x178;" horiz-adv-x="635" 
d="M201 0v40h95v264l-215 356h-71v40h204v-40h-83l172 -287l13 -25h2q7 14 14 25l173 287h-83v40h203v-40h-71l-215 -356v-264h95v-40h-233zM375 788v73h54v-73h-54zM207 788v73h54v-73h-54z" />
    <glyph glyph-name="Zacute" unicode="&#x179;" horiz-adv-x="612" 
d="M59 0v34l406 593l27 33v2q-18 -2 -38 -2h-348v-118h-42v158h480v-34l-406 -593l-27 -33v-2q18 2 38 2h362v120h42v-160h-494zM280 750l94 111h64l-104 -111h-54z" />
    <glyph glyph-name="zacute" unicode="&#x17a;" horiz-adv-x="506" 
d="M51 34l317 398l25 28v2q-17 -1 -37 -1h-255v-95h-41v134h390v-34l-318 -398l-25 -28v-2q17 1 37 1h265v95h41v-134h-399v34zM227 589l94 111h64l-104 -111h-54z" />
    <glyph glyph-name="Zdotaccent" unicode="&#x17b;" horiz-adv-x="612" 
d="M59 0v34l406 593l27 33v2q-18 -2 -38 -2h-348v-118h-42v158h480v-34l-406 -593l-27 -33v-2q18 2 38 2h362v120h42v-160h-494zM291 788v73h54v-73h-54z" />
    <glyph glyph-name="zdotaccent" unicode="&#x17c;" horiz-adv-x="506" 
d="M51 34l317 398l25 28v2q-17 -1 -37 -1h-255v-95h-41v134h390v-34l-318 -398l-25 -28v-2q17 1 37 1h265v95h41v-134h-399v34zM238 627v73h54v-73h-54z" />
    <glyph glyph-name="Zcaron" unicode="&#x17d;" horiz-adv-x="612" 
d="M59 0v34l406 593l27 33v2q-18 -2 -38 -2h-348v-118h-42v158h480v-34l-406 -593l-27 -33v-2q18 2 38 2h362v120h42v-160h-494zM288 750l-80 111h53l56 -80h2l56 80h53l-80 -111h-60z" />
    <glyph glyph-name="zcaron" unicode="&#x17e;" horiz-adv-x="506" 
d="M51 34l317 398l25 28v2q-17 -1 -37 -1h-255v-95h-41v134h390v-34l-318 -398l-25 -28v-2q17 1 37 1h265v95h41v-134h-399v34zM235 589l-80 111h53l56 -80h2l56 80h53l-80 -111h-60z" />
    <glyph glyph-name="longs" unicode="&#x17f;" horiz-adv-x="286" 
d="M46 0v39h80v422h-85v39h85v27q0 55 16 93t41.5 54.5t47 22.5t43.5 6l36 -3v-39q-13 3 -33 3q-17 0 -33 -4.5t-34.5 -17.5t-30 -42t-11.5 -72v-489h95v-39h-217z" />
    <glyph glyph-name="florin" unicode="&#x192;" horiz-adv-x="438" 
d="M-63 -57q27 -5 62 -5q14 0 28 2.5t32 11.5t31.5 24t24.5 42.5t14 64.5l26 295h-96v38h99l10 111q4 47 19 82.5t34 54.5t43.5 30.5t43 14.5t36.5 3q19 0 39 -2t31 -4l11 -1v-39q-42 7 -82 7q-19 0 -36.5 -5t-39 -18.5t-36.5 -45t-19 -76.5l-11 -112h133v-38h-136l-26 -294
q-5 -58 -25.5 -98t-49.5 -57.5t-52 -23.5t-47 -6l-61 5v39z" />
    <glyph glyph-name="Scommaaccent" unicode="&#x218;" horiz-adv-x="553" 
d="M63 182h44v-51q0 -46 49.5 -74t117.5 -28q77 0 124.5 38t47.5 106q0 37 -13.5 64.5t-43 48t-54.5 32t-70 28.5q-28 11 -39.5 15.5t-36.5 15.5t-36.5 19.5t-29 23.5t-25.5 30.5t-14.5 37.5t-6.5 47q0 83 58 130t145 47q77 0 135 -28t58 -75v-67h-44v53q0 34 -46.5 55
t-102.5 21q-69 0 -113.5 -34.5t-44.5 -96.5q0 -27 10.5 -49.5t22 -36t40.5 -29t43.5 -21.5t53.5 -21q41 -16 60.5 -24.5t51.5 -27t47 -37t27.5 -48.5t12.5 -67q0 -85 -60.5 -138t-156.5 -53q-80 0 -145.5 35t-65.5 98v61zM250 -66h46q7 -17 7 -44q0 -60 -47 -99l-29 21
q33 39 33 74q0 21 -10 48z" />
    <glyph glyph-name="scommaaccent" unicode="&#x219;" horiz-adv-x="460" 
d="M49 106v43h42v-38q0 -40 46 -61t99 -21q55 0 93 24.5t38 66.5q0 18 -8.5 33.5t-17 25t-32.5 22t-34 16.5t-42 16q-7 3 -10 4q-36 14 -57.5 24t-47 27.5t-37.5 41t-12 53.5q0 60 48.5 94.5t113.5 34.5q58 0 109 -25t51 -70v-55h-42v41q0 30 -35 49t-81 19q-50 0 -85 -22.5
t-35 -62.5q0 -18 8.5 -33t18.5 -25t32.5 -21.5t35.5 -17t42 -16.5q38 -15 59.5 -25t49 -28t40 -41.5t12.5 -54.5q0 -61 -49 -98.5t-130 -37.5q-74 0 -128.5 32t-54.5 86zM206 -66h46q7 -17 7 -44q0 -60 -47 -99l-29 21q33 39 33 74q0 21 -10 48z" />
    <glyph glyph-name="uni021A" unicode="&#x21a;" horiz-adv-x="643" 
d="M205 0v40h95v620h-224v-118h-42v158h575v-158h-42v118h-224v-620h95v-40h-233zM297 -66h46q7 -17 7 -44q0 -60 -47 -99l-29 21q33 39 33 74q0 21 -10 48z" />
    <glyph glyph-name="uni021B" unicode="&#x21b;" horiz-adv-x="316" 
d="M112 181v280h-95v39h95v139h42v-139h131v-39h-131v-277q0 -46 12.5 -78t32.5 -46.5t37.5 -19.5t36.5 -5l23 2v-39q-10 -2 -25 -2q-19 0 -37 3t-41 14.5t-40 30.5t-29 54.5t-12 82.5zM193 -66h46q7 -17 7 -44q0 -60 -47 -99l-29 21q33 39 33 74q0 21 -10 48z" />
    <glyph glyph-name="circumflex" unicode="&#x2c6;" horiz-adv-x="508" 
d="M144 750l80 111h60l80 -111h-53l-56 80h-2l-56 -80h-53z" />
    <glyph glyph-name="caron" unicode="&#x2c7;" horiz-adv-x="508" 
d="M224 750l-80 111h53l56 -80h2l56 80h53l-80 -111h-60z" />
    <glyph glyph-name="breve" unicode="&#x2d8;" horiz-adv-x="510" 
d="M255 747q-43 0 -73 25.5t-30 72.5v16h44v-14q0 -30 17 -45t42 -15t42 15.5t17 45.5v13h44v-16q0 -47 -30 -72.5t-73 -25.5z" />
    <glyph glyph-name="dotaccent" unicode="&#x2d9;" horiz-adv-x="510" 
d="M228 788v73h54v-73h-54z" />
    <glyph glyph-name="ring" unicode="&#x2da;" horiz-adv-x="510" 
d="M255 733q-31 0 -52.5 21t-21.5 52q0 32 21.5 53.5t52.5 21.5q32 0 54 -21.5t22 -53.5q0 -31 -22 -52t-54 -21zM255 770q17 0 27 10t10 26q0 18 -10 28.5t-27 10.5q-16 0 -25.5 -10.5t-9.5 -28.5q0 -16 9.5 -26t25.5 -10z" />
    <glyph glyph-name="ogonek" unicode="&#x2db;" horiz-adv-x="509" 
d="M190 -113q0 22 9.5 43.5t23 36.5t27.5 27t24 18l9 5h36v-17q-15 0 -50 -37.5t-35 -71.5q0 -21 17 -35.5t34 -17.5l17 -4l-11 -38q-4 0 -11 1t-24.5 6.5t-30.5 14.5t-24 27t-11 42z" />
    <glyph glyph-name="tilde" unicode="&#x2dc;" horiz-adv-x="509" 
d="M106 753q0 108 84 108q25 0 45 -11.5t30.5 -24.5t24.5 -24.5t28 -11.5q41 0 41 69h44q0 -108 -84 -108q-25 0 -45 11t-30.5 25t-24.5 25t-28 11q-41 0 -41 -69h-44z" />
    <glyph glyph-name="hungarumlaut" unicode="&#x2dd;" horiz-adv-x="509" 
d="M249 750l67 111h60l-79 -111h-48zM134 750l62 111h54l-65 -111h-51z" />
    <glyph glyph-name="uni1E9E" unicode="&#x1e9e;" horiz-adv-x="690" 
d="M42 0v40h95v485q0 73 51 124t124 51h270v-30l-154 -237l-13 -18v-2q43 -5 79 -18t68.5 -35.5t51 -60t18.5 -86.5q0 -99 -70.5 -159t-192.5 -60q-24 0 -46.5 2.5t-33.5 5.5l-11 2v41q37 -11 90 -11q102 0 160.5 46.5t58.5 128.5q0 152 -221 171v27l149 233l15 20v2
q-12 -2 -23 -2h-189q-60 0 -99 -39t-39 -96v-525h-138z" />
    <glyph glyph-name="thinspace" unicode="&#x2009;" horiz-adv-x="281" 
 />
    <glyph glyph-name="endash" unicode="&#x2013;" horiz-adv-x="728" 
d="M126 263v40h476v-40h-476z" />
    <glyph glyph-name="emdash" unicode="&#x2014;" horiz-adv-x="928" 
d="M126 263v40h676v-40h-676z" />
    <glyph glyph-name="quoteleft" unicode="&#x2018;" horiz-adv-x="204" 
d="M58 517l58 191h39l-45 -191h-52z" />
    <glyph glyph-name="quoteright" unicode="&#x2019;" horiz-adv-x="200" 
d="M60 517l45 191h52l-58 -191h-39z" />
    <glyph glyph-name="quotesinglbase" unicode="&#x201a;" horiz-adv-x="234" 
d="M49 -130l45 191h52l-58 -191h-39z" />
    <glyph glyph-name="quotedblleft" unicode="&#x201c;" horiz-adv-x="314" 
d="M155 708l-45 -191h-52l58 191h39zM265 708l-45 -191h-52l58 191h39z" />
    <glyph glyph-name="quotedblright" unicode="&#x201d;" horiz-adv-x="310" 
d="M170 517l45 191h52l-58 -191h-39zM60 517l45 191h52l-58 -191h-39z" />
    <glyph glyph-name="quotedblbase" unicode="&#x201e;" horiz-adv-x="344" 
d="M159 -130l45 191h52l-58 -191h-39zM49 -130l45 191h52l-58 -191h-39z" />
    <glyph glyph-name="dagger" unicode="&#x2020;" horiz-adv-x="374" 
d="M164 -50v510h-114v40h114v200h42v-200h119v-40h-119v-510h-42z" />
    <glyph glyph-name="daggerdbl" unicode="&#x2021;" horiz-adv-x="384" 
d="M54 186v40h114v234h-114v40h114v200h42v-200h119v-40h-119v-234h119v-40h-119v-236h-42v236h-114z" />
    <glyph glyph-name="bullet" unicode="&#x2022;" horiz-adv-x="392" 
d="M196 159q-55 0 -93.5 38.5t-38.5 93.5t38.5 93.5t93.5 38.5t93.5 -38.5t38.5 -93.5t-38.5 -93.5t-93.5 -38.5z" />
    <glyph glyph-name="ellipsis" unicode="&#x2026;" horiz-adv-x="663" 
d="M514 0v63h61v-63h-61zM301 0v63h61v-63h-61zM88 0v63h61v-63h-61z" />
    <glyph glyph-name="perthousand" unicode="&#x2030;" horiz-adv-x="999" 
d="M193 451q-54 0 -92 38t-38 92t38 92.5t92 38.5t92.5 -38.5t38.5 -92.5t-38.5 -92t-92.5 -38zM61 0l531 700h52l-531 -700h-52zM193 491q37 0 62.5 26t25.5 64t-25.5 64.5t-62.5 26.5t-62 -26.5t-25 -64.5t25 -64t62 -26zM699 118q0 54 38 92.5t92 38.5t92.5 -38.5
t38.5 -92.5t-38.5 -92t-92.5 -38t-92 38t-38 92zM379 118q0 54 38 92.5t92 38.5t92.5 -38.5t38.5 -92.5t-38.5 -92t-92.5 -38t-92 38t-38 92zM742 118q0 -38 25 -64t62 -26t62.5 26t25.5 64t-25.5 64.5t-62.5 26.5t-62 -26.5t-25 -64.5zM422 118q0 -38 25 -64t62 -26
t62.5 26t25.5 64t-25.5 64.5t-62.5 26.5t-62 -26.5t-25 -64.5z" />
    <glyph glyph-name="guilsinglleft" unicode="&#x2039;" horiz-adv-x="336" 
d="M218 77l-164 205l164 206h53l-164 -206l164 -205h-53z" />
    <glyph glyph-name="guilsinglright" unicode="&#x203a;" horiz-adv-x="336" 
d="M65 77l164 205l-164 206h53l164 -206l-164 -205h-53z" />
    <glyph glyph-name="fraction" unicode="&#x2044;" horiz-adv-x="149" 
d="M-114 0l336 700h43l-335 -700h-44z" />
    <glyph glyph-name="zerosuperior" unicode="&#x2070;" horiz-adv-x="394" 
d="M197 413q-148 0 -148 227t148 227t148 -227t-148 -227zM197 449q109 0 109 191t-109 191t-109 -191t109 -191z" />
    <glyph glyph-name="foursuperior" unicode="&#x2074;" horiz-adv-x="372" 
d="M238 423v121h-215v26l222 287h31v-277h68v-36h-68v-121h-38zM76 580h162v175l3 41h-2q-9 -18 -22 -34l-141 -180v-2z" />
    <glyph glyph-name="fivesuperior" unicode="&#x2075;" horiz-adv-x="356" 
d="M164 413q-39 0 -71.5 16.5t-45.5 32.5l-13 16l29 23q4 -6 11.5 -14.5t34 -23t55.5 -14.5q47 0 79.5 31t32.5 77q0 44 -33 76t-79 32q-21 0 -41 -6.5t-30 -13.5l-10 -7l-26 10l26 209h207v-93h-38v57h-137l-10 -91l-7 -43h2q27 14 65 14q64 0 107 -42t43 -102t-44 -102
t-107 -42z" />
    <glyph glyph-name="sixsuperior" unicode="&#x2076;" horiz-adv-x="375" 
d="M198 413q-71 0 -111.5 56.5t-40.5 142.5q0 43 10.5 86t31.5 82t58.5 63t85.5 24q20 0 41 -5t31 -10l11 -5l-19 -32q-30 16 -65 16q-60 0 -98 -52t-47 -126h2q17 21 48.5 34.5t61.5 13.5q60 0 99 -38.5t39 -101.5q0 -70 -39.5 -109t-98.5 -39zM198 449q46 0 72.5 32
t26.5 80q0 47 -28 75.5t-72 28.5q-43 0 -76.5 -25t-33.5 -53q0 -48 31.5 -93t79.5 -45z" />
    <glyph glyph-name="sevensuperior" unicode="&#x2077;" horiz-adv-x="336" 
d="M71 423l187 378l14 20v2q-11 -2 -23 -2h-176v-57h-38v93h282v-26l-204 -408h-42z" />
    <glyph glyph-name="eightsuperior" unicode="&#x2078;" horiz-adv-x="382" 
d="M192 413q-59 0 -103 35.5t-44 97.5q0 71 75 120q-56 37 -56 92q0 51 38.5 80t91.5 29t92 -29.5t39 -82.5q0 -61 -59 -120q69 -37 69 -99q0 -51 -41.5 -87t-101.5 -36zM235 651q51 47 51 104q0 36 -27.5 56t-65.5 20q-37 0 -63.5 -19t-26.5 -54q0 -14 6 -26.5t13.5 -21
t23.5 -17.5t26 -14t32 -14.5t31 -13.5zM192 449q40 0 72 25t32 61q0 18 -8 32.5t-25.5 26t-32 19t-41 19t-39.5 17.5q-66 -44 -66 -103q0 -44 32.5 -70.5t75.5 -26.5z" />
    <glyph glyph-name="ninesuperior" unicode="&#x2079;" horiz-adv-x="375" 
d="M145 413q-22 0 -43 5t-32 10l-10 5l19 32q29 -16 66 -16q59 0 97 52t47 126h-2q-41 -48 -114 -48q-58 0 -96 39.5t-38 104.5q0 66 40 105t98 39q71 0 111.5 -56.5t40.5 -143.5q0 -59 -17.5 -114.5t-61 -97.5t-105.5 -42zM179 615q44 0 76.5 25t32.5 63q0 40 -32.5 84
t-82.5 44q-43 0 -69 -32t-26 -80t28 -76t73 -28z" />
    <glyph glyph-name="zeroinferior" unicode="&#x2080;" horiz-adv-x="394" 
d="M197 -167q-148 0 -148 227t148 227t148 -227t-148 -227zM197 -131q109 0 109 191t-109 191t-109 -191t109 -191z" />
    <glyph glyph-name="oneinferior" unicode="&#x2081;" horiz-adv-x="304" 
d="M37 -157v36h106v315l2 31h-1q-5 -8 -17 -19l-61 -60l-26 27l103 104h38v-398h103v-36h-247z" />
    <glyph glyph-name="twoinferior" unicode="&#x2082;" horiz-adv-x="353" 
d="M38 -125q0 42 23 76t55 57t64.5 44.5t55.5 50t23 61.5q0 36 -25.5 61.5t-65.5 25.5q-25 0 -48.5 -12.5t-34.5 -24.5l-11 -13l-24 26q5 7 14 17t39.5 26.5t64.5 16.5q62 0 96 -35.5t34 -87.5q0 -41 -22.5 -73.5t-54.5 -54.5t-64.5 -42.5t-55.5 -49.5t-24 -65h192v57h38
v-93h-267q-2 19 -2 32z" />
    <glyph glyph-name="threeinferior" unicode="&#x2083;" horiz-adv-x="361" 
d="M55 183v93h257v-26l-129 -151q50 -4 91 -35.5t41 -94.5q0 -57 -42.5 -97t-100.5 -40q-27 0 -51 6.5t-39 16.5t-26.5 19.5t-16.5 15.5l-5 7l28 26q4 -6 12 -15t36.5 -24.5t62.5 -15.5q39 0 71 29.5t32 71.5q0 43 -32.5 69.5t-74.5 26.5h-32l-11 24l113 133l20 19v2
q-11 -3 -27 -3h-139v-57h-38z" />
    <glyph glyph-name="fourinferior" unicode="&#x2084;" horiz-adv-x="374" 
d="M239 -157v121h-215v26l222 287h31v-277h68v-36h-68v-121h-38zM77 0h162v175l3 41h-2q-9 -18 -22 -34l-141 -180v-2z" />
    <glyph glyph-name="fiveinferior" unicode="&#x2085;" horiz-adv-x="356" 
d="M164 -167q-39 0 -71.5 16.5t-45.5 32.5l-13 16l29 23q4 -6 11.5 -14.5t34 -23t55.5 -14.5q47 0 79.5 31t32.5 77q0 44 -33 76t-79 32q-21 0 -41 -6.5t-30 -13.5l-10 -7l-26 10l26 209h207v-93h-38v57h-137l-10 -91l-7 -43h2q27 14 65 14q64 0 107 -42t43 -102t-44 -102
t-107 -42z" />
    <glyph glyph-name="sixinferior" unicode="&#x2086;" horiz-adv-x="376" 
d="M198 -167q-71 0 -111.5 56.5t-40.5 142.5q0 43 10.5 86t31.5 82t58.5 63t85.5 24q20 0 41 -5t31 -10l11 -5l-19 -32q-30 16 -65 16q-60 0 -98 -52t-47 -126h2q17 21 48.5 34.5t61.5 13.5q60 0 99 -38.5t39 -101.5q0 -70 -39.5 -109t-98.5 -39zM198 -131q46 0 72.5 32
t26.5 80q0 47 -28 75.5t-72 28.5q-43 0 -76.5 -25t-33.5 -53q0 -48 31.5 -93t79.5 -45z" />
    <glyph glyph-name="seveninferior" unicode="&#x2087;" horiz-adv-x="336" 
d="M70 -158l187 378l14 20v2q-11 -2 -23 -2h-176v-57h-38v93h282v-26l-204 -408h-42z" />
    <glyph glyph-name="eightinferior" unicode="&#x2088;" horiz-adv-x="381" 
d="M192 -166q-59 0 -103 35.5t-44 97.5q0 71 75 120q-56 37 -56 92q0 51 38.5 80t91.5 29t92 -29.5t39 -82.5q0 -61 -59 -120q69 -37 69 -99q0 -51 -41.5 -87t-101.5 -36zM235 72q51 47 51 104q0 36 -27.5 56t-65.5 20q-37 0 -63.5 -19t-26.5 -54q0 -14 6 -26.5t13.5 -21
t23.5 -17.5t26 -14t32 -14.5t31 -13.5zM192 -130q40 0 72 25t32 61q0 18 -8 32.5t-25.5 26t-32 19t-41 19t-39.5 17.5q-66 -44 -66 -103q0 -44 32.5 -70.5t75.5 -26.5z" />
    <glyph glyph-name="nineinferior" unicode="&#x2089;" horiz-adv-x="375" 
d="M145 -167q-22 0 -43 5t-32 10l-10 5l19 32q29 -16 66 -16q59 0 97 52t47 126h-2q-41 -48 -114 -48q-58 0 -96 39.5t-38 104.5q0 66 40 105t98 39q71 0 111.5 -56.5t40.5 -143.5q0 -59 -17.5 -114.5t-61 -97.5t-105.5 -42zM179 35q44 0 76.5 25t32.5 63q0 40 -32.5 84
t-82.5 44q-43 0 -69 -32t-26 -80t28 -76t73 -28z" />
    <glyph glyph-name="Euro" unicode="&#x20ac;" horiz-adv-x="593" 
d="M50 263v40h54q-2 17 -2 52.5t3 56.5h-55v40h62q28 115 118.5 187.5t212.5 72.5q23 0 45.5 -3t33.5 -5l10 -3l-10 -42q-36 11 -79 11q-106 0 -182 -60t-103 -158h327l-8 -40h-327q-7 -49 -2 -109h310l-7 -40h-297q23 -104 101 -168.5t188 -64.5q23 0 45 3t32 7l11 3
l12 -41q-43 -14 -100 -14q-126 0 -218 77t-116 198h-59z" />
    <glyph glyph-name="trademark" unicode="&#x2122;" horiz-adv-x="935" 
d="M432 264l35 436h35l126 -270l14 -40h2q5 20 14 40l126 270h35l35 -436h-38l-28 328l1 28h-2l-127 -274h-34l-127 274h-2l1 -28l-28 -328h-38zM191 264v398h-160v38h360v-38h-161v-398h-39z" />
    <glyph glyph-name="minus" unicode="&#x2212;" horiz-adv-x="600" 
d="M52 263v40h496v-40h-496z" />
    <glyph glyph-name="infinity" unicode="&#x221e;" horiz-adv-x="460" 
d="M230 184q-68 0 -116.5 48.5t-48.5 116.5t48.5 116t116.5 48t116 -48t48 -116t-48 -116.5t-116 -48.5z" />
    <glyph glyph-name="approxequal" unicode="&#x2248;" horiz-adv-x="600" 
d="M85 321l-25 30q64 66 141 66q50 0 107.5 -35t90.5 -35q60 0 116 56l25 -30q-64 -66 -141 -66q-50 0 -107.5 35t-90.5 35q-60 0 -116 -56zM85 161l-25 30q64 66 141 66q50 0 107.5 -35t90.5 -35q60 0 116 56l25 -30q-64 -66 -141 -66q-50 0 -107.5 35t-90.5 35
q-60 0 -116 -56z" />
    <glyph glyph-name="notequal" unicode="&#x2260;" horiz-adv-x="600" 
d="M130 92l68 91h-126v40h156l91 120h-247v40h277l90 119l33 -25l-71 -94h127v-40h-157l-91 -120h248v-40h-278l-87 -116z" />
    <glyph glyph-name="lessequal" unicode="&#x2264;" horiz-adv-x="600" 
d="M66 265v36l439 197v-48l-377 -166v-2l377 -166v-48zM66 -113h439v-40h-439v40z" />
    <glyph glyph-name="greaterequal" unicode="&#x2265;" horiz-adv-x="600" 
d="M95 68v48l377 166v2l-377 166v48l439 -197v-36zM94 -113h439v-40h-439v40z" />
    <glyph glyph-name="commaaccent" horiz-adv-x="335" 
d="M143 -66h46q7 -17 7 -44q0 -60 -47 -99l-29 21q33 39 33 74q0 21 -10 48z" />
    <glyph glyph-name="apple" horiz-adv-x="1130" 
d="M168 -5v152l-126 72v278l126 71v151l265 142l134 -71l132 71l265 -142v-151l124 -71v-278l-124 -72v-152l-265 -141l-132 71l-134 -71zM208 30l238 -126l121 66l118 -66l238 126v139l114 64v249l-114 66v136l-238 126l-118 -64l-121 64l-238 -126v-136l-114 -66v-249
l114 -64v-139zM242 64v121l-99 60v225l99 58v123l215 114l110 -59l107 59l214 -114v-123l100 -58v-225l-100 -60v-121l-214 -114l-107 58l-110 -58zM447 91h43v228h228v40h-228v192h199q17 0 23 -6.5t6 -22.5v-42h42v54q0 30 -13 43.5t-45 13.5h-320v-40h65v-460z" />
    <glyph glyph-name="zero.tnum" 
d="M278 -12q-236 0 -236 362t236 362t236 -362t-236 -362zM278 29q54 0 92.5 24t59.5 69t30 100.5t9 127.5q0 321 -191 321t-191 -321q0 -72 9 -127.5t30 -100.5t59.5 -69t92.5 -24z" />
    <glyph glyph-name="one.tnum" 
d="M113 0v40h159v570l1 35h-2q-7 -13 -37 -43l-83 -83l-30 29l151 152h43v-660h155v-40h-357z" />
    <glyph glyph-name="two.tnum" 
d="M53 0q-3 20 -3 37q0 49 20.5 91.5t53.5 73.5t72.5 59.5t79.5 56t73 56t53.5 66t20.5 80.5q0 65 -44.5 108t-118.5 43q-31 0 -60 -10.5t-48.5 -25.5t-34 -29.5t-21.5 -25.5l-6 -10l-32 22q3 5 8 13t23.5 28.5t39.5 36.5t57 29t75 13q98 0 152.5 -56t54.5 -136
q0 -56 -27.5 -104t-69 -80t-89.5 -66.5t-89.5 -64.5t-69 -73t-27.5 -92h366v101h42v-141h-451z" />
    <glyph glyph-name="three.tnum" 
d="M83 559v141h402v-30l-226 -261q27 0 56 -5t61 -20t57 -37.5t41 -60t16 -84.5q0 -89 -65.5 -151.5t-156.5 -62.5q-37 0 -73.5 10t-61.5 24t-44.5 28.5t-28.5 24.5l-10 10l32 32q3 -4 8.5 -9.5t24.5 -21t39.5 -27t52 -21t63.5 -9.5q69 0 122 49t53 124q0 78 -55.5 122.5
t-131.5 44.5l-47 -2l-13 32l206 241l22 20v2q-19 -2 -30 -2h-271v-101h-42z" />
    <glyph glyph-name="four.tnum" 
d="M20 200v30l363 470h40v-460h104v-40h-104v-200h-43v200h-360zM359 600l-279 -358v-2h300v353l3 39h-2q-10 -17 -22 -32z" />
    <glyph glyph-name="five.tnum" 
d="M55 79l33 29q2 -3 6.5 -8.5t19.5 -19t33 -24t47 -19t61 -8.5q81 0 137.5 54.5t56.5 127.5q0 85 -54 136.5t-137 51.5q-36 0 -70.5 -10.5t-51.5 -21.5l-17 -11l-32 11l40 333h325v-141h-42v101h-245l-27 -224l-6 -28h2q52 32 126 32q98 0 166 -64.5t68 -158.5
q0 -95 -70 -162t-170 -67q-60 0 -109.5 23t-69.5 45z" />
    <glyph glyph-name="six.tnum" 
d="M298 -12q-113 0 -179 94t-66 233q0 68 17.5 135t51.5 127t94.5 97.5t137.5 37.5q32 0 62.5 -7t45.5 -14l14 -7l-21 -39q-43 26 -103 26q-59 0 -107 -28.5t-78 -75.5t-47.5 -103t-21.5 -116h2q29 44 82.5 70t115.5 26q94 0 154.5 -61t60.5 -162q0 -109 -62 -171t-153 -62z
M102 263q0 -81 56 -157.5t139 -76.5q79 0 125 53.5t46 138.5q0 83 -47.5 132.5t-124.5 49.5q-78 0 -136 -45t-58 -95z" />
    <glyph glyph-name="seven.tnum" 
d="M142 0l310 632l17 28v2q-15 -2 -33 -2h-334v-101h-42v141h459v-30l-332 -670h-45z" />
    <glyph glyph-name="eight.tnum" 
d="M48 196q0 44 15.5 82.5t40.5 63.5t38.5 36t26.5 19q-93 56 -93 143q0 72 54.5 122t152.5 50q95 0 151 -49t56 -128q0 -48 -23 -97t-40 -70t-28 -30q106 -58 106 -151q0 -83 -65.5 -141t-159.5 -58q-93 0 -162.5 57t-69.5 151zM121 541q0 -25 11 -46.5t25.5 -36t42 -30.5
t47.5 -24.5t56 -23.5t55 -23q11 9 28 29t38 63t21 84q0 64 -45.5 101t-117.5 37q-74 0 -117.5 -37.5t-43.5 -92.5zM93 198q0 -74 56 -121.5t129 -47.5q70 0 126 44.5t56 108.5q0 31 -12.5 55.5t-41.5 44t-53 31.5t-71.5 31.5t-72.5 31.5q-116 -72 -116 -178z" />
    <glyph glyph-name="nine.tnum" 
d="M42 479q0 109 62 171t153 62q113 0 179 -94t66 -233q0 -68 -17.5 -135t-51.5 -127t-94.5 -97.5t-137.5 -37.5q-32 0 -62.5 7t-44.5 14l-15 7l21 39q43 -26 103 -26q59 0 107 28.5t78 75.5t47.5 103t21.5 116h-2q-29 -42 -83 -67.5t-115 -25.5q-93 0 -154 60.5t-61 159.5z
M87 479q0 -81 48 -130t124 -49q78 0 136 43.5t58 93.5q0 81 -56 157.5t-139 76.5q-79 0 -125 -53.5t-46 -138.5z" />
    <glyph glyph-name="hyphen.case" horiz-adv-x="516" 
d="M120 329v40h276v-40h-276z" />
    <glyph glyph-name="parenleft.case" horiz-adv-x="288" 
d="M190 -65q-110 192 -110 430q0 208 110 390h44q-113 -190 -113 -391q0 -231 113 -429h-44z" />
    <glyph glyph-name="parenright.case" horiz-adv-x="288" 
d="M54 -65q113 198 113 429q0 201 -113 391h44q110 -182 110 -390q0 -238 -110 -430h-44z" />
    <glyph glyph-name="bracketleft.case" horiz-adv-x="279" 
d="M107 -65v820h108v-40h-65v-740h65v-40h-108z" />
    <glyph glyph-name="bracketright.case" horiz-adv-x="279" 
d="M64 -25h65v740h-65v40h108v-820h-108v40z" />
    <glyph glyph-name="braceleft.case" horiz-adv-x="306" 
d="M124 118v94q0 30 -9 53.5t-21 35t-24.5 19t-21.5 9.5l-9 2v40q3 0 9 1.5t20.5 9.5t26 19.5t20.5 35t9 53.5v81q0 59 16 99.5t41 56.5t43 21.5t36 5.5h9v-39h-6q-13 0 -25.5 -4t-30.5 -17t-29 -44.5t-11 -77.5v-93q0 -27 -8 -50t-19.5 -36.5t-23.5 -23.5t-20 -13l-8 -4v-2
q3 -1 8.5 -3.5t19 -12.5t24 -22.5t19 -36.5t8.5 -52v-106q0 -46 11 -77.5t29 -44.5t30.5 -17t25.5 -4h6v-39q-3 -1 -9 -1q-13 0 -26.5 2.5t-34.5 13.5t-36.5 29t-27 54.5t-11.5 84.5z" />
    <glyph glyph-name="braceright.case" horiz-adv-x="306" 
d="M37 -26h6q13 0 25.5 4t30.5 17t29 44.5t11 77.5v106q0 28 8 51.5t19.5 37t23.5 22.5t20 12l8 4v2q-3 1 -8.5 3.5t-19 13t-24 23.5t-19 36.5t-8.5 50.5v93q0 46 -11 77.5t-29 44.5t-30.5 17t-25.5 4h-6v39h9q18 0 36 -5.5t43 -21.5t41 -56.5t16 -99.5v-81q0 -30 9 -53.5
t21 -35t24.5 -19t21.5 -9.5l9 -2v-40q-3 0 -9 -1.5t-20.5 -9.5t-26 -19.5t-20.5 -35t-9 -53.5v-94q0 -48 -11.5 -84.5t-27 -54.5t-36.5 -29t-34.5 -13.5t-26.5 -2.5l-9 1v39z" />
    <glyph glyph-name="at.case" horiz-adv-x="738" 
d="M52 350q0 151 102 258t244 107q120 0 176 -51t56 -126v-344h70v-40h-265q-80 0 -136.5 57t-56.5 137q0 81 56.5 138.5t136.5 57.5h150q-3 57 -46 94t-135 37q-129 0 -218 -94.5t-89 -230.5t88.5 -229.5t218.5 -93.5v-42q-146 0 -249 106.5t-103 258.5zM287 348
q0 -64 44.5 -109t108.5 -45h145v310h-143q-65 0 -110 -46t-45 -110z" />
    <glyph glyph-name="guillemotleft.case" horiz-adv-x="497" 
d="M378 137l-164 205l164 206h53l-164 -206l164 -205h-53zM218 137l-164 205l164 206h53l-164 -206l164 -205h-53z" />
    <glyph glyph-name="guillemotright.case" horiz-adv-x="497" 
d="M226 137l164 205l-164 206h53l164 -206l-164 -205h-53zM66 137l164 205l-164 206h53l164 -206l-164 -205h-53z" />
    <glyph glyph-name="guilsinglleft.case" horiz-adv-x="337" 
d="M218 137l-164 205l164 206h53l-164 -206l164 -205h-53z" />
    <glyph glyph-name="guilsinglright.case" horiz-adv-x="337" 
d="M66 137l164 205l-164 206h53l164 -206l-164 -205h-53z" />
    <glyph glyph-name="endash.case" horiz-adv-x="718" 
d="M121 323v40h476v-40h-476z" />
    <glyph glyph-name="emdash.case" horiz-adv-x="918" 
d="M121 323v40h676v-40h-676z" />
    <glyph glyph-name="periodcentered.case" horiz-adv-x="271" 
d="M105 315v63h61v-63h-61z" />
    <glyph glyph-name="questiondown.case" horiz-adv-x="426" 
d="M214 639v61h59v-61h-59zM41 160q0 39 13.5 71.5t33.5 53.5t43.5 44t43.5 42t33.5 48t13.5 62v44h43v-44q0 -45 -18.5 -82.5t-44.5 -63.5t-52.5 -50.5t-45 -56.5t-18.5 -69q0 -55 41 -92t105 -37q32 0 64 10.5t48 21.5l15 10l23 -34q-7 -6 -19 -14t-51 -22t-79 -14
q-85 0 -138.5 49t-53.5 123z" />
    <glyph glyph-name="exclamdown.case" horiz-adv-x="271" 
d="M105 639v61h59v-61h-59zM114 0v525h43v-525h-43z" />
    <glyph glyph-name="bullet.case" horiz-adv-x="390" 
d="M195 219q-55 0 -93.5 38.5t-38.5 93.5t38.5 93.5t93.5 38.5t93.5 -38.5t38.5 -93.5t-38.5 -93.5t-93.5 -38.5z" />
    <glyph glyph-name="zero.p_osf" horiz-adv-x="596" 
d="M68 268q0 115 61 199.5t169 84.5t169 -84.5t61 -199.5q0 -114 -60.5 -197t-169.5 -83t-169.5 83t-60.5 197zM112 270q0 -98 49 -169.5t137 -71.5t137 71.5t49 169.5t-49 169.5t-137 71.5t-137 -71.5t-49 -169.5z" />
    <glyph glyph-name="one.p_osf" horiz-adv-x="430" 
d="M65 0v39h159v409l1 48h-2q-16 -12 -39 -26l-117 -71l-20 31l177 110h42v-501h140v-39h-341z" />
    <glyph glyph-name="two.p_osf" horiz-adv-x="532" 
d="M69 0v32q186 126 260.5 202t74.5 150q0 63 -42.5 95t-108.5 32q-42 0 -82.5 -19.5t-60.5 -39.5l-20 -20l-27 30q3 4 8.5 10t25 21.5t40.5 27.5t53.5 21.5t66.5 9.5q94 0 142.5 -50t48.5 -113q0 -85 -70 -164.5t-235 -185.5v-2q19 2 54 2h277v-39h-405z" />
    <glyph glyph-name="three.p_osf" horiz-adv-x="504" 
d="M27 -37l32 29q2 -3 7 -8.5t21 -19t34 -24t47.5 -19t60.5 -8.5q69 0 121.5 44t52.5 116q0 74 -55 113.5t-133 39.5l-46 -3l-13 35l201 223l22 20v2q-19 -2 -30 -2h-247v-95h-41v134h381v-28l-226 -245q36 0 72 -8.5t74 -28t61.5 -60.5t23.5 -97q0 -90 -64.5 -145.5
t-155.5 -55.5q-58 0 -108 23t-71 45z" />
    <glyph glyph-name="four.p_osf" horiz-adv-x="562" 
d="M27 41v29l348 470h38v-460h113v-39h-113v-157h-42v157h-344zM83 80h288v350l2 39h-2q-10 -17 -21 -32z" />
    <glyph glyph-name="five.p_osf" horiz-adv-x="511" 
d="M32 -34l34 24q2 -3 6 -7.5t18.5 -15.5t31.5 -20t44 -16t57 -7q78 0 134.5 45.5t56.5 124.5q0 77 -55.5 121t-130.5 44q-34 0 -68 -9.5t-50 -19.5l-17 -9l-31 10l40 309h318v-134h-41v95h-240l-24 -189l-7 -40h2q51 28 123 28q92 0 158.5 -53.5t66.5 -151.5
q0 -96 -67 -154t-167 -58q-37 0 -70.5 8.5t-55 20.5t-37 24.5t-22.5 21.5z" />
    <glyph glyph-name="six.p_osf" horiz-adv-x="576" 
d="M63 286q0 65 17.5 129.5t51.5 122.5t94 94t137 36q32 0 62.5 -6.5t44.5 -13.5l15 -6l-21 -38q-43 23 -103 23q-114 0 -180.5 -92t-74.5 -217h2q29 46 82.5 71t116.5 25q94 0 154.5 -56.5t60.5 -150.5q0 -103 -62 -161t-153 -58q-112 0 -178 85.5t-66 212.5zM111 242
q0 -75 56 -144t139 -69q80 0 126 49.5t46 128.5q0 76 -48 121t-125 45q-78 0 -136 -42t-58 -89z" />
    <glyph glyph-name="seven.p_osf" horiz-adv-x="500" 
d="M110 -116l296 589l17 28v2q-15 -2 -33 -2h-305v-95h-41v134h429v-28l-317 -628h-46z" />
    <glyph glyph-name="eight.p_osf" horiz-adv-x="574" 
d="M62 187q0 38 15 72t39.5 57.5t39 34.5t28.5 20q-94 54 -94 137q0 66 53 113.5t147 47.5t149 -46t55 -120q0 -46 -24.5 -92.5t-40.5 -63.5t-29 -28q109 -55 109 -144q0 -77 -64.5 -132t-156.5 -55q-91 0 -158.5 53.5t-67.5 145.5zM134 508q0 -23 10.5 -43t24 -33.5
t40.5 -28t46 -22.5t54 -22t52 -21q13 9 29.5 26.5t38 58t21.5 80.5q0 57 -45 91t-115 34t-113 -34.5t-43 -85.5zM106 187q0 -71 54.5 -114.5t127.5 -43.5q69 0 123 41.5t54 103.5q0 28 -13 50.5t-42 40.5t-52.5 29.5t-67.5 28.5t-65 27q-13 -6 -28 -16.5t-38 -31t-38 -51
t-15 -64.5z" />
    <glyph glyph-name="nine.p_osf" horiz-adv-x="568" 
d="M104 -64q43 -23 103 -23q114 0 180.5 92t74.5 217h-2q-29 -46 -82.5 -71t-116.5 -25q-94 0 -154.5 56.5t-60.5 150.5q0 103 62 161t153 58q112 0 178 -85.5t66 -212.5q0 -65 -17.5 -129.5t-51.5 -122.5t-94 -94t-137 -36q-32 0 -62.5 6.5t-44.5 13.5l-15 6zM263 167
q78 0 136 42t58 89q0 75 -56 144t-139 69q-80 0 -126 -49.5t-46 -128.5q0 -76 48 -121t125 -45z" />
    <glyph glyph-name="zero.t_osf" 
d="M48 268q0 115 61 199.5t169 84.5t169 -84.5t61 -199.5q0 -114 -60.5 -197t-169.5 -83t-169.5 83t-60.5 197zM92 270q0 -98 49 -169.5t137 -71.5t137 71.5t49 169.5t-49 169.5t-137 71.5t-137 -71.5t-49 -169.5z" />
    <glyph glyph-name="one.t_osf" 
d="M127 0v39h159v409l1 48h-2q-16 -12 -39 -26l-117 -71l-20 31l177 110h42v-501h140v-39h-341z" />
    <glyph glyph-name="two.t_osf" 
d="M80 0v32q186 126 260.5 202t74.5 150q0 63 -42.5 95t-108.5 32q-42 0 -82.5 -19.5t-60.5 -39.5l-20 -20l-27 30q3 4 8.5 10t25 21.5t40.5 27.5t53.5 21.5t66.5 9.5q94 0 142.5 -50t48.5 -113q0 -85 -70 -164.5t-235 -185.5v-2q19 2 54 2h277v-39h-405z" />
    <glyph glyph-name="three.t_osf" 
d="M53 -37l32 29q2 -3 7 -8.5t21 -19t34 -24t47.5 -19t60.5 -8.5q69 0 121.5 44t52.5 116q0 74 -55 113.5t-133 39.5l-46 -3l-13 35l201 223l22 20v2q-19 -2 -30 -2h-247v-95h-41v134h381v-28l-226 -245q36 0 72 -8.5t74 -28t61.5 -60.5t23.5 -97q0 -90 -64.5 -145.5
t-155.5 -55.5q-58 0 -108 23t-71 45z" />
    <glyph glyph-name="four.t_osf" 
d="M24 41v29l348 470h38v-460h113v-39h-113v-157h-42v157h-344zM80 80h288v350l2 39h-2q-10 -17 -21 -32z" />
    <glyph glyph-name="five.t_osf" 
d="M55 -34l34 24q2 -3 6 -7.5t18.5 -15.5t31.5 -20t44 -16t57 -7q78 0 134.5 45.5t56.5 124.5q0 77 -55.5 121t-130.5 44q-34 0 -68 -9.5t-51 -19.5l-16 -9l-31 10l40 309h318v-134h-41v95h-240l-24 -189l-7 -40h2q51 28 123 28q92 0 158.5 -53.5t66.5 -151.5
q0 -96 -67 -154t-167 -58q-37 0 -70.5 8.5t-55 20.5t-37 24.5t-22.5 21.5z" />
    <glyph glyph-name="six.t_osf" 
d="M53 286q0 65 17.5 129.5t51.5 122.5t94 94t137 36q32 0 62.5 -6.5t44.5 -13.5l15 -6l-21 -38q-43 23 -103 23q-114 0 -180.5 -92t-74.5 -217h2q29 46 82.5 71t116.5 25q94 0 154.5 -56.5t60.5 -150.5q0 -103 -62 -161t-153 -58q-112 0 -178 85.5t-66 212.5zM101 242
q0 -75 56 -144t139 -69q80 0 126 49.5t46 128.5q0 76 -48 121t-125 45q-78 0 -136 -42t-58 -89z" />
    <glyph glyph-name="seven.t_osf" 
d="M138 -116l296 589l17 28v2q-15 -2 -33 -2h-305v-95h-41v134h429v-28l-317 -628h-46z" />
    <glyph glyph-name="eight.t_osf" 
d="M53 187q0 38 15 72t39.5 57.5t39 34.5t28.5 20q-94 54 -94 137q0 66 53 113.5t147 47.5t149 -46t55 -120q0 -46 -24.5 -92.5t-40.5 -63.5t-29 -28q109 -55 109 -144q0 -77 -64.5 -132t-156.5 -55q-91 0 -158.5 53.5t-67.5 145.5zM125 508q0 -23 10.5 -43t24 -33.5
t40.5 -28t46 -22.5t54 -22t52 -21q13 9 29.5 26.5t38 58t21.5 80.5q0 57 -45 91t-115 34t-113 -34.5t-43 -85.5zM97 187q0 -71 54.5 -114.5t127.5 -43.5q69 0 123 41.5t54 103.5q0 28 -13 50.5t-42 40.5t-52.5 29.5t-67.5 28.5t-65 27q-13 -6 -28 -16.5t-38 -31t-38 -51
t-15 -64.5z" />
    <glyph glyph-name="nine.t_osf" 
d="M98 -64q43 -23 103 -23q114 0 180.5 92t74.5 217h-2q-29 -46 -82.5 -71t-116.5 -25q-94 0 -154.5 56.5t-60.5 150.5q0 103 62 161t153 58q112 0 178 -85.5t66 -212.5q0 -65 -17.5 -129.5t-51.5 -122.5t-94 -94t-137 -36q-32 0 -62.5 6.5t-44.5 13.5l-15 6zM257 167
q78 0 136 42t58 89q0 75 -56 144t-139 69q-80 0 -126 -49.5t-46 -128.5q0 -76 48 -121t125 -45z" />
    <glyph glyph-name="dollar.osf" horiz-adv-x="467" 
d="M36 90l30 31q3 -3 8 -8.5t22.5 -20t36.5 -25t48.5 -19.5t59.5 -9q58 0 98.5 29.5t40.5 79.5q0 42 -33 68.5t-80.5 42t-95 32.5t-80.5 52.5t-33 89.5q0 67 45 101t116 40v94h43v-94q44 -4 80.5 -18t51.5 -26l14 -12l-23 -32q-6 5 -17.5 13t-50.5 21.5t-82 13.5
q-57 0 -95 -24t-38 -75q0 -44 33 -72.5t80.5 -44.5t95 -32.5t80.5 -50t33 -85.5q0 -65 -47.5 -106.5t-121.5 -44.5v-103h-43v104q-29 3 -58 13.5t-49.5 23.5t-36.5 25t-24 20z" />
    <glyph glyph-name="cent.osf" horiz-adv-x="516" 
d="M36 298q0 100 62.5 165t157.5 74v87h43v-86q49 -3 91.5 -22t59.5 -37l18 -18l-22 -35q-2 3 -6.5 8t-19.5 17t-32.5 21.5t-45.5 17.5t-58 8q-85 0 -144.5 -55.5t-59.5 -144.5t59.5 -144.5t144.5 -55.5q30 0 57.5 7.5t46 18t32 21t20.5 17.5l6 8l22 -35q-2 -3 -7 -8
t-21 -17.5t-34 -22.5t-47 -19t-60 -11v-82h-43v83q-95 9 -157.5 74.5t-62.5 165.5z" />
    <glyph glyph-name="sterling.osf" horiz-adv-x="568" 
d="M45 0v39h90v209h-70v39h70v121q0 75 56.5 126t144.5 51q42 0 81.5 -12.5t57.5 -25.5l18 -13l-29 -33q-6 5 -17 12t-44.5 19t-67.5 12q-74 0 -116 -40.5t-42 -99.5v-117h243v-39h-243v-209h351v-39h-483z" />
    <glyph glyph-name="yen.osf" horiz-adv-x="548" 
d="M85 277v40h114l-159 258h49l141 -232l43 -76h2q22 42 43 76l141 232h49l-158 -258h111v-40h-136l-29 -48v-32h165v-40h-165v-157h-43v157h-168v40h168v32l-30 48h-138z" />
    <glyph glyph-name="florin.osf" horiz-adv-x="552" 
d="M-15 -84q27 -5 62 -5q19 0 36.5 5t39 18.5t36.5 45t19 76.5l24 275h-96v38h99l10 115q5 58 25.5 98t49.5 57t52.5 23.5t47.5 6.5q19 0 39 -1.5t31 -3.5l11 -2v-39q-42 7 -82 7q-19 0 -36.5 -5t-39 -18.5t-36.5 -45t-19 -76.5l-11 -116h133v-38h-136l-24 -274
q-5 -58 -25.5 -98t-49.5 -57.5t-52 -23.5t-47 -6l-61 5v39z" />
    <glyph glyph-name="Euro.osf" horiz-adv-x="568" 
d="M46 198v40h66q-6 35 -2 93h-64v40h72q25 94 102 154t200 60q22 0 45 -3t35 -6l12 -3l-11 -41q-40 11 -81 11q-101 0 -165.5 -48t-89.5 -124h301l-9 -40h-302q-7 -52 1 -93h283l-9 -40h-264q25 -75 90 -121.5t164 -46.5q23 0 45 3t33 7l10 3l12 -41q-43 -14 -100 -14
q-118 0 -195 58.5t-104 151.5h-75z" />
    <glyph glyph-name="zero.numerator" horiz-adv-x="394" 
d="M197 256q-148 0 -148 227t148 227t148 -227t-148 -227zM197 292q109 0 109 191t-109 191t-109 -191t109 -191z" />
    <glyph glyph-name="one.numerator" horiz-adv-x="304" 
d="M37 266v36h106v315l2 31h-1q-5 -8 -17 -19l-61 -60l-26 27l103 104h38v-398h103v-36h-247z" />
    <glyph glyph-name="two.numerator" horiz-adv-x="353" 
d="M38 298q0 42 23 76t55 57t64.5 44.5t55.5 50t23 61.5q0 36 -25.5 61.5t-65.5 25.5q-25 0 -48.5 -12.5t-34.5 -25.5l-11 -12l-24 26q5 7 14 17t39.5 26.5t64.5 16.5q62 0 96 -35.5t34 -87.5q0 -41 -22.5 -73.5t-54.5 -54.5t-64.5 -42.5t-55.5 -49.5t-24 -65h192v57h38v-93
h-267q-2 19 -2 32z" />
    <glyph glyph-name="three.numerator" horiz-adv-x="360" 
d="M54 607v93h257v-26l-129 -151q50 -4 91 -35.5t41 -94.5q0 -57 -42.5 -97t-100.5 -40q-27 0 -51 6.5t-39 16t-26.5 19.5t-16.5 16l-5 7l28 26q4 -6 12 -15t36.5 -24.5t62.5 -15.5q39 0 71 29.5t32 71.5q0 43 -32.5 69.5t-74.5 26.5h-32l-11 24l113 133l20 19v2
q-11 -3 -27 -3h-139v-57h-38z" />
    <glyph glyph-name="four.numerator" horiz-adv-x="374" 
d="M239 266v121h-215v26l222 287h31v-277h68v-36h-68v-121h-38zM77 423h162v175l3 41h-2q-9 -18 -22 -34l-141 -180v-2z" />
    <glyph glyph-name="five.numerator" horiz-adv-x="356" 
d="M164 256q-24 0 -46.5 6.5t-37 16t-25.5 19.5t-16 16l-5 7l29 23q4 -6 11.5 -14.5t34 -23t55.5 -14.5q47 0 79.5 31t32.5 77q0 44 -33 76t-79 32q-21 0 -41 -7t-30 -13l-10 -7l-26 10l26 209h207v-93h-38v57h-137l-10 -91l-7 -43h2q27 14 65 14q64 0 107 -42t43 -102
t-44 -102t-107 -42z" />
    <glyph glyph-name="six.numerator" horiz-adv-x="376" 
d="M198 256q-71 0 -111.5 56.5t-40.5 142.5q0 43 10.5 86t31.5 82t58.5 63t85.5 24q20 0 41 -5t31 -10l11 -5l-19 -32q-30 16 -65 16q-60 0 -98 -52t-47 -126h2q17 21 48.5 34.5t61.5 13.5q60 0 99 -38.5t39 -101.5q0 -70 -39.5 -109t-98.5 -39zM198 292q46 0 72.5 32
t26.5 80q0 47 -28 75.5t-72 28.5q-43 0 -76.5 -25t-33.5 -53q0 -48 31.5 -93t79.5 -45z" />
    <glyph glyph-name="seven.numerator" horiz-adv-x="335" 
d="M70 266l187 378l14 20v2q-11 -2 -23 -2h-176v-57h-38v93h282v-26l-204 -408h-42z" />
    <glyph glyph-name="eight.numerator" horiz-adv-x="382" 
d="M192 255q-59 0 -103 35.5t-44 97.5q0 71 75 120q-56 37 -56 92q0 51 38.5 80t91.5 29t92 -29.5t39 -82.5q0 -61 -59 -120q69 -37 69 -99q0 -51 -41.5 -87t-101.5 -36zM235 493q51 47 51 104q0 36 -27.5 56t-65.5 20q-37 0 -63.5 -19t-26.5 -54q0 -14 6 -26.5t13.5 -21
t23.5 -17.5t26 -14t32 -14.5t31 -13.5zM192 291q40 0 72 25t32 61q0 18 -8 32.5t-25.5 26t-32 19t-41 19t-39.5 17.5q-66 -44 -66 -103q0 -44 32.5 -70.5t75.5 -26.5z" />
    <glyph glyph-name="nine.numerator" horiz-adv-x="375" 
d="M145 256q-22 0 -43 5t-32 10l-10 5l19 32q29 -16 66 -16q59 0 97 52t47 126h-2q-41 -48 -114 -48q-58 0 -96 39.5t-38 104.5q0 66 40 105t98 39q71 0 111.5 -56.5t40.5 -143.5q0 -59 -17.5 -114.5t-61 -97.5t-105.5 -42zM179 458q44 0 76.5 25t32.5 63q0 40 -32.5 84
t-82.5 44q-43 0 -69 -32t-26 -80t28 -76t73 -28z" />
    <glyph glyph-name="zero.denominator" horiz-adv-x="394" 
d="M197 -10q-148 0 -148 227t148 227t148 -227t-148 -227zM197 26q109 0 109 191t-109 191t-109 -191t109 -191z" />
    <glyph glyph-name="one.denominator" horiz-adv-x="307" 
d="M39 0v36h106v315l2 31h-1q-5 -8 -17 -19l-61 -60l-26 27l103 104h38v-398h103v-36h-247z" />
    <glyph glyph-name="two.denominator" horiz-adv-x="353" 
d="M38 32q0 42 23 76t55 57t64.5 44.5t55.5 50t23 61.5q0 36 -25.5 61.5t-65.5 25.5q-25 0 -48.5 -12.5t-34.5 -25.5l-11 -12l-24 26q5 7 14 17t39.5 26.5t64.5 16.5q62 0 96 -35.5t34 -87.5q0 -41 -22.5 -73.5t-54.5 -54.5t-64.5 -42.5t-55.5 -49.5t-24 -65h192v57h38v-93
h-267q-2 19 -2 32z" />
    <glyph glyph-name="three.denominator" horiz-adv-x="360" 
d="M54 341v93h257v-26l-129 -151q50 -4 91 -35.5t41 -94.5q0 -57 -42.5 -97t-100.5 -40q-27 0 -51 6.5t-39 16t-26.5 19.5t-16.5 16l-5 7l28 26q4 -6 12 -15t36.5 -24.5t62.5 -15.5q39 0 71 29.5t32 71.5q0 43 -32.5 69.5t-74.5 26.5h-32l-11 24l113 133l20 19v2
q-11 -3 -27 -3h-139v-57h-38z" />
    <glyph glyph-name="four.denominator" horiz-adv-x="372" 
d="M238 0v121h-215v26l222 287h31v-277h68v-36h-68v-121h-38zM76 157h162v175l3 41h-2q-9 -18 -22 -34l-141 -180v-2z" />
    <glyph glyph-name="five.denominator" horiz-adv-x="356" 
d="M164 -10q-24 0 -46.5 6.5t-37 16t-25.5 19.5t-16 16l-5 7l29 23q4 -6 11.5 -14.5t34 -23t55.5 -14.5q47 0 79.5 31t32.5 77q0 44 -33 76t-79 32q-21 0 -41 -7t-30 -13l-10 -7l-26 10l26 209h207v-93h-38v57h-137l-10 -91l-7 -43h2q27 14 65 14q64 0 107 -42t43 -102
t-44 -102t-107 -42z" />
    <glyph glyph-name="six.denominator" horiz-adv-x="375" 
d="M198 -10q-71 0 -111.5 56.5t-40.5 142.5q0 43 10.5 86t31.5 82t58.5 63t85.5 24q20 0 41 -5t31 -10l11 -5l-19 -32q-30 16 -65 16q-60 0 -98 -52t-47 -126h2q17 21 48.5 34.5t61.5 13.5q60 0 99 -38.5t39 -101.5q0 -70 -39.5 -109t-98.5 -39zM198 26q46 0 72.5 32
t26.5 80q0 47 -28 75.5t-72 28.5q-43 0 -76.5 -25t-33.5 -53q0 -48 31.5 -93t79.5 -45z" />
    <glyph glyph-name="seven.denominator" horiz-adv-x="336" 
d="M71 0l187 378l14 20v2q-11 -2 -23 -2h-176v-57h-38v93h282v-26l-204 -408h-42z" />
    <glyph glyph-name="eight.denominator" horiz-adv-x="382" 
d="M192 -10q-59 0 -103 35.5t-44 97.5q0 71 75 120q-56 37 -56 92q0 51 38.5 80t91.5 29t92 -29.5t39 -82.5q0 -61 -59 -120q69 -37 69 -99q0 -51 -41.5 -87t-101.5 -36zM235 228q51 47 51 104q0 36 -27.5 56t-65.5 20q-37 0 -63.5 -19t-26.5 -54q0 -14 6 -26.5t13.5 -21
t23.5 -17.5t26 -14t32 -14.5t31 -13.5zM192 26q40 0 72 25t32 61q0 18 -8 32.5t-25.5 26t-32 19t-41 19t-39.5 17.5q-66 -44 -66 -103q0 -44 32.5 -70.5t75.5 -26.5z" />
    <glyph glyph-name="nine.denominator" horiz-adv-x="375" 
d="M145 -10q-22 0 -43 5t-32 10l-10 5l19 32q29 -16 66 -16q59 0 97 52t47 126h-2q-41 -48 -114 -48q-58 0 -96 39.5t-38 104.5q0 66 40 105t98 39q71 0 111.5 -56.5t40.5 -143.5q0 -59 -17.5 -114.5t-61 -97.5t-105.5 -42zM179 192q44 0 76.5 25t32.5 63q0 40 -32.5 84
t-82.5 44q-43 0 -69 -32t-26 -80t28 -76t73 -28z" />
    </font>
</defs>
</svg>
